<svg height="512" viewBox="0 0 512 512" width="512" xmlns="http://www.w3.org/2000/svg"><circle cx="256" cy="256" fill="#95b0ed" r="248.5"/><path d="M256 37.5v437c120.674 0 218.5-97.826 218.5-218.5S376.674 37.5 256 37.5z" fill="#c4f3ff"/><path d="M444.5 256c0-120.674-84.394-218.5-188.5-218.5-120.674 0-218.5 97.826-218.5 218.5S135.326 474.5 256 474.5c104.106 0 188.5-97.826 188.5-218.5z" fill="#fff"/><path d="M429.5 241h-30v30h30c8.28 0 15-6.72 15-15s-6.72-15-15-15z" fill="#452096"/><path d="M399.5 241H266.98v30H399.5c8.28 0 15-6.72 15-15s-6.72-15-15-15z" fill="#5c2bc8"/><path d="M271 112.5c0-8.284-6.716-15-15-15s-15 6.716-15 15v132.523h30z" fill="#5c2bc8"/><circle cx="256" cy="256" fill="#95b0ed" r="30"/><circle cx="419.246" cy="161.75" transform="rotate(-13.77 419.503 161.83)" r="7.5"/><path d="M356.745 96.504a7.5 7.5 0 10-12.99-7.5 7.5 7.5 0 0012.99 7.5z"/><circle cx="256" cy="67.5" r="7.5"/><path d="M165.5 99.25a7.5 7.5 0 10-7.5-12.99 7.5 7.5 0 007.5 12.99z"/><circle cx="92.754" cy="161.75" transform="rotate(-81.38 92.683 161.684)" r="7.5"/><circle cx="67.5" cy="256" r="7.5"/><circle cx="92.754" cy="350.25" transform="rotate(-6.28 92.626 350.3)" r="7.5"/><path d="M155.255 415.496a7.5 7.5 0 1012.99 7.5 7.5 7.5 0 00-12.99-7.5z"/><circle cx="256" cy="444.5" r="7.5"/><path d="M346.5 412.75a7.5 7.5 0 107.5 12.99 7.5 7.5 0 00-7.5-12.99z"/><circle cx="419.246" cy="350.25" transform="rotate(-74.34 419.325 350.193)" r="7.5"/><circle cx="256" cy="256" r="7.5"/><path d="M437.02 74.98C388.667 26.629 324.38 0 256 0S123.333 26.629 74.98 74.98C26.629 123.333 0 187.62 0 256s26.629 132.667 74.98 181.02C123.333 485.371 187.62 512 256 512s132.667-26.629 181.02-74.98C485.371 388.667 512 324.38 512 256s-26.629-132.667-74.98-181.02zM256 497C123.112 497 15 388.888 15 256S123.112 15 256 15s241 108.112 241 241-108.112 241-241 241z"/><path d="M415.806 96.194C373.121 53.508 316.367 30 256 30c-54.612 0-107.335 19.748-148.458 55.605a7.5 7.5 0 009.858 11.306C155.791 63.436 205.013 45 256 45c116.346 0 211 94.654 211 211s-94.654 211-211 211S45 372.346 45 256c0-50.987 18.436-100.209 51.911-138.6a7.5 7.5 0 00-11.306-9.858C49.748 148.665 30 201.388 30 256c0 60.367 23.508 117.121 66.194 159.806S195.633 482 256 482s117.121-23.508 159.806-66.194S482 316.367 482 256s-23.508-117.121-66.194-159.806z"/><path d="M138.621 373.38a7.5 7.5 0 0010.606 0l86.108-86.109A37.282 37.282 0 00256 293.5c12.242 0 23.131-5.898 29.98-15H429.5c12.407 0 22.5-10.093 22.5-22.5s-10.093-22.5-22.5-22.5H285.98a37.78 37.78 0 00-7.48-7.479V112.5c0-12.407-10.093-22.5-22.5-22.5s-22.5 10.093-22.5 22.5v113.521c-9.102 6.848-15 17.737-15 29.979a37.274 37.274 0 006.229 20.665l-86.108 86.109a7.497 7.497 0 000 10.606zM429.5 248.5c4.136 0 7.5 3.364 7.5 7.5s-3.364 7.5-7.5 7.5H292.745c.494-2.424.755-4.932.755-7.5s-.261-5.076-.755-7.5zm-181-136c0-4.136 3.364-7.5 7.5-7.5s7.5 3.364 7.5 7.5v106.755c-2.424-.494-4.932-.755-7.5-.755s-5.076.261-7.5.755zm7.5 121c12.407 0 22.5 10.093 22.5 22.5s-10.093 22.5-22.5 22.5-22.5-10.093-22.5-22.5 10.093-22.5 22.5-22.5z"/></svg>