<svg width="15" height="16" viewBox="0 0 15 16" xmlns="http://www.w3.org/2000/svg"><path d="M5.833 0c-.919 0-1.666.755-1.666 1.684v1.684H0v10.948C0 15.245.747 16 1.667 16h11.666c.92 0 1.667-.755 1.667-1.684V3.368h-4.167V1.684C10.833.755 10.086 0 9.167 0H5.833zm0 1.684h3.334v1.684H5.833V1.684zM1.667 5.053h11.666l.002 9.263H1.667V5.053zM5 6.737a.838.838 0 00-.833.842c0 .465.373.842.833.842.46 0 .833-.377.833-.842A.838.838 0 005 6.737zm5 0a.838.838 0 00-.833.842c0 .465.373.842.833.842.46 0 .833-.377.833-.842A.838.838 0 0010 6.737z" fill="#FFF"/></svg>