<svg width="248" height="248" viewBox="0 0 248 248" xmlns="http://www.w3.org/2000/svg" xmlns:xlink="http://www.w3.org/1999/xlink"><defs><filter x="-56.9%" y="-56.9%" width="213.8%" height="213.8%" filterUnits="objectBoundingBox" id="a"><feGaussianBlur stdDeviation="22" in="SourceGraphic"/></filter><filter x="-56.2%" y="-69.2%" width="212.5%" height="238.5%" filterUnits="objectBoundingBox" id="b"><feMorphology radius="3" operator="dilate" in="SourceAlpha" result="shadowSpreadOuter1"/><feOffset in="shadowSpreadOuter1" result="shadowOffsetOuter1"/><feGaussianBlur stdDeviation="9" in="shadowOffsetOuter1" result="shadowBlurOuter1"/><feColorMatrix values="0 0 0 0 0 0 0 0 0 0 0 0 0 0 0 0 0 0 0.504370629 0" in="shadowBlurOuter1"/></filter><filter x="-100%" y="-100%" width="300%" height="300%" filterUnits="objectBoundingBox" id="f"><feOffset in="SourceAlpha" result="shadowOffsetOuter1"/><feGaussianBlur stdDeviation="2" in="shadowOffsetOuter1" result="shadowBlurOuter1"/><feColorMatrix values="0 0 0 0 0 0 0 0 0 0 0 0 0 0 0 0 0 0 0.555370411 0" in="shadowBlurOuter1"/></filter><linearGradient x1="92.028%" y1="68.926%" x2="14.738%" y2="27.272%" id="d"><stop stop-color="#EE302A" offset="0%"/><stop stop-color="#BA0804" offset="100%"/></linearGradient><linearGradient x1="82.791%" y1="60.533%" x2="-15.473%" y2="14.823%" id="e"><stop stop-color="#383D45" offset="0%"/><stop stop-color="#0D0F12" offset="100%"/></linearGradient><circle id="g" cx="32" cy="32" r="3"/><path d="M32 0c17.672 0 32 14.328 32 32a31.865 31.865 0 01-7.02 20H7.02A31.865 31.865 0 010 32C0 14.328 14.328 0 32 0z" id="c"/></defs><g fill="none" fill-rule="evenodd"><path d="M110.2 0c3.19 0 5.8 3.07 5.8 6.824v102.352c0 3.753-2.61 6.824-5.8 6.824H5.8c-3.19 0-5.8-3.07-5.8-6.824V6.824C0 3.07 2.61 0 5.8 0h104.4z" fill="#BA0804" opacity=".4" filter="url(#a)" transform="translate(66 66)"/><g transform="translate(92 92)"><use fill="#000" filter="url(#b)" xlink:href="#c"/><use fill="url(#d)" xlink:href="#c"/><path d="M32 5c14.912 0 27 12.121 27 27.074A27.002 27.002 0 0153.837 48H10.163A27.002 27.002 0 015 32.074C5 17.121 17.088 5 32 5z" fill="url(#e)"/><path d="M31.304 29.616l19.838-9.557a.597.597 0 01.799.284.605.605 0 01-.202.757L33.588 33.596a2.284 2.284 0 01-3.187-.6 2.312 2.312 0 01.903-3.38z" fill="#FFF" fill-rule="nonzero"/><g fill-rule="nonzero"><use fill="#000" filter="url(#f)" xlink:href="#g"/><use fill="#FFF" xlink:href="#g"/></g><circle fill="#515862" fill-rule="nonzero" cx="31.5" cy="9.5" r="1.5"/><circle fill="#515862" fill-rule="nonzero" cx="54.5" cy="31.5" r="1.5"/><circle fill="#515862" fill-rule="nonzero" cx="51.5" cy="43.5" r="1.5"/><circle fill="#515862" fill-rule="nonzero" cx="43.5" cy="12.5" r="1.5"/></g></g></svg>