<svg width="248" height="249" viewBox="0 0 248 249" xmlns="http://www.w3.org/2000/svg" xmlns:xlink="http://www.w3.org/1999/xlink"><defs><filter x="-56.9%" y="-56.9%" width="213.8%" height="213.8%" filterUnits="objectBoundingBox" id="a"><feGaussianBlur stdDeviation="22" in="SourceGraphic"/></filter><filter x="-84.4%" y="-73.8%" width="268.8%" height="247.7%" filterUnits="objectBoundingBox" id="b"><feMorphology radius="3" operator="dilate" in="SourceAlpha" result="shadowSpreadOuter1"/><feOffset in="shadowSpreadOuter1" result="shadowOffsetOuter1"/><feGaussianBlur stdDeviation="9" in="shadowOffsetOuter1" result="shadowBlurOuter1"/><feColorMatrix values="0 0 0 0 0 0 0 0 0 0 0 0 0 0 0 0 0 0 0.504370629 0" in="shadowBlurOuter1"/></filter><filter x="-32.8%" y="-9.1%" width="165.7%" height="125.5%" filterUnits="objectBoundingBox" id="e"><feOffset dy="2" in="SourceAlpha" result="shadowOffsetOuter1"/><feGaussianBlur stdDeviation="2" in="shadowOffsetOuter1" result="shadowBlurOuter1"/><feColorMatrix values="0 0 0 0 0 0 0 0 0 0 0 0 0 0 0 0 0 0 0.36366368 0" in="shadowBlurOuter1"/></filter><linearGradient x1="82.178%" y1="78.669%" x2="23.003%" y2="15.571%" id="d"><stop stop-color="#EE302A" offset="0%"/><stop stop-color="#BA0804" offset="100%"/></linearGradient><linearGradient x1="82.791%" y1="56.317%" x2="-15.473%" y2="28.904%" id="g"><stop stop-color="#383D45" offset="0%"/><stop stop-color="#0D0F12" offset="100%"/></linearGradient><path d="M42.667 21.333C42.667 9.448 33.219 0 21.333 0 9.448 0 0 9.448 0 21.333 0 33.83 12.19 37.79 12.19 46.63v2.133h18.286V46.63c0-8.839 12.19-12.8 12.19-25.296z" id="c"/><path d="M14.171 8.99s-5.18 11.734-2.895 19.505c1.676 5.486 7.467 6.857 10.057 4.876.305 2.286-.61 4.267-1.371 6.248l4.571 1.676c2.896-8.533-1.98-18.285-4.876-22.857 6.857 4.876 8.838 13.105 8.838 13.105.61-.305.915-.914 1.676-1.676 4.267-5.181 1.981-17.22-16-20.877zm-1.98 38.248v7.62c0 2.894 2.133 5.332 4.876 5.942.61 1.829 2.285 3.2 4.266 3.2 1.981 0 3.81-1.371 4.267-3.2 2.743-.61 4.876-3.048 4.876-5.943v-7.619H12.19z" id="f"/></defs><g fill="none" fill-rule="evenodd"><path d="M110.2 0c3.19 0 5.8 3.07 5.8 6.824v102.352c0 3.753-2.61 6.824-5.8 6.824H5.8c-3.19 0-5.8-3.07-5.8-6.824V6.824C0 3.07 2.61 0 5.8 0h104.4z" fill="#BA0804" opacity=".4" filter="url(#a)" transform="translate(66 66.063)"/><g transform="translate(103 92.063)"><use fill="#000" filter="url(#b)" xlink:href="#c"/><use fill="url(#d)" xlink:href="#c"/></g><path d="M116.14 98.159s-5.924 13.836-3.31 23c1.916 6.47 8.538 8.087 11.5 5.75.349 2.696-.697 5.032-1.568 7.368l5.228 1.977c3.31-10.063-2.266-21.564-5.576-26.954 7.84 5.75 10.106 15.453 10.106 15.453.697-.359 1.046-1.078 1.917-1.976 4.879-6.11 2.265-20.306-18.296-24.618z" fill="#000" fill-rule="nonzero" opacity=".05"/><g fill-rule="nonzero" transform="translate(103 92.063)"><use fill="#000" filter="url(#e)" xlink:href="#f"/><use fill="#FFF" xlink:href="#f"/></g><path d="M30.476 54.857L12.8 57.295c.457 1.067 1.371 2.134 2.438 2.743l14.324-1.98c.61-.915.914-1.982.914-3.2zM12.19 51.352V54.4l18.286-2.59v-3.048l-18.286 2.59z" fill="url(#g)" transform="translate(103 92.063)"/></g></svg>