<svg width="248" height="248" viewBox="0 0 248 248" xmlns="http://www.w3.org/2000/svg" xmlns:xlink="http://www.w3.org/1999/xlink"><defs><filter x="-56.9%" y="-56.9%" width="213.8%" height="213.8%" filterUnits="objectBoundingBox" id="a"><feGaussianBlur stdDeviation="22" in="SourceGraphic"/></filter><filter x="-13.7%" y="-9.8%" width="127.5%" height="127.5%" filterUnits="objectBoundingBox" id="b"><feOffset dy="2" in="SourceAlpha" result="shadowOffsetOuter1"/><feGaussianBlur stdDeviation="2" in="shadowOffsetOuter1" result="shadowBlurOuter1"/><feColorMatrix values="0 0 0 0 0 0 0 0 0 0 0 0 0 0 0 0 0 0 0.36366368 0" in="shadowBlurOuter1"/></filter><filter x="-107.2%" y="-107.2%" width="314.3%" height="314.3%" filterUnits="objectBoundingBox" id="e"><feMorphology radius="3" operator="dilate" in="SourceAlpha" result="shadowSpreadOuter1"/><feOffset in="shadowSpreadOuter1" result="shadowOffsetOuter1"/><feGaussianBlur stdDeviation="9" in="shadowOffsetOuter1" result="shadowBlurOuter1"/><feColorMatrix values="0 0 0 0 0 0 0 0 0 0 0 0 0 0 0 0 0 0 0.504370629 0" in="shadowBlurOuter1"/></filter><linearGradient x1="51.989%" y1="78.669%" x2="48.331%" y2="15.571%" id="d"><stop stop-color="#EE302A" offset="0%"/><stop stop-color="#BA0804" offset="100%"/></linearGradient><linearGradient x1="92.028%" y1="78.669%" x2="14.738%" y2="15.571%" id="g"><stop stop-color="#EE302A" offset="0%"/><stop stop-color="#BA0804" offset="100%"/></linearGradient><rect id="c" x="6" y="6.063" width="51" height="51" rx="3"/><path d="M30.135 32.928H11.108l19.027 19.027V32.928zm3.46-3.46h19.027L33.595 10.443V29.47z" id="f"/></defs><g fill="none" fill-rule="evenodd"><path d="M110.2 0c3.19 0 5.8 3.07 5.8 6.824v102.352c0 3.753-2.61 6.824-5.8 6.824H5.8c-3.19 0-5.8-3.07-5.8-6.824V6.824C0 3.07 2.61 0 5.8 0h104.4z" fill="#BA0804" opacity=".4" filter="url(#a)" transform="translate(66 66)"/><g fill-rule="nonzero" transform="translate(93 93)"><use fill="#000" filter="url(#b)" xlink:href="#c"/><use fill="#FFF" xlink:href="#c"/></g><path fill="url(#d)" transform="rotate(-134.991 80.18 75.879)" d="M10.956 32.743h6.919v31.801h-6.92z"/><path fill="url(#d)" transform="rotate(-134.991 114.928 41.135)" d="M45.703-2h6.92v31.801h-6.92z"/><g transform="translate(93 93)"><use fill="#000" filter="url(#e)" xlink:href="#f"/><use fill="url(#g)" xlink:href="#f"/></g></g></svg>