<svg width="248" height="248" viewBox="0 0 248 248" xmlns="http://www.w3.org/2000/svg" xmlns:xlink="http://www.w3.org/1999/xlink"><defs><linearGradient x1="54.518%" y1="78.669%" x2="46.125%" y2="14.929%" id="d"><stop stop-color="#EE302A" offset="0%"/><stop stop-color="#BA0804" offset="100%"/></linearGradient><linearGradient x1="50.065%" y1="78.669%" x2="49.945%" y2="14.929%" id="e"><stop stop-color="#EE302A" offset="0%"/><stop stop-color="#BA0804" offset="100%"/></linearGradient><linearGradient x1="92.028%" y1="78.669%" x2="13.951%" y2="14.929%" id="f"><stop stop-color="#EE302A" offset="0%"/><stop stop-color="#BA0804" offset="100%"/></linearGradient><linearGradient x1="56.023%" y1="66.612%" x2="37.974%" y2="-5.476%" id="g"><stop stop-color="#383D45" offset="0%"/><stop stop-color="#0D0F12" offset="100%"/></linearGradient><filter x="-56.9%" y="-56.9%" width="213.8%" height="213.8%" filterUnits="objectBoundingBox" id="a"><feGaussianBlur stdDeviation="22" in="SourceGraphic"/></filter><filter x="-180%" y="-59%" width="460%" height="218%" filterUnits="objectBoundingBox" id="b"><feMorphology radius="3" operator="dilate" in="SourceAlpha" result="shadowSpreadOuter1"/><feOffset in="shadowSpreadOuter1" result="shadowOffsetOuter1"/><feGaussianBlur stdDeviation="9" in="shadowOffsetOuter1" result="shadowBlurOuter1"/><feColorMatrix values="0 0 0 0 0 0 0 0 0 0 0 0 0 0 0 0 0 0 0.504370629 0" in="shadowBlurOuter1"/></filter><path d="M21.5 0h-15C5.119 0 4 1.517 4 3.389V57.61C4 59.483 5.119 61 6.5 61h15c1.381 0 2.5-1.517 2.5-3.389V3.39C24 1.517 22.881 0 21.5 0z" id="c"/></defs><g fill="none" fill-rule="evenodd"><path d="M110.2 0c3.19 0 5.8 3.07 5.8 6.824v102.352c0 3.753-2.61 6.824-5.8 6.824H5.8c-3.19 0-5.8-3.07-5.8-6.824V6.824C0 3.07 2.61 0 5.8 0h104.4z" fill="#BA0804" opacity=".4" filter="url(#a)" transform="translate(66 66)"/><g transform="translate(92 94)"><path d="M16.693 32c-.5 0-.996-.224-1.331-.654a1.725 1.725 0 01.284-2.402l21.617-17.577a1.676 1.676 0 012.375.288c.577.744.45 1.819-.284 2.402L17.737 31.634a1.655 1.655 0 01-1.044.366z" fill="#64717C" fill-rule="nonzero"/><path d="M38.311 44c-.283 0-.572-.071-.835-.224l-23.626-13.6a1.707 1.707 0 01-.628-2.32 1.681 1.681 0 012.302-.632l23.626 13.6a1.707 1.707 0 01.628 2.32 1.686 1.686 0 01-1.467.856z" fill="#64717C" fill-rule="nonzero"/><use fill="#000" filter="url(#b)" xlink:href="#c"/><use fill="url(#d)" xlink:href="#c"/><path d="M0 7.256v48.488c0 1.675 2 1.675 2 0V7.256c0-1.675-2-1.675-2 0zm26 0v48.488c0 1.675 2 1.675 2 0V7.256c0-1.675-2-1.675-2 0z" fill="url(#e)"/><circle fill="#FFF" fill-rule="nonzero" cx="14" cy="10" r="4"/><circle fill="#000" fill-rule="nonzero" opacity=".07" cx="14" cy="10" r="5"/><circle fill="url(#f)" cx="14.5" cy="10.5" r="3.5"/><circle fill="#FFF" fill-rule="nonzero" cx="14.5" cy="10.5" r="2.5"/><path d="M15.875 28h-2.75c-.069 0-.125-.392-.125-.875v-5.25c0-.483.056-.875.125-.875h2.75c.069 0 .125.392.125.875v5.25c0 .483-.056.875-.125.875z" fill="url(#g)"/><path d="M59.15 23.8H54.9V19h-6.8v4.8h-4.25c-.47 0-.85.358-.85.8v1.6c0 .442.38.8.85.8h15.3c.47 0 .85-.358.85-.8v-1.6c0-.442-.38-.8-.85-.8zm0 33H54.9V52h-6.8v4.8h-4.25c-.47 0-.85.358-.85.8v1.6c0 .442.38.8.85.8h15.3c.47 0 .85-.358.85-.8v-1.6c0-.442-.38-.8-.85-.8z" fill="#515862" fill-rule="nonzero"/><path d="M61.5 19h-21a1.5 1.5 0 01-1.5-1.5v-15A1.5 1.5 0 0140.5 1h21A1.5 1.5 0 0163 2.5v15a1.5 1.5 0 01-1.5 1.5zm0 34h-21a1.5 1.5 0 01-1.5-1.5v-15a1.5 1.5 0 011.5-1.5h21a1.5 1.5 0 011.5 1.5v15a1.5 1.5 0 01-1.5 1.5z" stroke="#FFF" stroke-width="2"/></g></g></svg>