<svg width="248" height="249" viewBox="0 0 248 249" xmlns="http://www.w3.org/2000/svg" xmlns:xlink="http://www.w3.org/1999/xlink"><defs><linearGradient x1="91.348%" y1="64.086%" x2="13.951%" y2="34.413%" id="n"><stop stop-color="#EE302A" offset="0%"/><stop stop-color="#BA0804" offset="100%"/></linearGradient><linearGradient x1="49.996%" y1="100.459%" x2="49.996%" y2="29.107%" id="g"><stop offset="0%"/><stop stop-color="#040405" offset="18.8%"/><stop stop-color="#111212" offset="39.7%"/><stop stop-color="#262828" offset="61.5%"/><stop stop-color="#444647" offset="83.8%"/><stop stop-color="#5E6162" offset="100%"/></linearGradient><linearGradient x1="50%" y1="100.746%" x2="50%" y2="-14.455%" id="k"><stop offset="0%"/><stop stop-color="#040405" offset="18.8%"/><stop stop-color="#111212" offset="39.7%"/><stop stop-color="#262828" offset="61.5%"/><stop stop-color="#444647" offset="83.8%"/><stop stop-color="#5E6162" offset="100%"/></linearGradient><linearGradient x1="91.348%" y1="68.033%" x2="13.951%" y2="30.045%" id="j"><stop stop-color="#EE302A" offset="0%"/><stop stop-color="#BA0804" offset="100%"/></linearGradient><linearGradient x1="91.348%" y1="71.803%" x2="13.951%" y2="25.874%" id="f"><stop stop-color="#EE302A" offset="0%"/><stop stop-color="#BA0804" offset="100%"/></linearGradient><filter x="-75.6%" y="-91.2%" width="251.3%" height="282.4%" filterUnits="objectBoundingBox" id="d"><feMorphology radius="3" operator="dilate" in="SourceAlpha" result="shadowSpreadOuter1"/><feOffset in="shadowSpreadOuter1" result="shadowOffsetOuter1"/><feGaussianBlur stdDeviation="9" in="shadowOffsetOuter1" result="shadowBlurOuter1"/><feColorMatrix values="0 0 0 0 0 0 0 0 0 0 0 0 0 0 0 0 0 0 0.504370629 0" in="shadowBlurOuter1"/></filter><filter x="-11.2%" y="-11%" width="122.4%" height="130.8%" filterUnits="objectBoundingBox" id="b"><feOffset dy="2" in="SourceAlpha" result="shadowOffsetOuter1"/><feGaussianBlur stdDeviation="2" in="shadowOffsetOuter1" result="shadowBlurOuter1"/><feColorMatrix values="0 0 0 0 0 0 0 0 0 0 0 0 0 0 0 0 0 0 0.36366368 0" in="shadowBlurOuter1"/></filter><filter x="-56.9%" y="-56.9%" width="213.8%" height="213.8%" filterUnits="objectBoundingBox" id="a"><feGaussianBlur stdDeviation="22" in="SourceGraphic"/></filter><filter x="-11.6%" y="-13.4%" width="123.1%" height="137.4%" filterUnits="objectBoundingBox" id="h"><feOffset dy="2" in="SourceAlpha" result="shadowOffsetOuter1"/><feGaussianBlur stdDeviation="2" in="shadowOffsetOuter1" result="shadowBlurOuter1"/><feColorMatrix values="0 0 0 0 0 0 0 0 0 0 0 0 0 0 0 0 0 0 0.36366368 0" in="shadowBlurOuter1"/></filter><filter x="-12.3%" y="-17.6%" width="124.6%" height="149.2%" filterUnits="objectBoundingBox" id="l"><feOffset dy="2" in="SourceAlpha" result="shadowOffsetOuter1"/><feGaussianBlur stdDeviation="2" in="shadowOffsetOuter1" result="shadowBlurOuter1"/><feColorMatrix values="0 0 0 0 0 0 0 0 0 0 0 0 0 0 0 0 0 0 0.36366368 0" in="shadowBlurOuter1"/></filter><path d="M51.723 46.89L.937 28.407a1.423 1.423 0 01-.85-1.823L8.842 2.527a1.423 1.423 0 011.823-.85L61.451 20.16a1.423 1.423 0 01.85 1.824L53.546 46.04a1.423 1.423 0 01-1.823.85z" id="c"/><path d="M55.467 28.444H1.423a1.423 1.423 0 01-1.422-1.422v-25.6A1.422 1.422 0 011.423 0h54.044c.786 0 1.423.637 1.423 1.422v25.6c0 .785-.637 1.422-1.423 1.422z" id="m"/><path d="M16.01 3.622l-9.727 26.73 40.094 14.593 9.728-26.73L16.01 3.623zm6.433 28.07c-5.166-1.88-7.83-7.592-5.95-12.76 1.88-5.166 7.593-7.83 12.76-5.95s7.83 7.593 5.95 12.76-7.593 7.831-12.76 5.95zm22.052 8.028a2.135 2.135 0 011.46-4.01 2.135 2.135 0 01-1.46 4.01zm-5.346-1.946a2.135 2.135 0 011.46-4.01 2.135 2.135 0 01-1.46 4.01z" id="e"/><path d="M54.4 37.788L1.176 28.405a1.422 1.422 0 01-1.153-1.647L4.468 1.546A1.422 1.422 0 016.115.393l53.224 9.385c.773.136 1.29.874 1.153 1.647l-4.446 25.211a1.42 1.42 0 01-1.647 1.152z" id="i"/></defs><g fill="none" fill-rule="evenodd"><path d="M110.2 0c3.19 0 5.8 3.07 5.8 6.824v102.352c0 3.753-2.61 6.824-5.8 6.824H5.8c-3.19 0-5.8-3.07-5.8-6.824V6.824C0 3.07 2.61 0 5.8 0h104.4z" fill="#BA0804" opacity=".4" filter="url(#a)" transform="translate(66 66.063)"/><g fill-rule="nonzero" transform="translate(92.421 100.063)"><use fill="#000" filter="url(#b)" xlink:href="#c"/><use fill="#FFF" xlink:href="#c"/></g><g transform="translate(92.421 100.063)"><use fill="#000" filter="url(#d)" xlink:href="#e"/><use fill="url(#f)" xlink:href="#e"/></g><path d="M152.88 119.863l-49.793-18.123a1.423 1.423 0 00-1.823.85l-8.755 24.056a1.423 1.423 0 00.85 1.823l7.459 2.715 45.757 8.069.001.001a2.822 2.822 0 002.042-.43l1.787-4.908 2.476-14.053z" fill="#000" fill-rule="nonzero" opacity=".05"/><path d="M8.843 2.527L.088 26.583a1.363 1.363 0 00-.07.38c-.004.096-.009.194.006.288.004.034.012.067.02.101.115.497.489.915 1.014 1.054l7.6 2.04 45.62 8.044v.001c.174.03.348.036.515.019a1.802 1.802 0 001.33-.811l1.301-4.767 2.359-13.376-49.117-17.88a1.423 1.423 0 00-1.823.851z" fill="url(#g)" fill-rule="nonzero" opacity=".1" transform="translate(92.421 100.063)"/><g fill-rule="nonzero" transform="translate(92.421 100.063)"><use fill="#000" filter="url(#h)" xlink:href="#i"/><use fill="#FFF" xlink:href="#i"/></g><path d="M11.719 1.38l-4.94 28.012L48.797 36.8l4.94-28.012L11.719 1.38zm11.208 26.527c-5.414-.954-9.03-6.119-8.075-11.533.954-5.414 6.118-9.03 11.532-8.075 5.415.954 9.03 6.118 8.076 11.532-.954 5.415-6.119 9.03-11.533 8.076zm23.11 4.075a2.134 2.134 0 11.74-4.203 2.134 2.134 0 01-.74 4.203zm-5.602-.988a2.134 2.134 0 11.74-4.202 2.134 2.134 0 01-.74 4.202z" fill="url(#j)" transform="translate(92.421 100.063)"/><path d="M147.889 129.93c.735 0 1.4-.287 1.904-.748l.94-5.326v-14.197l-52.197-9.203a1.422 1.422 0 00-1.647 1.153l-4.445 25.21a1.42 1.42 0 001.153 1.648l8.294 1.463h45.998z" fill="#000" fill-rule="nonzero" opacity=".05"/><path d="M4.468 1.546L.103 26.296c-.03.172-.078.799.003.94.024.136.08.264.144.385a1.288 1.288 0 00.494.518c.042.054.275.135.33.175.015.011.056.025.072.035.064.04.354.105.43.122.05.012.227.053.28.053L9 29.156h45.47c.366 0 1.696-.144 1.95-.374.392 0 .902-1.404.902-1.798l.28-3.209V9.471L6.114.393a1.422 1.422 0 00-1.647 1.153z" fill="url(#k)" fill-rule="nonzero" opacity=".1" transform="translate(92.421 100.063)"/><g fill-rule="nonzero" transform="translate(92.421 100.063)"><use fill="#000" filter="url(#l)" xlink:href="#m"/><use fill="#FFF" xlink:href="#m"/></g><path d="M7.112 0v28.444h42.667V0H7.112zm15.644 24.178c-5.498 0-9.955-4.457-9.955-9.956 0-5.498 4.457-9.955 9.955-9.955 5.499 0 9.956 4.457 9.956 9.955 0 5.499-4.457 9.956-9.956 9.956zm23.467 0a2.134 2.134 0 11.002-4.268 2.134 2.134 0 01-.002 4.268zm-5.689 0a2.134 2.134 0 11.002-4.268 2.134 2.134 0 01-.002 4.268z" fill="url(#n)" transform="translate(92.421 100.063)"/></g></svg>