<svg width="248" height="249" viewBox="0 0 248 249" xmlns="http://www.w3.org/2000/svg" xmlns:xlink="http://www.w3.org/1999/xlink"><defs><filter x="-56.9%" y="-56.9%" width="213.8%" height="213.8%" filterUnits="objectBoundingBox" id="a"><feGaussianBlur stdDeviation="22" in="SourceGraphic"/></filter><filter x="-243.7%" y="-137.1%" width="587.5%" height="374.2%" filterUnits="objectBoundingBox" id="b"><feMorphology radius="3" operator="dilate" in="SourceAlpha" result="shadowSpreadOuter1"/><feOffset in="shadowSpreadOuter1" result="shadowOffsetOuter1"/><feGaussianBlur stdDeviation="9" in="shadowOffsetOuter1" result="shadowBlurOuter1"/><feColorMatrix values="0 0 0 0 0 0 0 0 0 0 0 0 0 0 0 0 0 0 0.504370629 0" in="shadowBlurOuter1"/></filter><filter x="-182.8%" y="-72.5%" width="465.6%" height="244.9%" filterUnits="objectBoundingBox" id="e"><feMorphology radius="3" operator="dilate" in="SourceAlpha" result="shadowSpreadOuter1"/><feOffset in="shadowSpreadOuter1" result="shadowOffsetOuter1"/><feGaussianBlur stdDeviation="9" in="shadowOffsetOuter1" result="shadowBlurOuter1"/><feColorMatrix values="0 0 0 0 0 0 0 0 0 0 0 0 0 0 0 0 0 0 0.504370629 0" in="shadowBlurOuter1"/></filter><filter x="-91.4%" y="-21.5%" width="282.8%" height="143%" filterUnits="objectBoundingBox" id="h"><feOffset in="SourceAlpha" result="shadowOffsetOuter1"/><feGaussianBlur stdDeviation="2" in="shadowOffsetOuter1" result="shadowBlurOuter1"/><feColorMatrix values="0 0 0 0 0 0 0 0 0 0 0 0 0 0 0 0 0 0 0.555370411 0" in="shadowBlurOuter1"/></filter><path d="M40.77 70.667H29.281A3.292 3.292 0 0126 67.385V47.692a3.292 3.292 0 013.282-3.282H40.77v26.257z" id="c"/><path id="f" d="M60.462 87.077l-19.693-16.41V44.41L60.462 28z"/><path id="i" d="M73.59 43.59h6.564v27.897H73.59z"/><linearGradient x1="63.298%" y1="78.669%" x2="38.843%" y2="15.571%" id="d"><stop stop-color="#EE302A" offset="0%"/><stop stop-color="#BA0804" offset="100%"/></linearGradient><linearGradient x1="54.67%" y1="78.669%" x2="46.082%" y2="15.571%" id="g"><stop stop-color="#EE302A" offset="0%"/><stop stop-color="#BA0804" offset="100%"/></linearGradient></defs><g fill="none" fill-rule="evenodd"><path d="M110.2 0c3.19 0 5.8 3.07 5.8 6.824v102.352c0 3.753-2.61 6.824-5.8 6.824H5.8c-3.19 0-5.8-3.07-5.8-6.824V6.824C0 3.07 2.61 0 5.8 0h104.4z" fill="#BA0804" opacity=".4" filter="url(#a)" transform="translate(66 66.063)"/><g transform="translate(66 66.063)"><use fill="#000" filter="url(#b)" xlink:href="#c"/><use fill="url(#d)" xlink:href="#c"/></g><g transform="translate(66 66.063)"><use fill="#000" filter="url(#e)" xlink:href="#f"/><use fill="url(#g)" xlink:href="#f"/></g><path fill="#FFF" fill-rule="nonzero" d="M130.688 131.144l19.726-19.726 4.642 4.641-19.726 19.727z"/><g fill-rule="nonzero" transform="rotate(-45.001 189.615 10.903)"><use fill="#000" filter="url(#h)" xlink:href="#i"/><use fill="#FFF" xlink:href="#i"/></g></g></svg>