<svg width="248" height="248" viewBox="0 0 248 248" xmlns="http://www.w3.org/2000/svg" xmlns:xlink="http://www.w3.org/1999/xlink"><defs><linearGradient x1="91.348%" y1="72.563%" x2="13.951%" y2="25.032%" id="d"><stop stop-color="#EE302A" offset="0%"/><stop stop-color="#BA0804" offset="100%"/></linearGradient><linearGradient x1="82.791%" y1="66.612%" x2="-15.473%" y2="-5.476%" id="e"><stop stop-color="#383D45" offset="0%"/><stop stop-color="#0D0F12" offset="100%"/></linearGradient><filter x="-56.9%" y="-56.9%" width="213.8%" height="213.8%" filterUnits="objectBoundingBox" id="a"><feGaussianBlur stdDeviation="22" in="SourceGraphic"/></filter><filter x="-56.2%" y="-66.7%" width="212.5%" height="233.3%" filterUnits="objectBoundingBox" id="b"><feMorphology radius="3" operator="dilate" in="SourceAlpha" result="shadowSpreadOuter1"/><feOffset in="shadowSpreadOuter1" result="shadowOffsetOuter1"/><feGaussianBlur stdDeviation="9" in="shadowOffsetOuter1" result="shadowBlurOuter1"/><feColorMatrix values="0 0 0 0 0 0 0 0 0 0 0 0 0 0 0 0 0 0 0.504370629 0" in="shadowBlurOuter1"/></filter><path d="M86.8 31c1.76 0 3.2 1.43 3.2 3.176v47.648C90 83.57 88.56 85 86.8 85H29.2c-1.76 0-3.2-1.43-3.2-3.176V34.176C26 32.43 27.44 31 29.2 31h57.6z" id="c"/></defs><g transform="translate(66 66)" fill="none" fill-rule="evenodd"><path d="M110.2 0c3.19 0 5.8 3.07 5.8 6.824v102.352c0 3.753-2.61 6.824-5.8 6.824H5.8c-3.19 0-5.8-3.07-5.8-6.824V6.824C0 3.07 2.61 0 5.8 0h104.4z" fill="#BA0804" opacity=".4" filter="url(#a)"/><use fill="#000" filter="url(#b)" xlink:href="#c"/><use fill="url(#d)" xlink:href="#c"/><circle fill="#515862" fill-rule="nonzero" cx="85.5" cy="36.5" r="1.5"/><circle fill="#515862" fill-rule="nonzero" cx="85.5" cy="80.5" r="1.5"/><path d="M61.8 29h14.4c.442 0 .8.373.8.833v8.334c0 .46-.358.833-.8.833H61.8c-.442 0-.8-.373-.8-.833v-8.334c0-.46.358-.833.8-.833z" fill="#000" fill-rule="nonzero" opacity=".05"/><path d="M61.8 29h14.4c.442 0 .8.373.8.833v8.334c0 .46-.358.833-.8.833H61.8c-.442 0-.8-.373-.8-.833v-8.334c0-.46.358-.833.8-.833z" fill="#000" fill-rule="nonzero" opacity=".05"/><path d="M61.8 28h14.4c.442 0 .8.373.8.833v8.334c0 .46-.358.833-.8.833H61.8c-.442 0-.8-.373-.8-.833v-8.334c0-.46.358-.833.8-.833z" fill="#1F2227" fill-rule="nonzero"/><path d="M56.5 30a1.5 1.5 0 011.5 1.5v3.75a.75.75 0 01-.75.75h-1.5a.75.75 0 01-.75-.75V31.5a1.5 1.5 0 011.5-1.5zm-10 0h3c.828 0 1.5.717 1.5 1.6v5.6c0 .442-.336.8-.75.8h-4.5c-.414 0-.75-.358-.75-.8v-5.6c0-.883.672-1.6 1.5-1.6z" fill="#FFF" fill-rule="nonzero"/><path d="M48.25 42h2.5c.69 0 1.25.384 1.25.857v22.286c0 .473-.56.857-1.25.857h-2.5c-.69 0-1.25-.384-1.25-.857V42.857c0-.473.56-.857 1.25-.857z" fill="#000" fill-rule="nonzero" opacity=".05"/><path d="M48.75 43h1.5c.414 0 .75.352.75.786v20.428c0 .434-.336.786-.75.786h-1.5c-.414 0-.75-.352-.75-.786V43.786c0-.434.336-.786.75-.786z" fill="#515862" fill-rule="nonzero"/><path d="M51.806 76h27.388c.445 0 .806.336.806.75v1.5c0 .414-.36.75-.806.75H51.806c-.445 0-.806-.336-.806-.75v-1.5c0-.414.36-.75.806-.75z" fill="#FFF" fill-rule="nonzero"/><path d="M51.806 70h27.388c.445 0 .806.336.806.75v1.5c0 .414-.36.75-.806.75H51.806c-.445 0-.806-.336-.806-.75v-1.5c0-.414.36-.75.806-.75z" fill="#FFF" fill-rule="nonzero" opacity=".5"/><path d="M76.857 65H61.143A3.142 3.142 0 0158 61.857V46.143A3.142 3.142 0 0161.143 43h15.714A3.142 3.142 0 0180 46.143v15.714A3.142 3.142 0 0176.857 65z" fill="#000" fill-rule="nonzero" opacity=".05"/><path d="M77.577 64H61.423A2.424 2.424 0 0159 61.577V45.423A2.424 2.424 0 0161.423 43h16.154A2.424 2.424 0 0180 45.423v16.154A2.424 2.424 0 0177.577 64z" fill="#000" fill-rule="nonzero" opacity=".05"/><path d="M77.417 63H61.583C60.71 63 60 62.29 60 61.417V45.583c0-.874.71-1.583 1.583-1.583h15.834c.874 0 1.583.71 1.583 1.583v15.834C79 62.29 78.29 63 77.417 63z" fill="url(#e)"/><circle fill="#515862" fill-rule="nonzero" cx="75" cy="48" r="1"/><circle fill="#515862" fill-rule="nonzero" cx="72" cy="48" r="1"/><circle fill="#515862" fill-rule="nonzero" cx="30.5" cy="36.5" r="1.5"/><circle fill="#515862" fill-rule="nonzero" cx="30.5" cy="80.5" r="1.5"/><path d="M36.75 43h1.5c.414 0 .75.352.75.786v20.428c0 .434-.336.786-.75.786h-1.5c-.414 0-.75-.352-.75-.786V43.786c0-.434.336-.786.75-.786zm6 0h1.5c.414 0 .75.352.75.786v20.428c0 .434-.336.786-.75.786h-1.5c-.414 0-.75-.352-.75-.786V43.786c0-.434.336-.786.75-.786z" fill="#FFF" fill-rule="nonzero"/><path d="M43.333 79h-6.666c-.92 0-1.667-.747-1.667-1.667v-6.666c0-.92.747-1.667 1.667-1.667h6.666c.92 0 1.667.747 1.667 1.667v6.666c0 .92-.747 1.667-1.667 1.667z" fill="url(#e)"/><circle fill="#515862" fill-rule="nonzero" cx="43" cy="77" r="1"/></g></svg>