<svg width="248" height="248" viewBox="0 0 248 248" xmlns="http://www.w3.org/2000/svg" xmlns:xlink="http://www.w3.org/1999/xlink"><defs><filter x="-56.9%" y="-56.9%" width="213.8%" height="213.8%" filterUnits="objectBoundingBox" id="a"><feGaussianBlur stdDeviation="22" in="SourceGraphic"/></filter><filter x="-56.2%" y="-87.8%" width="212.5%" height="275.6%" filterUnits="objectBoundingBox" id="b"><feMorphology radius="3" operator="dilate" in="SourceAlpha" result="shadowSpreadOuter1"/><feOffset in="shadowSpreadOuter1" result="shadowOffsetOuter1"/><feGaussianBlur stdDeviation="9" in="shadowOffsetOuter1" result="shadowBlurOuter1"/><feColorMatrix values="0 0 0 0 0 0 0 0 0 0 0 0 0 0 0 0 0 0 0.504370629 0" in="shadowBlurOuter1"/></filter><filter x="-67.6%" y="-211.8%" width="235.5%" height="523.5%" filterUnits="objectBoundingBox" id="e"><feMorphology radius="3" operator="dilate" in="SourceAlpha" result="shadowSpreadOuter1"/><feOffset in="shadowSpreadOuter1" result="shadowOffsetOuter1"/><feGaussianBlur stdDeviation="9" in="shadowOffsetOuter1" result="shadowBlurOuter1"/><feColorMatrix values="0 0 0 0 0 0 0 0 0 0 0 0 0 0 0 0 0 0 0.504370629 0" in="shadowBlurOuter1"/></filter><linearGradient x1="92.028%" y1="61.766%" x2="13.951%" y2="35.607%" id="d"><stop stop-color="#EE302A" offset="0%"/><stop stop-color="#BA0804" offset="100%"/></linearGradient><linearGradient x1="92.028%" y1="52.95%" x2="13.951%" y2="46.392%" id="g"><stop stop-color="#EE302A" offset="0%"/><stop stop-color="#BA0804" offset="100%"/></linearGradient><path d="M64 25.129C64 33.898 56.84 41 48 41H12.667C5.667 41 0 35.379 0 28.435c0-6.004 4.24-11.03 9.933-12.273C12.2 6.89 20.613 0 30.667 0A21.36 21.36 0 0148.32 9.271C57.013 9.43 64 16.466 64 25.13z" id="c"/><path d="M31.525 47c.85 0 1.499.65 1.499 1.5v2.673A6.485 6.485 0 0137.846 56h18.655c.85 0 1.499.65 1.499 1.5s-.65 1.5-1.499 1.5H37.847a6.482 6.482 0 01-6.322 5 6.482 6.482 0 01-6.322-5H14.041c-.849 0-1.498-.65-1.498-1.5s.65-1.5 1.498-1.5h11.163a6.485 6.485 0 014.822-4.827V48.5c0-.85.65-1.5 1.499-1.5zm0 7a3.477 3.477 0 00-3.497 3.5c0 1.95 1.549 3.5 3.497 3.5a3.477 3.477 0 003.497-3.5c0-1.95-1.549-3.5-3.497-3.5zM6.798 56c.1 0 .2.05.3.1.1.05.2.1.25.15.1.05.15.1.2.2.3.3.45.65.45 1.05 0 .1 0 .2-.05.3 0 .1-.05.2-.1.3-.05.1-.1.2-.15.25-.05.1-.1.15-.2.2-.15.3-.55.45-.95.45-.4 0-.799-.15-1.048-.45l-.2-.2c-.05-.1-.1-.15-.15-.25-.05-.1-.05-.2-.1-.3 0-.1-.05-.2-.05-.3 0-.4.15-.8.45-1.05l.2-.2c.1-.05.15-.1.25-.15.1-.05.199-.05.299-.1.2-.05.4-.05.6 0z" id="f"/></defs><g fill="none" fill-rule="evenodd"><path d="M110.2 0c3.19 0 5.8 3.07 5.8 6.824v102.352c0 3.753-2.61 6.824-5.8 6.824H5.8c-3.19 0-5.8-3.07-5.8-6.824V6.824C0 3.07 2.61 0 5.8 0h104.4z" fill="#BA0804" opacity=".4" filter="url(#a)" transform="translate(66 66)"/><g transform="translate(92 92)"><use fill="#000" filter="url(#b)" xlink:href="#c"/><use fill="url(#d)" xlink:href="#c"/></g><path d="M132.923 109h-2.692c-2.53 0-4.872 1.164-6.424 3.195-.308.404-.36.945-.132 1.398.228.454.695.74 1.205.74h-2.761c.51 0 .979-.286 1.206-.74a1.324 1.324 0 00-.132-1.398c-1.552-2.031-3.894-3.195-6.424-3.195h-2.692c-4.454 0-8.077 3.588-8.077 8s3.622 8 8.077 8h2.692c2.53 0 4.872-1.164 6.424-3.195.308-.404.36-.945.132-1.398a1.348 1.348 0 00-1.205-.74h2.761c-.51 0-.979.286-1.206.74-.227.453-.176.994.132 1.398 1.552 2.031 3.894 3.195 6.424 3.195h2.692c4.455 0 8.077-3.588 8.077-8s-3.623-8-8.077-8zm-18.846 10.667c-1.485 0-2.692-1.196-2.692-2.667 0-1.47 1.207-2.667 2.692-2.667h4.038c-1.484 0-2.692 1.196-2.692 2.667 0 1.47 1.208 2.667 2.692 2.667h-4.038zm17.5-2.667c0-1.47-1.208-2.667-2.692-2.667h4.038c1.485 0 2.692 1.196 2.692 2.667 0 1.47-1.207 2.667-2.692 2.667h-4.038c1.484 0 2.692-1.196 2.692-2.667z" fill="#000" fill-rule="nonzero" opacity=".05"/><path d="M114.26 120.91h9.214l-.802 1.093c-1.396 1.905-3.5 2.997-5.772 2.997h-2.64c-4.004 0-7.26-3.365-7.26-7.5s3.256-7.5 7.26-7.5h2.64c2.272 0 4.376 1.092 5.772 2.997l.802 1.094h-9.214c-1.819 0-3.3 1.529-3.3 3.409s1.481 3.41 3.3 3.41zM132.74 110h-2.64c-2.272 0-4.376 1.092-5.772 2.997l-.802 1.094h9.214c1.819 0 3.3 1.529 3.3 3.409s-1.481 3.41-3.3 3.41h-9.214l.802 1.093c1.396 1.905 3.5 2.997 5.772 2.997h2.64c4.004 0 7.26-3.365 7.26-7.5s-3.256-7.5-7.26-7.5zm-16.5 7.5c0 1.128.888 2.045 1.98 2.045h10.56c1.092 0 1.98-.917 1.98-2.045s-.888-2.045-1.98-2.045h-10.56c-1.092 0-1.98.917-1.98 2.045z" fill="#000" fill-rule="nonzero" opacity=".07"/><path d="M114.834 121.4c-2.26 0-4.1-1.75-4.1-3.9s1.84-3.9 4.1-3.9H123a6.926 6.926 0 00-5.432-2.6h-2.734c-3.768 0-6.834 2.916-6.834 6.5s3.066 6.5 6.834 6.5h2.734a6.922 6.922 0 005.432-2.6h-8.166zm18.332-10.4h-2.734a6.922 6.922 0 00-5.432 2.6h8.166c2.26 0 4.1 1.75 4.1 3.9s-1.84 3.9-4.1 3.9H125a6.926 6.926 0 005.432 2.6h2.734c3.768 0 6.834-2.916 6.834-6.5s-3.066-6.5-6.834-6.5z" fill="#FFF" fill-rule="nonzero"/><path d="M128.7 119h-10.4c-.718 0-1.3-.67-1.3-1.5s.582-1.5 1.3-1.5h10.4c.718 0 1.3.67 1.3 1.5s-.582 1.5-1.3 1.5z" fill="#FFF" fill-rule="nonzero"/><g transform="translate(92 92)"><use fill="#000" filter="url(#e)" xlink:href="#f"/><use fill="url(#g)" xlink:href="#f"/></g></g></svg>