<svg width="248" height="249" viewBox="0 0 248 249" xmlns="http://www.w3.org/2000/svg" xmlns:xlink="http://www.w3.org/1999/xlink"><defs><filter x="-56.9%" y="-56.9%" width="213.8%" height="213.8%" filterUnits="objectBoundingBox" id="a"><feGaussianBlur stdDeviation="22" in="SourceGraphic"/></filter><filter x="-124%" y="-113%" width="345.5%" height="332.2%" filterUnits="objectBoundingBox" id="h"><feMorphology radius="3" operator="dilate" in="SourceAlpha" result="shadowSpreadOuter1"/><feOffset in="shadowSpreadOuter1" result="shadowOffsetOuter1"/><feGaussianBlur stdDeviation="9" in="shadowOffsetOuter1" result="shadowBlurOuter1"/><feColorMatrix values="0 0 0 0 0 0 0 0 0 0 0 0 0 0 0 0 0 0 0.504370629 0" in="shadowBlurOuter1"/></filter><filter x="-121.6%" y="-113%" width="345.5%" height="332.2%" filterUnits="objectBoundingBox" id="b"><feMorphology radius="3" operator="dilate" in="SourceAlpha" result="shadowSpreadOuter1"/><feOffset in="shadowSpreadOuter1" result="shadowOffsetOuter1"/><feGaussianBlur stdDeviation="9" in="shadowOffsetOuter1" result="shadowBlurOuter1"/><feColorMatrix values="0 0 0 0 0 0 0 0 0 0 0 0 0 0 0 0 0 0 0.504370629 0" in="shadowBlurOuter1"/></filter><filter x="-118.4%" y="-112.5%" width="336.8%" height="325%" filterUnits="objectBoundingBox" id="e"><feMorphology radius="3" operator="dilate" in="SourceAlpha" result="shadowSpreadOuter1"/><feOffset in="shadowSpreadOuter1" result="shadowOffsetOuter1"/><feGaussianBlur stdDeviation="9" in="shadowOffsetOuter1" result="shadowBlurOuter1"/><feColorMatrix values="0 0 0 0 0 0 0 0 0 0 0 0 0 0 0 0 0 0 0.504370629 0" in="shadowBlurOuter1"/></filter><filter x="-118.4%" y="-112.5%" width="336.8%" height="325%" filterUnits="objectBoundingBox" id="j"><feMorphology radius="3" operator="dilate" in="SourceAlpha" result="shadowSpreadOuter1"/><feOffset in="shadowSpreadOuter1" result="shadowOffsetOuter1"/><feGaussianBlur stdDeviation="9" in="shadowOffsetOuter1" result="shadowBlurOuter1"/><feColorMatrix values="0 0 0 0 0 0 0 0 0 0 0 0 0 0 0 0 0 0 0.504370629 0" in="shadowBlurOuter1"/></filter><path d="M30.4 62.4l-.683 1.451S5.487 51.211.789 32H30.4v30.4z" id="i"/><path d="M30.4 62.4l.683 1.451S55.313 51.211 60.011 32H30.4v30.4z" id="c"/><path d="M0 11.2l1.6-1.6C19.395 9.6 19.645 0 30.4 0v32H.789A26.862 26.862 0 010 25.6V11.2z" id="k"/><path d="M60.8 11.2l-1.6-1.6C41.405 9.6 41.155 0 30.4 0v32h29.611c.504-2.06.789-4.195.789-6.4V11.2z" id="f"/><linearGradient x1="86.324%" y1="78.669%" x2="19.524%" y2="15.571%" id="d"><stop stop-color="#EE302A" offset="0%"/><stop stop-color="#BA0804" offset="100%"/></linearGradient><linearGradient x1="87.93%" y1="78.669%" x2="18.176%" y2="15.571%" id="g"><stop stop-color="#EE302A" offset="0%"/><stop stop-color="#BA0804" offset="100%"/></linearGradient></defs><g fill="none" fill-rule="evenodd"><path d="M110.2 0c3.19 0 5.8 3.07 5.8 6.824v102.352c0 3.753-2.61 6.824-5.8 6.824H5.8c-3.19 0-5.8-3.07-5.8-6.824V6.824C0 3.07 2.61 0 5.8 0h104.4z" fill="#BA0804" opacity=".4" filter="url(#a)" transform="translate(66 66.063)"/><g transform="translate(95 92)"><use fill="#000" filter="url(#b)" xlink:href="#c"/><use fill="url(#d)" xlink:href="#c"/></g><g transform="translate(95 92)"><use fill="#000" filter="url(#e)" xlink:href="#f"/><use fill="url(#g)" xlink:href="#f"/></g><g transform="translate(95 92)"><use fill="#000" filter="url(#h)" xlink:href="#i"/><use fill="url(#d)" xlink:href="#i"/></g><g transform="translate(95 92)"><use fill="#000" filter="url(#j)" xlink:href="#k"/><use fill="url(#g)" xlink:href="#k"/></g><path d="M138.475 111.475L122.2 127.75l-8.275-8.275a3.2 3.2 0 00-4.525 0l-2.262 2.263a3.2 3.2 0 000 4.524l12.8 12.8a3.2 3.2 0 004.524 0l20.8-20.8a3.2 3.2 0 000-4.524L143 111.475a3.2 3.2 0 00-4.525 0z" fill="#000" fill-rule="nonzero" opacity=".05"/><path d="M120.502 138.498l-12.8-12.8a2.399 2.399 0 010-3.394l2.263-2.262a2.399 2.399 0 013.393 0l8.842 8.84 16.84-16.84a2.399 2.399 0 013.394 0l2.262 2.262a2.399 2.399 0 010 3.394l-20.8 20.8a2.402 2.402 0 01-3.394 0z" fill="#000" fill-rule="nonzero" opacity=".07"/><path d="M121.069 137.931l-12.8-12.8a1.598 1.598 0 010-2.262l2.262-2.263a1.598 1.598 0 012.263 0l9.406 9.407 17.406-17.407a1.598 1.598 0 012.263 0l2.262 2.263a1.598 1.598 0 010 2.262l-20.8 20.8a1.598 1.598 0 01-2.262 0z" fill="#FFF" fill-rule="nonzero"/></g></svg>