<svg width="267" height="50" viewBox="0 0 267 50" xmlns="http://www.w3.org/2000/svg"><g fill="none"><path d="M132.83 49v-2.57h.77c.487 0 .923-.04 1.31-.12a2.83 2.83 0 00.985-.385c.27-.177.477-.407.62-.69.143-.283.215-.625.215-1.025 0-.733-.262-1.285-.785-1.655-.523-.37-1.272-.555-2.245-.555-.28 0-.588.012-.925.035a5.47 5.47 0 00-.915.135V49h.97zm.73-3.4h-.73v-2.72c.22-.02.537-.03.95-.03.26 0 .507.02.74.06.233.04.438.112.615.215s.317.242.42.415c.103.173.155.393.155.66 0 .28-.05.51-.15.69-.1.18-.242.322-.425.425a2.035 2.035 0 01-.675.22 5.645 5.645 0 01-.9.065zm8.13 3.55c.447 0 .868-.077 1.265-.23a2.95 2.95 0 001.045-.685c.3-.303.538-.682.715-1.135.177-.453.265-.977.265-1.57 0-.593-.088-1.117-.265-1.57a3.285 3.285 0 00-.715-1.135 2.95 2.95 0 00-1.045-.685 3.478 3.478 0 00-1.265-.23c-.453 0-.882.077-1.285.23a2.98 2.98 0 00-1.06.685 3.247 3.247 0 00-.72 1.135c-.177.453-.265.977-.265 1.57 0 .593.088 1.117.265 1.57.177.453.417.832.72 1.135a2.98 2.98 0 001.06.685c.403.153.832.23 1.285.23zm-.02-.85c-.353 0-.672-.065-.955-.195a1.993 1.993 0 01-.72-.555 2.563 2.563 0 01-.455-.875 3.848 3.848 0 01-.16-1.145c0-.42.053-.802.16-1.145.107-.343.258-.635.455-.875s.437-.425.72-.555c.283-.13.602-.195.955-.195s.67.065.95.195c.28.13.518.315.715.555.197.24.348.532.455.875.107.343.16.725.16 1.145 0 .42-.053.802-.16 1.145a2.563 2.563 0 01-.455.875c-.197.24-.435.425-.715.555a2.23 2.23 0 01-.95.195zm7.37.7c.287-.72.573-1.46.86-2.22.287-.76.57-1.587.85-2.48.28.893.56 1.72.84 2.48.28.76.567 1.5.86 2.22h.97c.347-1.02.655-2.097.925-3.23s.525-2.367.765-3.7h-.99c-.093.52-.19 1.042-.29 1.565-.1.523-.202 1.03-.305 1.52a51.9 51.9 0 01-.315 1.405 28.85 28.85 0 01-.32 1.23c-.267-.7-.553-1.468-.86-2.305a40.104 40.104 0 01-.85-2.595h-.84c-.26.893-.54 1.758-.84 2.595-.3.837-.583 1.605-.85 2.305-.113-.38-.223-.793-.33-1.24a71.892 71.892 0 01-.63-2.92c-.1-.52-.197-1.04-.29-1.56h-1.02c.233 1.333.485 2.567.755 3.7s.582 2.21.935 3.23h.97zm12.39 0v-.83h-3.51v-2.4h2.9v-.81h-2.9V42.9h3.26v-.83h-4.23V49h4.48zm2.9 0v-2.71h1.145c.09 0 .178-.003.265-.01a16.656 16.656 0 01.9 1.205 16.946 16.946 0 01.91 1.515h1.06a8.36 8.36 0 00-.435-.83c-.17-.287-.342-.562-.515-.825a13.837 13.837 0 00-.505-.72 23.977 23.977 0 00-.405-.525c.473-.16.832-.403 1.075-.73.243-.327.365-.72.365-1.18 0-.727-.255-1.273-.765-1.64S166.173 42 165.2 42c-.28 0-.588.012-.925.035a5.47 5.47 0 00-.915.135V49h.97zm.69-3.51h-.69v-2.61c.22-.02.537-.03.95-.03.26 0 .505.02.735.06.23.04.43.11.6.21.17.1.305.237.405.41.1.173.15.39.15.65 0 .28-.05.505-.15.675-.1.17-.242.302-.425.395a2.046 2.046 0 01-.675.19 7.31 7.31 0 01-.9.05zm9.81 3.51v-.83h-3.51v-2.4h2.9v-.81h-2.9V42.9h3.26v-.83h-4.23V49h4.48zm3.77.06c.567 0 1.087-.072 1.56-.215.473-.143.88-.36 1.22-.65.34-.29.603-.657.79-1.1.187-.443.28-.965.28-1.565s-.093-1.122-.28-1.565a2.896 2.896 0 00-.79-1.1 3.349 3.349 0 00-1.22-.65A5.365 5.365 0 00178.6 42c-.28 0-.588.012-.925.035a5.47 5.47 0 00-.915.135v6.72c.273.067.578.112.915.135.337.023.645.035.925.035zm.08-.85c-.273 0-.485-.003-.635-.01a5.56 5.56 0 01-.315-.02v-5.3a5.56 5.56 0 01.315-.02c.15-.007.362-.01.635-.01.92 0 1.607.235 2.06.705.453.47.68 1.128.68 1.975 0 .847-.227 1.505-.68 1.975-.453.47-1.14.705-2.06.705zm10.79.85c1.107 0 1.915-.175 2.425-.525.51-.35.765-.872.765-1.565 0-.473-.12-.84-.36-1.1-.24-.26-.563-.45-.97-.57.3-.12.54-.302.72-.545.18-.243.27-.555.27-.935 0-.34-.073-.627-.22-.86a1.648 1.648 0 00-.605-.565 2.84 2.84 0 00-.91-.305c-.35-.06-.725-.09-1.125-.09a10.845 10.845 0 00-.935.04 10.9 10.9 0 00-.485.05 3.78 3.78 0 00-.44.08v6.72c.133.033.28.06.44.08a11.365 11.365 0 00.975.08c.163.007.315.01.455.01zm.11-4.07h-1.02v-2.14a5.96 5.96 0 01.38-.03c.14-.007.333-.01.58-.01.247 0 .48.02.7.06.22.04.412.102.575.185.163.083.292.193.385.33.093.137.14.305.14.505 0 .213-.045.39-.135.53-.09.14-.213.253-.37.34a1.673 1.673 0 01-.555.18c-.213.033-.44.05-.68.05zm-.05 3.26c-.153 0-.288-.002-.405-.005a11.018 11.018 0 01-.565-.035v-2.44h1.25c.28 0 .533.02.76.06.227.04.422.107.585.2a.965.965 0 01.375.375c.087.157.13.348.13.575 0 .253-.058.463-.175.63a1.184 1.184 0 01-.465.39 2.293 2.293 0 01-.675.195 5.765 5.765 0 01-.815.055zm7.57.75v-2.8a65.088 65.088 0 002.44-4.13h-1.08a29.46 29.46 0 01-.86 1.665 35.424 35.424 0 01-.96 1.625 30.317 30.317 0 01-.97-1.625 25.402 25.402 0 01-.85-1.665h-1.14c.36.667.743 1.347 1.15 2.04.407.693.84 1.397 1.3 2.11V49h.97zm10.05.15a5.684 5.684 0 001.41-.17c.18-.047.33-.095.45-.145.12-.05.203-.092.25-.125l-.25-.8a4.883 4.883 0 01-.66.25c-.293.093-.663.14-1.11.14-.387 0-.725-.067-1.015-.2a1.954 1.954 0 01-.725-.565 2.478 2.478 0 01-.435-.875 4.125 4.125 0 01-.145-1.13c0-.427.055-.812.165-1.155.11-.343.268-.635.475-.875.207-.24.457-.423.75-.55.293-.127.623-.19.99-.19.173 0 .345.015.515.045.17.03.327.068.47.115.143.047.272.093.385.14.113.047.2.09.26.13l.28-.8a2.349 2.349 0 00-.22-.12 2.87 2.87 0 00-.415-.16 4.547 4.547 0 00-1.375-.2c-.453 0-.88.08-1.28.24-.4.16-.75.393-1.05.7a3.35 3.35 0 00-.715 1.135c-.177.45-.265.965-.265 1.545s.078 1.095.235 1.545c.157.45.378.828.665 1.135.287.307.63.54 1.03.7.4.16.843.24 1.33.24zm4.89-.15v-2.71h1.145c.09 0 .178-.003.265-.01a16.656 16.656 0 01.9 1.205 16.946 16.946 0 01.91 1.515h1.06a8.36 8.36 0 00-.435-.83c-.17-.287-.342-.562-.515-.825a13.837 13.837 0 00-.505-.72 23.977 23.977 0 00-.405-.525c.473-.16.832-.403 1.075-.73.243-.327.365-.72.365-1.18 0-.727-.255-1.273-.765-1.64s-1.252-.55-2.225-.55c-.28 0-.588.012-.925.035a5.47 5.47 0 00-.915.135V49h.97zm.69-3.51h-.69v-2.61c.22-.02.537-.03.95-.03.26 0 .505.02.735.06.23.04.43.11.6.21.17.1.305.237.405.41.1.173.15.39.15.65 0 .28-.05.505-.15.675-.1.17-.242.302-.425.395a2.046 2.046 0 01-.675.19 7.31 7.31 0 01-.9.05zm8.27 3.66c.447 0 .868-.077 1.265-.23a2.95 2.95 0 001.045-.685c.3-.303.538-.682.715-1.135.177-.453.265-.977.265-1.57 0-.593-.088-1.117-.265-1.57a3.285 3.285 0 00-.715-1.135 2.95 2.95 0 00-1.045-.685 3.478 3.478 0 00-1.265-.23c-.453 0-.882.077-1.285.23a2.98 2.98 0 00-1.06.685 3.247 3.247 0 00-.72 1.135c-.177.453-.265.977-.265 1.57 0 .593.088 1.117.265 1.57.177.453.417.832.72 1.135a2.98 2.98 0 001.06.685c.403.153.832.23 1.285.23zm-.02-.85c-.353 0-.672-.065-.955-.195a1.993 1.993 0 01-.72-.555 2.563 2.563 0 01-.455-.875 3.848 3.848 0 01-.16-1.145c0-.42.053-.802.16-1.145.107-.343.258-.635.455-.875s.437-.425.72-.555c.283-.13.602-.195.955-.195s.67.065.95.195c.28.13.518.315.715.555.197.24.348.532.455.875.107.343.16.725.16 1.145 0 .42-.053.802-.16 1.145a2.563 2.563 0 01-.455.875c-.197.24-.435.425-.715.555a2.23 2.23 0 01-.95.195zm6.96.85c.807 0 1.432-.163 1.875-.49.443-.327.665-.793.665-1.4 0-.327-.05-.605-.15-.835a1.73 1.73 0 00-.425-.595c-.183-.167-.4-.31-.65-.43s-.525-.24-.825-.36a9.563 9.563 0 01-.585-.24 2.66 2.66 0 01-.465-.265 1.09 1.09 0 01-.31-.335.925.925 0 01-.11-.47c0-.167.035-.312.105-.435a.89.89 0 01.285-.305c.12-.08.26-.14.42-.18.16-.04.333-.06.52-.06.367 0 .688.042.965.125.277.083.485.168.625.255l.31-.79c-.16-.107-.412-.205-.755-.295a4.515 4.515 0 00-1.145-.135c-.727 0-1.297.17-1.71.51-.413.34-.62.813-.62 1.42 0 .293.048.543.145.75.097.207.228.385.395.535.167.15.363.28.59.39.227.11.467.208.72.295.22.08.428.16.625.24.197.08.372.175.525.285.153.11.275.24.365.39.09.15.135.332.135.545 0 .693-.507 1.04-1.52 1.04-.453 0-.837-.053-1.15-.16a4.378 4.378 0 01-.7-.29l-.29.8a3.559 3.559 0 00.77.305c.18.05.385.093.615.13.23.037.482.055.755.055zm6.02 0c.807 0 1.432-.163 1.875-.49.443-.327.665-.793.665-1.4 0-.327-.05-.605-.15-.835a1.73 1.73 0 00-.425-.595c-.183-.167-.4-.31-.65-.43s-.525-.24-.825-.36a9.563 9.563 0 01-.585-.24 2.66 2.66 0 01-.465-.265 1.09 1.09 0 01-.31-.335.925.925 0 01-.11-.47c0-.167.035-.312.105-.435a.89.89 0 01.285-.305c.12-.08.26-.14.42-.18.16-.04.333-.06.52-.06.367 0 .688.042.965.125.277.083.485.168.625.255l.31-.79c-.16-.107-.412-.205-.755-.295a4.515 4.515 0 00-1.145-.135c-.727 0-1.297.17-1.71.51-.413.34-.62.813-.62 1.42 0 .293.048.543.145.75.097.207.228.385.395.535.167.15.363.28.59.39.227.11.467.208.72.295.22.08.428.16.625.24.197.08.372.175.525.285.153.11.275.24.365.39.09.15.135.332.135.545 0 .693-.507 1.04-1.52 1.04-.453 0-.837-.053-1.15-.16a4.378 4.378 0 01-.7-.29l-.29.8a3.559 3.559 0 00.77.305c.18.05.385.093.615.13.23.037.482.055.755.055zm6.02 0c.807 0 1.432-.163 1.875-.49.443-.327.665-.793.665-1.4 0-.327-.05-.605-.15-.835a1.73 1.73 0 00-.425-.595c-.183-.167-.4-.31-.65-.43s-.525-.24-.825-.36a9.563 9.563 0 01-.585-.24 2.66 2.66 0 01-.465-.265 1.09 1.09 0 01-.31-.335.925.925 0 01-.11-.47c0-.167.035-.312.105-.435a.89.89 0 01.285-.305c.12-.08.26-.14.42-.18.16-.04.333-.06.52-.06.367 0 .688.042.965.125.277.083.485.168.625.255l.31-.79c-.16-.107-.412-.205-.755-.295a4.515 4.515 0 00-1.145-.135c-.727 0-1.297.17-1.71.51-.413.34-.62.813-.62 1.42 0 .293.048.543.145.75.097.207.228.385.395.535.167.15.363.28.59.39.227.11.467.208.72.295.22.08.428.16.625.24.197.08.372.175.525.285.153.11.275.24.365.39.09.15.135.332.135.545 0 .693-.507 1.04-1.52 1.04-.453 0-.837-.053-1.15-.16a4.378 4.378 0 01-.7-.29l-.29.8a3.559 3.559 0 00.77.305c.18.05.385.093.615.13.23.037.482.055.755.055zm7.46 0c.447 0 .868-.077 1.265-.23a2.95 2.95 0 001.045-.685c.3-.303.538-.682.715-1.135.177-.453.265-.977.265-1.57 0-.593-.088-1.117-.265-1.57a3.285 3.285 0 00-.715-1.135 2.95 2.95 0 00-1.045-.685 3.478 3.478 0 00-1.265-.23c-.453 0-.882.077-1.285.23a2.98 2.98 0 00-1.06.685 3.247 3.247 0 00-.72 1.135c-.177.453-.265.977-.265 1.57 0 .593.088 1.117.265 1.57.177.453.417.832.72 1.135a2.98 2.98 0 001.06.685c.403.153.832.23 1.285.23zm-.02-.85c-.353 0-.672-.065-.955-.195a1.993 1.993 0 01-.72-.555 2.563 2.563 0 01-.455-.875 3.848 3.848 0 01-.16-1.145c0-.42.053-.802.16-1.145.107-.343.258-.635.455-.875s.437-.425.72-.555c.283-.13.602-.195.955-.195s.67.065.95.195c.28.13.518.315.715.555.197.24.348.532.455.875.107.343.16.725.16 1.145 0 .42-.053.802-.16 1.145a2.563 2.563 0 01-.455.875c-.197.24-.435.425-.715.555a2.23 2.23 0 01-.95.195zm6.42.7v-3.19h2.85v-.82h-2.85V42.9h3.21v-.83h-4.18V49h.97zm7.69 0v-6.09h2.18v-.84h-5.33v.84h2.18V49h.97zm4.27.13c.207 0 .37-.067.49-.2a.68.68 0 00.18-.47.68.68 0 00-.18-.47.626.626 0 00-.49-.2.626.626 0 00-.49.2.68.68 0 00-.18.47c0 .18.06.337.18.47.12.133.283.2.49.2z" fill="#FFF" opacity=".5"/><path d="M4.34 6.915C7.824 2.693 13.098 0 19 0c2.218 0 4.348.38 6.326 1.079-4.488 2.893-8.467 9.141-8.467 9.141l1.944.902c4.21-6.566 8.096-9.282 8.205-9.357C33.498 4.788 38 11.37 38 19.001c0 1.873-.271 3.683-.777 5.392-4.571-6.304-18.361-13.096-18.361-13.096l-1.23 1.872c11.672 5.978 16.7 10.446 18.861 13.258C33.602 33.231 26.86 38 19 38a18.905 18.905 0 01-10.418-3.108C9.01 27.116 17.405 13.2 17.405 13.2l-1.838-.807c-6.774 11.41-8.502 17.825-8.48 21.41C2.766 30.32 0 24.984 0 19c0-3.972 1.22-7.66 3.305-10.71 4.97.298 12.197 3.852 12.197 3.852l1.138-1.857c-6.448-2.95-10.849-3.333-12.3-3.37z" fill="#EB3434"/><path d="M66.725 26.195c1.412 0 2.59-.166 3.535-.498v-.879c-1.003.306-2.103.46-3.301.46-1.803 0-3.19-.564-4.16-1.69-.97-1.126-1.455-2.708-1.455-4.746 0-1.992.514-3.561 1.543-4.707 1.028-1.146 2.438-1.719 4.228-1.719 1.146 0 2.24.26 3.281.781l.4-.898c-1.1-.521-2.346-.781-3.74-.781-1.367 0-2.566.3-3.598.903-1.032.602-1.823 1.457-2.373 2.563-.55 1.107-.825 2.386-.825 3.838 0 2.324.576 4.134 1.728 5.43 1.153 1.296 2.731 1.943 4.737 1.943zM75.273 26v-6.22h3.545L82.499 26h1.192l-3.877-6.504c1.028-.286 1.795-.758 2.3-1.416.504-.657.756-1.465.756-2.422 0-1.315-.423-2.3-1.27-2.954-.845-.654-2.154-.981-3.925-.981h-3.398V26h.996zm2.724-7.08h-2.724v-6.3h2.363c1.471 0 2.533.247 3.184.742.65.495.976 1.286.976 2.373 0 1.049-.332 1.841-.996 2.378-.664.537-1.598.806-2.803.806zm14.613 7.275c1.992 0 3.555-.659 4.688-1.977 1.132-1.319 1.699-3.11 1.699-5.376 0-2.272-.563-4.064-1.69-5.376-1.126-1.312-2.685-1.968-4.677-1.968-1.98 0-3.54.653-4.683 1.958-1.143 1.305-1.714 3.094-1.714 5.366 0 2.279.566 4.077 1.7 5.396 1.132 1.318 2.691 1.977 4.677 1.977zm0-.937c-1.706 0-3.014-.558-3.926-1.675-.911-1.117-1.367-2.697-1.367-4.741 0-2.038.46-3.61 1.382-4.717.921-1.107 2.231-1.66 3.93-1.66 1.706 0 3.013.548 3.921 1.645.909 1.097 1.363 2.675 1.363 4.732 0 2.064-.454 3.649-1.363 4.756-.908 1.106-2.221 1.66-3.94 1.66zm13.578.937c1.451 0 2.615-.348 3.49-1.045.876-.696 1.314-1.64 1.314-2.832 0-.65-.128-1.206-.386-1.665-.257-.459-.665-.869-1.225-1.23s-1.397-.734-2.51-1.118c-1.061-.378-1.81-.702-2.246-.972-.436-.27-.75-.575-.942-.913-.192-.339-.288-.772-.288-1.299 0-.84.312-1.504.937-1.992s1.465-.733 2.52-.733c1.08 0 2.213.248 3.398.743l.361-.86a9.447 9.447 0 00-3.779-.761c-1.315 0-2.39.336-3.228 1.01-.836.674-1.254 1.545-1.254 2.613 0 .97.278 1.746.835 2.329.556.582 1.564 1.124 3.022 1.626.996.338 1.751.654 2.266.947.514.293.885.617 1.113.972.228.354.342.802.342 1.342 0 .873-.344 1.578-1.03 2.115-.687.537-1.617.805-2.789.805-1.595 0-2.907-.218-3.935-.654v.996c.93.384 2.269.576 4.013.576zm11.731 0c1.452 0 2.616-.348 3.491-1.045.876-.696 1.314-1.64 1.314-2.832 0-.65-.129-1.206-.386-1.665-.257-.459-.665-.869-1.225-1.23s-1.397-.734-2.51-1.118c-1.061-.378-1.81-.702-2.246-.972-.436-.27-.75-.575-.943-.913-.192-.339-.288-.772-.288-1.299 0-.84.313-1.504.938-1.992s1.465-.733 2.52-.733c1.08 0 2.213.248 3.398.743l.361-.86a9.447 9.447 0 00-3.78-.761c-1.314 0-2.39.336-3.227 1.01-.836.674-1.255 1.545-1.255 2.613 0 .97.279 1.746.835 2.329.557.582 1.564 1.124 3.023 1.626.996.338 1.751.654 2.265.947.515.293.886.617 1.114.972.228.354.342.802.342 1.342 0 .873-.344 1.578-1.03 2.115-.688.537-1.617.805-2.789.805-1.595 0-2.907-.218-3.935-.654v.996c.93.384 2.268.576 4.013.576zM131.692 26c1.615 0 2.892-.365 3.833-1.094.94-.729 1.411-1.745 1.411-3.047 0-.918-.2-1.653-.6-2.207-.4-.553-1.053-.93-1.958-1.132v-.098a2.4 2.4 0 001.596-.986c.4-.547.6-1.247.6-2.1 0-1.257-.456-2.173-1.371-2.75-.915-.575-2.385-.863-4.41-.863h-4.443V26h5.342zm-.557-8.623h-1.757v-3.174h1.591c.866 0 1.5.119 1.9.357.4.237.6.63.6 1.176 0 .586-.184 1.006-.551 1.26-.368.254-.962.381-1.783.381zm.215 6.123h-1.972v-3.72h1.875c1.692 0 2.539.592 2.539 1.777 0 .657-.199 1.145-.596 1.464-.397.32-1.012.479-1.846.479zm15.018 2.695c1.218 0 2.272-.211 3.164-.634.892-.424 1.574-1.032 2.046-1.827.472-.794.708-1.718.708-2.773v-9.238h-3.018v8.72c0 1.107-.223 1.92-.668 2.437-.446.517-1.164.776-2.154.776-1.022 0-1.754-.257-2.197-.771-.443-.515-.664-1.322-.664-2.422v-8.74h-3.018v9.199c0 1.634.508 2.921 1.524 3.862 1.015.94 2.441 1.411 4.277 1.411zm13.455 0c1.654 0 2.945-.37 3.872-1.113.928-.742 1.392-1.758 1.392-3.047 0-.93-.247-1.717-.742-2.358-.495-.642-1.41-1.281-2.744-1.92-1.01-.481-1.649-.815-1.92-1-.27-.186-.466-.378-.59-.576a1.293 1.293 0 01-.186-.699c0-.43.153-.778.46-1.044.305-.267.745-.4 1.318-.4.482 0 .971.061 1.47.185.498.123 1.127.341 1.89.654l.976-2.354a14.6 14.6 0 00-2.115-.742 8.383 8.383 0 00-2.124-.263c-1.51 0-2.693.36-3.55 1.084-.855.722-1.284 1.715-1.284 2.978 0 .67.13 1.257.391 1.758.26.501.609.94 1.045 1.318.436.378 1.09.772 1.963 1.182.93.443 1.548.765 1.85.967.303.202.533.411.689.63.156.218.234.467.234.747 0 .5-.177.879-.532 1.132-.355.254-.864.381-1.528.381-.554 0-1.164-.088-1.831-.263-.668-.176-1.483-.479-2.447-.909v2.813c1.172.573 2.52.86 4.043.86zM174.06 26V14.242h3.877v-2.52h-10.781v2.52h3.877V26h3.027zm15.174 0v-2.5h-5.195v-3.682h4.834v-2.48h-4.834v-3.135h5.195v-2.48h-8.223V26h8.223zm6.883 0v-5.479h1.611L201.137 26h3.359c-.651-.938-2.05-3.011-4.2-6.22.847-.372 1.501-.884 1.964-1.539.462-.654.693-1.401.693-2.241 0-1.439-.465-2.511-1.396-3.218-.931-.706-2.367-1.06-4.307-1.06h-4.16V26h3.027zm.977-7.94h-.977v-3.857h.918c.977 0 1.698.143 2.163.43.466.286.698.768.698 1.445 0 .684-.227 1.185-.683 1.504-.456.319-1.162.479-2.12.479zm21.93 8.135c1.445 0 2.754-.244 3.926-.732v-2.54c-1.426.502-2.64.753-3.643.753-2.39 0-3.584-1.592-3.584-4.776 0-1.53.313-2.723.938-3.579.625-.856 1.507-1.284 2.646-1.284.52 0 1.051.095 1.592.283.54.19 1.077.41 1.611.664l.977-2.46c-1.4-.671-2.793-1.006-4.18-1.006-1.36 0-2.547.297-3.56.893-1.012.596-1.788 1.452-2.329 2.568-.54 1.117-.81 2.417-.81 3.902 0 2.357.55 4.165 1.65 5.425 1.1 1.26 2.689 1.89 4.766 1.89zm11.004 0c1.654 0 2.944-.37 3.872-1.113.928-.742 1.392-1.758 1.392-3.047 0-.93-.248-1.717-.743-2.358-.494-.642-1.41-1.281-2.744-1.92-1.009-.481-1.648-.815-1.919-1-.27-.186-.467-.378-.59-.576a1.293 1.293 0 01-.186-.699c0-.43.153-.778.459-1.044.306-.267.745-.4 1.318-.4.482 0 .972.061 1.47.185.498.123 1.128.341 1.89.654l.976-2.354a14.6 14.6 0 00-2.114-.742 8.383 8.383 0 00-2.124-.263c-1.51 0-2.694.36-3.55 1.084-.856.722-1.284 1.715-1.284 2.978 0 .67.13 1.257.39 1.758.261.501.61.94 1.046 1.318.436.378 1.09.772 1.962 1.182.931.443 1.548.765 1.851.967.303.202.532.411.689.63.156.218.234.467.234.747 0 .5-.178.879-.532 1.132-.355.254-.865.381-1.529.381-.553 0-1.163-.088-1.83-.263-.668-.176-1.483-.479-2.447-.909v2.813c1.172.573 2.52.86 4.043.86zm14.07-.195c1.615 0 2.893-.365 3.834-1.094.94-.729 1.41-1.745 1.41-3.047 0-.918-.2-1.653-.6-2.207-.4-.553-1.053-.93-1.958-1.132v-.098a2.4 2.4 0 001.597-.986c.4-.547.6-1.247.6-2.1 0-1.257-.457-2.173-1.372-2.75-.914-.575-2.384-.863-4.409-.863h-4.443V26h5.342zm-.556-8.623h-1.758v-3.174h1.592c.866 0 1.499.119 1.9.357.4.237.6.63.6 1.176 0 .586-.184 1.006-.552 1.26-.368.254-.962.381-1.782.381zm.215 6.123h-1.973v-3.72h1.875c1.693 0 2.54.592 2.54 1.777 0 .657-.2 1.145-.597 1.464-.397.32-1.012.479-1.845.479zm13.357-1.64v-2.442h-5.244v2.441h5.244zM266.85 26V11.723h-2.48l-4.6 3.662 1.455 1.816 1.64-1.318c.196-.156.544-.485 1.046-.987l-.05 1.485-.029 1.357V26h3.018z" fill="#FFF"/></g></svg>