<svg width="234" height="32" viewBox="0 0 234 32" xmlns="http://www.w3.org/2000/svg"><g fill="none"><path d="M3.654 5.823A15.968 15.968 0 0116 0c1.867 0 3.661.32 5.328.908-3.78 2.437-7.131 7.699-7.131 7.699l1.637.758c3.545-5.528 6.818-7.815 6.91-7.879C28.21 4.032 32 9.574 32 16.001c0 1.577-.228 3.101-.654 4.54-3.85-5.309-15.463-11.028-15.463-11.028l-1.035 1.577c9.829 5.033 14.063 8.796 15.883 11.165C28.296 27.984 22.618 32 16 32a15.92 15.92 0 01-8.773-2.617c.36-6.548 7.43-18.267 7.43-18.267l-1.548-.68c-5.704 9.608-7.16 15.011-7.141 18.03A15.97 15.97 0 010 16c0-3.345 1.027-6.45 2.783-9.019 4.185.251 10.271 3.243 10.271 3.243l.959-1.563C8.583 6.177 4.877 5.855 3.654 5.823z" fill="#EB3434"/><path d="M52.952 23.176c1.272 0 2.332-.15 3.182-.448v-.791c-.903.275-1.893.413-2.97.413-1.624 0-2.872-.507-3.745-1.52-.873-1.015-1.31-2.438-1.31-4.272 0-1.793.463-3.205 1.389-4.237.926-1.031 2.194-1.547 3.806-1.547a6.52 6.52 0 012.953.704l.36-.81c-.99-.468-2.112-.702-3.366-.702-1.23 0-2.31.27-3.239.813-.929.542-1.64 1.31-2.136 2.307-.495.996-.742 2.147-.742 3.454 0 2.092.518 3.72 1.555 4.887 1.038 1.166 2.458 1.749 4.263 1.749zM60.646 23v-5.599h3.19L67.149 23h1.073l-3.49-5.854c.926-.257 1.616-.682 2.07-1.274.454-.592.681-1.318.681-2.18 0-1.183-.38-2.07-1.142-2.658-.762-.59-1.94-.884-3.533-.884h-3.059V23h.897zm2.452-6.372h-2.452v-5.669h2.126c1.325 0 2.28.223 2.866.668.586.445.879 1.157.879 2.136 0 .943-.3 1.656-.897 2.14-.598.483-1.438.725-2.522.725zm13.151 6.548c1.793 0 3.2-.593 4.219-1.78 1.02-1.187 1.53-2.8 1.53-4.838 0-2.045-.508-3.658-1.521-4.839-1.014-1.18-2.417-1.77-4.21-1.77-1.782 0-3.186.587-4.215 1.761-1.028 1.175-1.542 2.785-1.542 4.83 0 2.05.51 3.67 1.53 4.856 1.019 1.187 2.422 1.78 4.209 1.78zm0-.844c-1.535 0-2.713-.502-3.533-1.507-.82-1.005-1.23-2.428-1.23-4.267 0-1.834.414-3.25 1.243-4.245.83-.997 2.008-1.495 3.538-1.495 1.535 0 2.711.494 3.528 1.481.818.988 1.226 2.407 1.226 4.259 0 1.857-.408 3.284-1.226 4.28-.817.996-2 1.494-3.546 1.494zm12.22.844c1.306 0 2.354-.314 3.142-.94.788-.628 1.182-1.477 1.182-2.55 0-.585-.116-1.085-.347-1.498-.232-.413-.6-.782-1.103-1.107-.504-.326-1.257-.661-2.259-1.007-.955-.34-1.629-.631-2.021-.874-.393-.243-.676-.517-.849-.822-.172-.305-.259-.694-.259-1.169 0-.756.281-1.354.844-1.793.562-.44 1.318-.66 2.267-.66.973 0 1.993.223 3.059.669l.325-.774a8.502 8.502 0 00-3.401-.685c-1.184 0-2.152.303-2.905.91-.753.606-1.13 1.39-1.13 2.35 0 .874.251 1.572.752 2.097.501.524 1.408 1.012 2.72 1.463.897.305 1.577.589 2.04.853.462.263.796.555 1.001.874.205.32.308.722.308 1.209 0 .785-.31 1.42-.927 1.903-.618.483-1.455.725-2.51.725-1.435 0-2.616-.197-3.542-.59v.897c.838.346 2.042.519 3.613.519zm10.558 0c1.307 0 2.354-.314 3.142-.94.789-.628 1.183-1.477 1.183-2.55 0-.585-.116-1.085-.348-1.498-.231-.413-.599-.782-1.103-1.107-.504-.326-1.256-.661-2.258-1.007-.955-.34-1.63-.631-2.022-.874-.392-.243-.675-.517-.848-.822-.173-.305-.26-.694-.26-1.169 0-.756.282-1.354.844-1.793.563-.44 1.319-.66 2.268-.66.973 0 1.992.223 3.059.669l.325-.774a8.502 8.502 0 00-3.402-.685c-1.183 0-2.151.303-2.904.91-.753.606-1.13 1.39-1.13 2.35 0 .874.25 1.572.752 2.097.5.524 1.407 1.012 2.72 1.463.896.305 1.576.589 2.039.853.463.263.797.555 1.002.874.205.32.308.722.308 1.209 0 .785-.31 1.42-.928 1.903-.618.483-1.454.725-2.509.725-1.436 0-2.616-.197-3.542-.59v.897c.838.346 2.042.519 3.612.519zM111.423 23c1.453 0 2.603-.328 3.45-.984.846-.657 1.27-1.57 1.27-2.743 0-.826-.18-1.488-.54-1.986-.361-.498-.949-.838-1.763-1.02v-.087a2.16 2.16 0 001.437-.888c.36-.492.54-1.122.54-1.89 0-1.13-.411-1.955-1.234-2.474-.824-.518-2.146-.778-3.969-.778h-3.999V23h4.808zm-.501-7.76h-1.582v-2.857h1.432c.78 0 1.35.107 1.71.32.36.214.54.568.54 1.06 0 .527-.165.905-.496 1.133-.331.229-.866.343-1.604.343zm.193 5.51h-1.775v-3.349h1.687c1.524 0 2.286.534 2.286 1.6 0 .592-.18 1.031-.537 1.318-.357.287-.91.431-1.66.431zm13.516 2.426c1.096 0 2.045-.19 2.848-.572.803-.38 1.416-.928 1.841-1.643.425-.715.637-1.547.637-2.496V10.15h-2.715V18c0 .996-.201 1.727-.602 2.193-.402.466-1.048.699-1.938.699-.92 0-1.58-.232-1.978-.695-.398-.463-.598-1.19-.598-2.18V10.15h-2.715v8.28c0 1.47.457 2.63 1.37 3.476.915.846 2.198 1.27 3.85 1.27zm12.11 0c1.488 0 2.65-.334 3.485-1.002.835-.668 1.252-1.582 1.252-2.742 0-.838-.222-1.546-.668-2.123-.445-.577-1.268-1.153-2.47-1.727-.908-.434-1.483-.734-1.726-.9-.244-.168-.42-.34-.532-.52a1.164 1.164 0 01-.167-.628c0-.387.138-.7.413-.94.275-.24.67-.36 1.186-.36.434 0 .875.055 1.323.166.448.112 1.015.308 1.7.59l.88-2.119a13.14 13.14 0 00-1.903-.668 7.544 7.544 0 00-1.912-.237c-1.359 0-2.424.325-3.194.975-.77.65-1.156 1.544-1.156 2.681 0 .604.117 1.13.351 1.582.235.451.548.847.94 1.187.393.34.982.694 1.767 1.063.838.399 1.393.689 1.666.87.272.182.479.37.62.567.14.196.21.42.21.672 0 .452-.16.791-.479 1.02-.319.229-.777.343-1.375.343a6.53 6.53 0 01-1.648-.238c-.6-.158-1.334-.43-2.202-.817v2.531c1.055.516 2.268.774 3.64.774zM149.554 23V12.418h3.49V10.15h-9.704v2.268h3.49V23h2.724zm13.657 0v-2.25h-4.676v-3.313h4.35v-2.233h-4.35v-2.821h4.676V10.15h-7.4V23h7.4zm6.194 0v-4.93h1.45l3.068 4.93h3.023a518.93 518.93 0 01-3.779-5.599c.762-.334 1.35-.795 1.767-1.384a3.41 3.41 0 00.624-2.017c0-1.295-.42-2.26-1.257-2.896-.838-.636-2.13-.954-3.876-.954h-3.744V23h2.724zm.88-7.146h-.88v-3.471h.827c.878 0 1.527.129 1.946.387.42.257.629.69.629 1.3 0 .616-.205 1.067-.615 1.354-.41.287-1.046.43-1.908.43zm19.736 7.322c1.301 0 2.479-.22 3.534-.66v-2.285c-1.284.452-2.376.677-3.279.677-2.15 0-3.225-1.432-3.225-4.298 0-1.377.281-2.45.843-3.22.563-.771 1.357-1.157 2.382-1.157.47 0 .947.085 1.433.255.486.17.97.37 1.45.598l.879-2.215c-1.26-.603-2.514-.905-3.762-.905-1.224 0-2.292.268-3.203.804s-1.61 1.307-2.096 2.312c-.487 1.004-.73 2.175-.73 3.51 0 2.122.495 3.75 1.485 4.883.99 1.134 2.42 1.7 4.29 1.7zm9.904 0c1.488 0 2.65-.334 3.485-1.002.835-.668 1.252-1.582 1.252-2.742 0-.838-.222-1.546-.667-2.123-.446-.577-1.27-1.153-2.47-1.727-.908-.434-1.484-.734-1.727-.9-.243-.168-.42-.34-.532-.52a1.164 1.164 0 01-.167-.628c0-.387.138-.7.413-.94.275-.24.671-.36 1.187-.36.433 0 .874.055 1.322.166.449.112 1.015.308 1.701.59l.879-2.119a13.14 13.14 0 00-1.903-.668 7.544 7.544 0 00-1.912-.237c-1.359 0-2.424.325-3.194.975-.77.65-1.156 1.544-1.156 2.681 0 .604.117 1.13.351 1.582.235.451.548.847.94 1.187.393.34.982.694 1.768 1.063.837.399 1.393.689 1.665.87.272.182.479.37.62.567.14.196.21.42.21.672 0 .452-.16.791-.478 1.02-.32.229-.778.343-1.376.343a6.53 6.53 0 01-1.648-.238c-.6-.158-1.334-.43-2.202-.817v2.531c1.055.516 2.268.774 3.64.774zM212.59 23c1.453 0 2.603-.328 3.45-.984.846-.657 1.27-1.57 1.27-2.743 0-.826-.18-1.488-.541-1.986-.36-.498-.948-.838-1.762-1.02v-.087a2.16 2.16 0 001.437-.888c.36-.492.54-1.122.54-1.89 0-1.13-.411-1.955-1.235-2.474-.823-.518-2.146-.778-3.968-.778h-3.999V23h4.808zm-.501-7.76h-1.582v-2.857h1.432c.78 0 1.35.107 1.71.32.36.214.54.568.54 1.06 0 .527-.165.905-.496 1.133-.331.229-.866.343-1.604.343zm.193 5.51h-1.775v-3.349h1.687c1.524 0 2.285.534 2.285 1.6 0 .592-.178 1.031-.536 1.318-.357.287-.911.431-1.661.431zm12.022-1.477v-2.197h-4.72v2.197h4.72zm8.76 3.727V10.15h-2.232l-4.14 3.296 1.31 1.635 1.476-1.186c.176-.141.49-.437.94-.888l-.043 1.336-.027 1.221V23h2.716z" fill="#FFF"/></g></svg>