<svg width="968" height="623" viewBox="0 0 968 623" xmlns="http://www.w3.org/2000/svg" xmlns:xlink="http://www.w3.org/1999/xlink"><defs><path id="a" d="M0 0h968v623H0z"/><path d="M19.847 47.328h8.397l-4.09-35.878h-.862l-3.445 35.878zM0 70.23L8.893 0H40.07l8.785 70.229H31.391l-1.285-11.364H18.963l-1.071 11.364H0z" id="i"/><path id="d" d="M0 0h164.885v70.992H0z"/><path id="l" d="M54.198 70.229h16.794V0H54.198z"/><radialGradient cx="-13.45%" cy="88.584%" fx="-13.45%" fy="88.584%" r="269.814%" gradientTransform="matrix(.24826 -.23164 .7904 .04844 -.801 .812)" id="m"><stop stop-color="#E52A24" offset="0%"/><stop stop-color="#D40904" offset="100%"/></radialGradient><radialGradient cx="39.161%" cy="50%" fx="39.161%" fy="50%" r="36.747%" gradientTransform="matrix(0 1 -.78874 0 .786 .108)" id="c"><stop stop-color="#AE2020" offset="0%"/><stop stop-color="#0E0F11" stop-opacity="0" offset="100%"/><stop stop-color="#0E0F11" stop-opacity="0" offset="100%"/></radialGradient><radialGradient cx="-13.45%" cy="88.584%" fx="-13.45%" fy="88.584%" r="112.067%" gradientTransform="matrix(.59772 -.55771 .65415 .33927 -.634 .51)" id="j"><stop stop-color="#E52A24" offset="0%"/><stop stop-color="#D40904" offset="100%"/></radialGradient><filter x="-24.6%" y="-17.1%" width="149.1%" height="134.2%" filterUnits="objectBoundingBox" id="h"><feOffset in="SourceAlpha" result="shadowOffsetOuter1"/><feGaussianBlur stdDeviation="4" in="shadowOffsetOuter1" result="shadowBlurOuter1"/><feColorMatrix values="0 0 0 0 0 0 0 0 0 0 0 0 0 0 0 0 0 0 0.351671766 0" in="shadowBlurOuter1"/></filter><filter x="-10.2%" y="-10.2%" width="120.4%" height="120.4%" filterUnits="objectBoundingBox" id="f"><feOffset in="SourceAlpha" result="shadowOffsetOuter1"/><feGaussianBlur stdDeviation="3.5" in="shadowOffsetOuter1" result="shadowBlurOuter1"/><feColorMatrix values="0 0 0 0 0 0 0 0 0 0 0 0 0 0 0 0 0 0 0.5 0" in="shadowBlurOuter1"/></filter><filter x="-71.5%" y="-17.1%" width="242.9%" height="134.2%" filterUnits="objectBoundingBox" id="k"><feOffset in="SourceAlpha" result="shadowOffsetOuter1"/><feGaussianBlur stdDeviation="4" in="shadowOffsetOuter1" result="shadowBlurOuter1"/><feColorMatrix values="0 0 0 0 0 0 0 0 0 0 0 0 0 0 0 0 0 0 0.351671766 0" in="shadowBlurOuter1"/></filter><rect id="g" x="302" y="230" width="103" height="103" rx="3"/></defs><g fill="none" fill-rule="evenodd"><mask id="b" fill="#fff"><use xlink:href="#a"/></mask><g mask="url(#b)"><path fill="url(#c)" d="M190 7h1078v572H190z"/><path fill="#EB3434" d="M602.658 161.61h66.522l57.635-58.317h12.712V1.625h-.408V102.88h-12.473l-57.635 58.318h-66.184l-11.14-11.272h-36.893v.413h36.724z"/><path fill="#EB3434" d="M604.235 157.03h62.966l57.458-57.827h11.814V.862h-.408v97.93H724.49l-57.458 57.828h-62.628L593.854 146h-39.06v.41h38.89z"/><path fill="#EB3434" d="M606.415 153.977h59.32l57.112-57.756h10.573V.861h-.41v94.946h-10.333l-57.111 57.756h-58.981l-10.199-10.313h-41.592v.413h41.423z"/><path fill="#EB3434" d="M513.098 162.374l30.078-30.432h58.067l18.478 18.695h44.77l56.835-57.505h9.04V.862h-.409v91.856h-8.8l-56.835 57.505H619.89l-18.477-18.695h-58.406l-30.198 30.553z"/><path fill="#EB3434" d="M632.324 129.55h27.594l22.252-22.356h19.11l14.583-14.65V51.686h-2.059v40l-13.377 13.439h-19.11l-22.252 22.355h-25.888l-9.78-9.824h-97.61v2.068h96.758zm-28.913 83.97h63.532l4.148-4.132V162.91l58.574-58.33h14.442l-.41-.408h-14.202L670.68 162.74v46.479l-3.908 3.891H603.58l-11.604-11.556h-37.618l-7.199 7.169.29.289 7.079-7.05h37.278z"/><path fill="#EB3434" d="M572.351 217.336h95.826l7.035-7.087v-46.145l56.094-56.507h15.854l-.407-.41h-15.615l-56.334 56.747v46.145l-6.796 6.847H572.35z"/><path fill="#EB3434" d="M607.466 204.359h45.767l14.538-13.942V163.9h-1.039v26.103l-13.93 13.359h-45.336z"/><path fill="#EB3434" d="M648.958 177.641l13.47-13.47-.271-.27-13.47 13.47zm-2.291 0l13.47-13.47-.27-.27-13.47 13.47zm-4.565 0l14.219-13.47-.286-.27-14.218 13.47zm-3.068 0l13.47-13.47-.27-.27-13.47 13.47zm-2.305 0l12.721-13.47-.255-.27-12.722 13.47zm-4.55 0l14.218-13.47-.286-.27-14.218 13.47zm-3.084 0l12.722-13.47-.256-.27-12.721 13.47zm-126.973 2.29h78.19l11.852-11.93h35.912v-1.047h-36.343l-11.852 11.93h-77.759zm260.108 8.397h-67.74v1.015h67.317zm16.936-45.038H751.66l-15.686 15.953h-40.886l-11.287 11.479.288.293 11.168-11.357h40.886l15.687-15.953h27.166z"/><path fill="#EB3434" d="M681.037 170.771l12.973-13.045h40.838l6.882-6.92 9.108-9.157h16.978L889.096 29.64l-.29-.291-121.16 111.887h-16.978l-15.99 16.078h-40.837l-13.093 13.165z"/><path fill="#EB3434" d="M707.466 154.74h25.149l16.054-15.984h17.53L880.7 34.22l-.292-.29L766.03 138.345H748.5l-16.055 15.985h-24.978z"/><g transform="matrix(-1 0 0 1 307.466 321.916)"><mask id="e" fill="#fff"><use xlink:href="#d"/></mask><path fill="#ED1C24" mask="url(#e)" d="M164.597 70.992L95.195.415H68.03L52.342 16.368H11.457L.289 27.725 0 27.432l11.288-11.48h40.885L67.86 0h27.504l69.521 70.699z"/></g><path fill="#EB3434" d="M310.993 349.397l.29-.289-13.094-13.067h-40.837l-.17.408h40.838zm-52.341-16.031h25.15v-.41h-24.979zM699.79 146.344l26.147-26.154h21.021l21.226-21.231h24.041l.15-.15 38.755-38.766-.723-.722-38.605 38.616H767.76l-21.226 21.232h-21.021l-.15.15-26.295 26.302zm200.674 247.999l.29-.29-123.702-117.332h-24.358l-44.425-44.417v-9.878l-24.178-24.174-.29.29 24.059 24.053v9.878l44.665 44.657h24.357z"/><path fill="#EB3434" d="M750.672 304.02v-24.933l-46.195-46.064v-9.1l-20.386-20.328-.29.29 20.266 20.208v9.099l46.195 46.064v24.934zM620.443 502.832h.39v-43.156l5.644-5.943V371.35l15.458-16.275h5.45l5.119-5.388-.275-.29-5.004 5.268h-5.45l-15.687 16.515v82.383l-5.645 5.943z"/><path fill="#EB3434" d="M615.1 499.779h.389v-42.727l5.645-5.884v-81.564l15.458-16.112h5.45l5.118-5.335-.275-.287-5.004 5.216h-5.45l-15.687 16.35V451l-5.645 5.884z"/><path fill="#EB3434" d="M625.023 504.359h.39v-42.942l5.644-5.913V373.53l15.459-16.193h5.45l5.118-5.362-.275-.288-5.004 5.242h-5.45l-15.687 16.433v81.973l-5.645 5.914zm-28.244 9.923h.99v-47.438l19.92-20.508V365.32l7.334-7.55v-8.374h-.991v7.951l-7.334 7.55v81.015l-19.92 20.509zm243.593-40.458l1.445-1.452-86.54-86.976v-17.99l-.3-.301-58.646-58.943V284.22l-14.9-14.976-1.446 1.453 14.302 14.374v23.942l.3.3 58.646 58.943v17.991l.3.301zm16.421 82.292l.291-.29-76.68-82.388h-44.14l-13.683-13.622v-53.814l-23.026-22.924H665.9l-7.762-7.727-.29.29 7.881 7.847h33.655l22.786 22.684v53.814l13.924 13.861h44.14z"/><path fill="#EB3434" d="M937.71 581.748l.29-.29-127.905-126.482h-18.452L755.82 419.3h-15.11l-38.344-38.184h-33.1l-4.257-4.24-.29.29 4.377 4.36h33.1l38.343 38.183h15.11l35.825 35.675h18.451l86.402 85.44z"/><path fill="#EB3434" d="M638.763 400.542h19.626l4.934-4.947h28.018l4.674-4.687-.288-.29-4.554 4.568h-28.02l-4.933 4.947h-19.457zm94.252 118.321h.405v-40.635l-14.693-14.886v-36.751l-19.253-19.505v-11.124h-.405v11.294l19.253 19.505v36.751l14.693 14.886z"/><path fill="#EB3434" d="M726.896 518.863h.417v-38.646l-14.975-14.855v-37.163l-19.722-19.565v-8.855h-.418v9.027l19.723 19.565v37.162l14.975 14.855zm-208.743 82.681h1.031V445.946l7.654-7.6v-31.352l-6.527-6.48v-32.945l16.633-16.514h16.505l8.237 8.178h34.313l9.177-9.112-.73-.724-8.875 8.812h-33.458l-8.237-8.179h-17.36l-17.236 17.115v33.793l6.527 6.48v30.505l-7.654 7.6z"/><path fill="#EB3434" d="M537.754 476.115h1.02v-12.902l-6.78-6.793v-52.246l-5.95-5.96v-29.079l13.64-13.665h10.592l8.17 8.185h38.778l9.403-9.419h6.793l3.248 3.253.721-.722-3.546-3.553h-7.639l-9.403 9.42H558.87l-8.171-8.186h-11.437l-14.24 14.264v29.925l5.95 5.96v52.246l6.782 6.793z"/><path fill="#EB3434" d="M581.511 568.028h.402v-147l5.633-5.758v-30.384l9.073-9.276h4.922l6.688-6.839-.284-.29-6.57 6.718h-4.923l-9.308 9.517V415.1l-5.633 5.758z"/><path fill="#EB3434" d="M578.458 568.028h.417V418.023l5.994-5.893v-30.081l10.3-10.127h5.249l4.758-4.678-.296-.29-4.635 4.558h-5.249l-10.544 10.367v30.08l-5.994 5.894z"/><path fill="#EB3434" d="M575.405 570.318h.397V418.064l5.557-5.698v-30.163l11.053-11.334h5.372l2.048-2.1-.281-.288-1.932 1.98h-5.371l-11.287 11.573v30.163l-5.556 5.698zm-16.201-50.692h.415v-80.229l8.915-8.88V396.23l-6.51-6.484h-8.555l-4.489-4.471-.293.292 4.61 4.592h8.556l6.267 6.242v33.945l-8.916 8.88zm7.32-139.695l9.644-10.385-.28-.302-9.644 10.386zm-5.344 0l9.644-10.385-.28-.302-9.643 10.386zm-5.321 0l10.385-10.385-.301-.302-10.386 10.386zm-1.57 0l8.902-10.385-.259-.302-8.901 10.386zm-5.322 0l9.644-10.385-.28-.302-9.644 10.386zm211.278-187.023h-56.596v.408h56.425zm44.092 78.626h22.976v-.411h-22.806L743.6 209.978h-21.11l-11.681-11.726-.29.291 11.8 11.847h21.11z"/><path fill="#EB3434" d="M734.485 234.893l12.675-12.676-.301-.301-12.676 12.676zm-3.853 0l11.185-12.676-.266-.301-11.185 12.676zm-4.544 0l12.675-12.676-.301-.301-12.676 12.676zm-3.089 0l11.184-12.676-.266-.301-11.184 12.676zm-5.309 0l12.676-12.676-.301-.301-12.676 12.676zm115.44 191.603l.29-.289-57.385-57.257v-15.247l-57.296-57.17v-18.749l-13.915-13.883h-8.809v.409h8.64l13.674 13.643v18.75l57.296 57.169v15.247z"/><path fill="#EB3434" d="M780.517 367.246v-15.401l-56.728-55.883-.293.288 56.607 55.764v15.4zm-10.165 4.101v-15.645l-59.545-59.74-.288.288 59.426 59.62v15.646zM366.203 541.554L475.307 423.49v-18.056l58.932-59.454v-24.027l14.448-14.576-.722-.73-14.748 14.879v24.028l-58.931 59.454v18.055L365.48 540.824zm-24.098-24.981l112.178-112.464v-15.23l56.956-57.1v-18.727l13.593-13.628h8.588v-.409h-8.757l-13.832 13.867v18.728l-56.955 57.1v15.23l-112.06 112.344z"/><path fill="#EB3434" d="M339.816 513.52l109.32-109.193v-15.46l56.04-55.975-.29-.289-56.16 56.095v15.46l-109.2 109.072z"/><path fill="#EB3434" d="M458.462 406.715v-15.82l59.69-60.29-.288-.292-59.811 60.41v15.821zm280.015-21.44l.286-.285-48.257-47.883V326.71l-12.525-12.429-.286.285 12.406 12.31v10.396z"/><path fill="#EB3434" d="M738.475 390.618l.288-.285-51.734-51.248v-10.497l-9.046-8.962-.288.286 8.926 8.843v10.497zm-101.284-7.633l18.51-18.2h12.723l12.324-12.12v-20.062h-1.015v19.65l-11.73 11.533H655.28l-18.807 18.493zm39.335 138.168h1.169v-58.72l-11.045-9.767V431.84h-1.17v21.254l11.046 9.768zm150.826-211.451l.724-.729-53.32-53.692h-29.467l-11.908-11.99-.725.728 12.208 12.293h29.468zm-282.77-81.679l.288-.289-28.11-28.139h-39.862l-.17.408h39.862z"/><path fill="#EB3434" d="M544.58 234.893l.29-.29-29.643-29.683h-41.675l-93.624-93.753-.17.41 93.624 93.753h41.676z"/><path fill="#EB3434" d="M544.581 244.817l.29-.293-20.92-21.176h-31.46l-12.323 12.473h-61.133L360.47 176.54l-.17.414 58.566 59.282h61.47l12.324-12.473h31.121z"/><path fill="#EB3434" d="M460.174 219.626l.727-.722-69.707-69.329h-34.631l-18.6-18.499-.726.723 18.9 18.798h34.632zm-105.38 46.564h69.71l14.511-15.389h44.791l4.888 5.184h38.608l5.194-5.508h12.374v-1.08h-12.796l-5.193 5.508h-37.765l-4.888-5.184h-45.635l-14.51 15.39h-69.29z"/><path fill="#EB3434" d="M398.628 292.145h54.382l18.04-17.955h54.567l19.253-19.161-.29-.289-19.133 19.043h-54.566l-18.04 17.955h-54.043l-11.357-11.303h-68.089l-24.915-24.796H63.604v.407h230.664l24.915 24.797h68.089zm91.12-101.527h16.19v-.409h-16.023l-32.355-32.868-.403.17z"/><path fill="#EB3434" d="M493.434 186.038l.291-.29-31.315-31.289-.412.17zm-24.9-32.061h.412v-39.413l23.252-23.44v-70.2h-.41v70.028l-23.254 23.44zm25.955 12.977h1.004v-47.737l28.034-28.347h32.03v-1.015h-32.446l-.147.149-28.475 28.792z"/><path fill="#EB3434" d="M489.908 170.771h.411v-55.58l29.754-29.705h32.438l68.604-71.78-.29-.29-68.484 71.66h-32.438l-29.995 29.946zm164.122-51.145h.404v-15.111l13.74-14.017h26.315V20.924h-.403v69.163h-26.078l-13.977 14.258z"/><path fill="#EB3434" d="M520.443 104.359h60.735l11.41-11.325h42.446l9.836-9.764-.287-.285-9.718 9.645H592.42l-11.41 11.325h-60.566zM410.992 235.656l.29-.284-54.896-53.791h-50.822l-.17.403h50.822z"/><path fill="#EB3434" d="M402.595 234.893l.29-.284-49.646-48.593H300.94l-.17.402h52.3z"/><path fill="#EB3434" d="M394.962 234.893l.29-.29-44.258-44.306H248.02l-.17.41h102.976z"/><path fill="#EB3434" d="M387.328 235.656l.29-.29-38.87-38.981H244.354l-21.735-21.797h-51.03V175h50.86l21.735 21.797H348.58z"/><path fill="#EB3434" d="M381.22 234.893l.291-.29-33.926-33.86H242.21l-22.384-22.338H172.35v.41h47.305l22.384 22.34h105.374zm-68.216.763h55.53v-1.061h-55.106l-12.234-12.679-.424 1.062zm10.016 31.298l12.592-12.552h81.633l9.8-9.77h61.902l10.894-10.86h24.5l10.317 10.285.289-.287-10.437-10.404h-24.838l-10.894 10.86h-61.902l-9.8 9.77h-81.633l-12.71 12.671zm114.17 75.573l53.05-53.93h43.18v-1.032h-43.6l-53.347 54.233zm-35.13-54.199h47.125l18.468-18.67h53.553v-.414h-53.723l-18.468 18.67H402.23l-11.009-11.128H324.26v.414h66.792zM353.508 341h72.522l20.367-20.416-.29-.29-20.246 20.296h-72.184l-36.852-36.942-.17.41z"/><path fill="#EB3434" d="M236.993 434.893l29.407-29.445h29.408l59.218-59.295H439.5l53.528-53.599h41.92v-.409h-42.09l-53.527 53.598h-84.473L295.64 405.04h-29.41l-29.406 29.445z"/><path fill="#EB3434" d="M184.854 492.145l81.786-81.471h30.18l58.794-58.569h84.55l54.417-54.208h23.572v-.408H494.41l-54.417 54.208h-84.55l-58.794 58.569h-30.18l-81.905 81.59z"/><path fill="#EB3434" d="M384.146 414.812h29.531l59.295-59.434v-12.1l26.86-26.922v-11.997h-.41v11.827l-26.86 26.922v12.1l-59.055 59.193h-29.53zm-75.957-2.82l52.069-51.657h76.979v-1.014h-77.403l-52.368 51.954z"/><path fill="#EB3434" d="M380.082 409.354h30.136l48.393-48.219-.29-.288-48.273 48.1h-30.135zm-70.53 58.14h37.287l23.834-23.613h26.073l16.827-16.672-.72-.713-16.529 16.376h-26.073l-23.834 23.614h-37.286zm62.884-147.868h50.004l14.797-14.424-1.45-1.414-14.197 13.838h-48.304l-25.915-25.262h-63.728l-.85 2h63.728zm-98.916 40.821h45.396v-1.126h-45.822zm.322-201.127h64.921v-.996h-64.498l-27.922-27.248H112.636v.997H245.92zm50.004-7.633h.414v-13.14l-12.68-12.55v-12.298l-.413.169v12.298l12.68 12.551z"/><path fill="#EB3434" d="M320.03 151.687h.413v-10.723l-12.919-12.833v-12.223l-.413.17V128.3l12.918 12.833zm-9.8-5.343l.29-.292-21.622-21.771h-16.54l-41.663-41.955h-12.309L195.541 59.32l-.29.29 22.966 23.126h12.308l41.664 41.955h16.54zm-65.393 301.375h13.368l24.195-24.184h33.524l50.853-50.828h60.536v-.41h-60.705l-50.854 50.829h-33.523l-24.196 24.183h-13.607z"/><path fill="#EB3434" d="M260.426 452.45l24.192-24.536h33.662l49.91-50.622h59.123v-.414H368.02l-49.91 50.621h-33.66l-24.312 24.659z"/><path fill="#EB3434" d="M334.91 431.84l38.517-37.752h41.087l5.929-5.81-.727-.713-5.628 5.516h-41.086l-38.819 38.046zm48.42 99.027l97.1-104.959v-18.03l32.38-32.237-.292-.29-32.5 32.357v18.03l-96.98 104.839zm102.762 72.967h.415V463.303l33.936-33.53v-14.022l-8.098-8.001v-17.895h-.416v18.065l8.098 8.001v13.682l-33.935 33.53z"/><path fill="#EB3434" d="M458.14 459.553h15.84l41.12-40.403-.293-.287-40.998 40.284h-15.84zm12.645-10.919l25.85-25.962v-19.69l9.304-9.346-.724-.728-9.605 9.647v19.69l-25.549 25.661zm-11.575 19.645h16.958v-2.088h-17.815l-.303.306zm-6.23-248.653l.287-.288-38.171-38.248H402.8l-16.392-16.426H356.32v.408h29.92l16.392 16.425h12.294z"/><path fill="#EB3434" d="M422.846 228.023h50.269v-.39h-50.098l-36.635-34.725-.29.276z"/><path fill="#EB3434" d="M422.892 219.626h23.505v-.399H423.06l-42.786-41.586-.29.282zm29.324-67.939l.288-.289-33.604-33.716V97.337l-.407.169v20.345zm79.967 50.382l5.86-5.712h64.624l7.727-7.53H651.3l8.837-8.613-.29-.283-8.716 8.496h-40.907l-7.727 7.53h-64.623l-5.98 5.83zm-86.077-14.504l.29-.29-69.315-69.176H324.26v.41h52.65zm-93.894-86.26l.292-.293-6.244-6.276h-14.71l-32.953-33.125-.292.293L331.38 95.15h14.71zM345.676 341l.72-.713-31.701-31.348h-56.848v1.008h56.426z"/><path fill="#EB3434" d="M325.176 341h13.587v-.406h-13.418l-17.442-17.384h-46.57l-25.806-25.721h-17.374v.405h17.205l25.805 25.721h46.572zm-63.135 13.628l7.348-6.4h22.046v-.358H269.22l-7.348 6.4zm-26.053-9.048h14.226v-1.005h-13.796l-9.201-8.919h-25.858v1.006h25.429zm12.153 210.823l72.929-77.038h29.624l23.184-22.811-.292-.287-23.063 22.693H320.9l-73.05 77.156zm75.505-305.479l7.593-7.24h81.57v-.394h-81.74l-7.593 7.24zm-68.261-6.107l6.613-7.19h26.963l5.246 5.703h29.29v-.443h-29.122l-5.245-5.704h-27.3l-6.613 7.19zM471.066 96.725h2.049V80.718L391.739.862l-1.449 1.446 80.776 79.258zM806.517 335.75h-16.785l-34.527-34.761v-20.294h-.411v20.465l34.768 35.003h16.785z"/><path fill="#EB3434" d="M790.923 312.026h-9.821l-19.913-19.881-.288.288 20.032 20h9.821z"/><path fill="#EB3434" d="M793.196 308.449h-9.76l-20.721-20.884-.288.29 20.84 21.003h9.76zm-480.679-91.113l.292-.3-7.827-8.045h-74.539l-11.933-12.266h-30.892v.425h30.72l11.934 12.265h74.54z"/><path fill="#EB3434" d="M271.376 218.863l3.031-4.042h26.188v-.539H274.24l-3.032 4.042zm507.81-78.626l18.54-18.774h8.186l.151-.153-.577-.89h-8.187l-18.841 19.08zm7.669 0h13.437l15.174-14.871H967v-.397H815.298l-15.174 14.871h-13.269zm48.561 47.328l.294-.29-34.582-34.184h-4.836l-9.143-9.038-.294.291 9.265 9.158h4.835zm87.864-43.512H794.489v-.763H923.28zm-146.857 7.634h-23.92v.411h23.751zm124.331 142.275l.29-.29-102.46-97.064v-13.012l-24.993-25.039h-28.145l-7.75 7.764H694.49v.41h43.377l7.75-7.763h27.805l24.753 24.798v13.012z"/><path fill="#EB3434" d="M867.93 281.748l.29-.29-99.396-93.893-.29.29zm16.031 10.687l.289-.286-95.45-89.655v-5.773l-5.354-5.322V179.93h-.408v11.636l5.353 5.322v5.772zM377.75 313.52h42.693v-.41h-42.524l-24.683-24.642h-63.239l-21.55-21.514-.17.41 21.55 21.513h63.239z"/><path fill="#EB3434" d="M380.27 308.939h40.173v-.417h-40.001l-20.013-20.194-.292.295z"/><path fill="#EB3434" d="M387.616 303.595h8.104l3.218-3.333h16.925v-.425h-17.095l-3.218 3.333h-7.765l-12.854-13.315-.29.3zM534.947 113.52h106.215l25.378-25.563-.17-.416-25.378 25.562H534.947z"/><path fill="#EB3434" d="M583.802 109.702h54.895l31.364-31.023V20.924h-.412V78.51l-31.123 30.785h-54.724z"/><path fill="#EB3434" d="M525.023 101.305h44.905l20.669-21.125h37.82l13.4-13.694-.289-.295-13.28 13.572h-37.82l-20.669 21.125h-44.736z"/><path fill="#EB3434" d="M563.19 95.962h.417V85.655l11.676-11.31h35.385l-.172-.403H575.11l-11.92 11.546z"/><path fill="#EB3434" d="M566.244 95.962h.407V85.71l9.172-9.05h35.006l-.168-.4h-35.006l-9.41 9.284zm-81.679 55.725h1.031v-38.941l36.307-35.407h16.728l33.686-35.58-.73-.71-33.384 35.285h-16.727l-.151.147-36.76 35.848z"/><path fill="#EB3434" d="M476.931 159.32h.418v-48.424l47.674-46.706-.295-.29-47.797 46.827zm171.756 463.26h.405V448.87l7.004-7.138v-24.476l8.622-8.789-.287-.291-8.74 8.91v24.475l-7.004 7.139z"/><path fill="#EB3434" d="M636.473 618h.395V479.463l9.532-9.868v-23.17l6.445-6.67v-23.74l7.292-7.55-.279-.29-7.408 7.67v23.74l-6.444 6.671v23.17l-9.533 9.868zM723.2 503.595l.296-.296-36.345-36.345-.296.297zm-40.162 3.054h.366v-28.02l3.451-3.76-.259-.281-3.558 3.876zm34.836-3.054l.279-.287-26.439-27.193-.279.287zm115.257 2.29l.289-.29-81.421-82.152h-24.686v.411h24.517z"/><path fill="#EB3434" d="M856.358 546.956l.726-.73-93.707-100h-16.43l-12.801-12.86-.726.73 13.101 13.162h16.43z"/><path fill="#EB3434" d="M775.879 466.19l.289-.301-13.86-14.476H745.14l-11.431-11.94-.29.302 11.552 12.065h17.168z"/><path fill="#EB3434" d="M738.1 468.48h31.961v-.406h-31.788l-12.07-11.801V431.84h-.417v24.601zM426.202 216.573h13.325v-1.051h-12.904l-33.706-34.827-.719.742zm-69.882-43.512v-.398.398zm-81.508-19.084h28.073v-.414h-27.903l-51.009-51.494H0v.414h223.804z"/><path fill="#EB3434" d="M275.83 149.397h21.712v-.41h-21.543l-50.684-50.735H0v.409h225.145zm2.322-35.877h11.756v-1.02h-11.333L240.03 74.035h-14.057l-9.39-9.37-.721.72 9.688 9.669h14.057zm171.335 19.083l.727-.73-12.07-12.122v-16.578l-.151-.15-38.197-38.359-.727.73 38.046 38.207v16.578zm31.351 62.595h35.025v-.41h-34.855l-75.91-76.01V100.3l-24.084-24.116h-14.359V63.9h-.41v12.694h14.599l23.843 23.875v18.478zm286.933-7.633a.763.763 0 101.527 0 .763.763 0 00-1.527 0m15.267-7.634a.763.763 0 100-1.526.763.763 0 000 1.526zM676.168 313.9c0 .212.342.382.763.382.422 0 .764-.17.764-.381s-.342-.382-.764-.382c-.421 0-.763.17-.763.382m0 5.343c0 .211.342.382.763.382.422 0 .764-.17.764-.382 0-.21-.342-.381-.764-.381-.421 0-.763.17-.763.381m9.924 147.329a.382.382 0 10.763 0 .382.382 0 00-.763 0m5.343 9.923a.382.382 0 10.763 0 .382.382 0 00-.763 0m-5.343-2.29a.382.382 0 10.763 0 .382.382 0 00-.763 0m83.969-5.343a.382.382 0 10.763 0 .382.382 0 00-.763 0m6.107-3.436a.763.763 0 101.527 0 .763.763 0 00-1.527 0m-168.702-96.564a.382.382 0 10.763 0 .382.382 0 00-.763 0m-3.054 0a.382.382 0 10.764 0 .382.382 0 00-.764 0m-5.343 0a.382.382 0 10.763 0 .382.382 0 00-.763 0m84.733-170.229a.382.382 0 10.763 0 .382.382 0 00-.763 0m10.687-32.061a.763.763 0 101.526 0 .763.763 0 00-1.526 0m-41.985-47.71a.763.763 0 101.527 0 .763.763 0 00-1.527 0M641.817 84.13a1.145 1.145 0 102.29 0 1.145 1.145 0 00-2.29 0m-58.015 26.336c0 .421.17.763.381.763s.382-.342.382-.763c0-.422-.171-.764-.382-.764-.21 0-.381.342-.381.764m-17.558-15.268a.763.763 0 101.527 0 .763.763 0 00-1.527 0m-3.054 0a.763.763 0 101.528 0 .763.763 0 00-1.527 0m-45.038 9.924c0 .422.512.763 1.145.763.632 0 1.145-.341 1.145-.763 0-.421-.513-.763-1.145-.763-.633 0-1.145.342-1.145.763m6.87-4.58c0 .422.17.763.382.763.21 0 .381-.341.381-.763s-.17-.763-.381-.763-.382.341-.382.763m9.924 11.068c0 .211.341.382.763.382s.763-.17.763-.381-.341-.382-.763-.382-.763.17-.763.382m19.847 33.587c0 .633.17 1.146.382 1.146.21 0 .381-.513.381-1.146 0-.632-.17-1.145-.381-1.145s-.382.513-.382 1.145m0 2.672c0 .422.17.764.382.764.21 0 .381-.342.381-.764 0-.421-.17-.763-.381-.763s-.382.342-.382.763m103.816 32.443a1.145 1.145 0 102.29 0 1.145 1.145 0 00-2.29 0m6.87-16.793a1.908 1.908 0 103.818 0 1.908 1.908 0 00-3.817 0m-59.542 40.457a1.908 1.908 0 103.817 0 1.908 1.908 0 00-3.817 0m19.084-36.641a1.908 1.908 0 103.817 0 1.908 1.908 0 00-3.817 0"/><path d="M499.832 179.55a1.908 1.908 0 103.817 0 1.908 1.908 0 00-3.817 0m-6.87-12.978a1.908 1.908 0 103.817 0 1.908 1.908 0 00-3.817 0m-45.802-35.114a1.908 1.908 0 103.817 0 1.908 1.908 0 00-3.817 0m107.634-40.84c0 1.265.854 2.29 1.908 2.29 1.054 0 1.909-1.025 1.909-2.29 0-1.265-.855-2.29-1.909-2.29s-1.908 1.025-1.908 2.29m143.511 54.58a1.908 1.908 0 103.817 0 1.908 1.908 0 00-3.817 0m79.39-6.106a1.908 1.908 0 103.816 0 1.908 1.908 0 00-3.816 0m-83.97 49.618a1.908 1.908 0 103.817 0 1.908 1.908 0 00-3.817 0m35.878 54.198a1.908 1.908 0 103.817 0 1.908 1.908 0 00-3.817 0m-51.908 88.932a2.29 2.29 0 104.58 0 2.29 2.29 0 00-4.58 0m-43.512 51.145a2.29 2.29 0 104.58 0 2.29 2.29 0 00-4.58 0m98.473 51.526a1.908 1.908 0 103.817 0 1.908 1.908 0 00-3.817 0m-68.702-3.053a1.908 1.908 0 103.817 0 1.908 1.908 0 00-3.817 0m-49.618-75.572a1.908 1.908 0 103.817 0 1.908 1.908 0 00-3.817 0m8.397-5.726a1.527 1.527 0 103.053 0 1.527 1.527 0 00-3.053 0m-20.611.382a1.908 1.908 0 103.817 0 1.908 1.908 0 00-3.817 0m-54.962-44.275a1.908 1.908 0 103.817 0 1.908 1.908 0 00-3.817 0m-112.977-2.29a2.672 2.672 0 105.343 0 2.672 2.672 0 00-5.343 0m38.932 163.359a2.672 2.672 0 105.343 0 2.672 2.672 0 00-5.343 0m206.106-195.802a3.053 3.053 0 106.107 0 3.053 3.053 0 00-6.107 0M523.496 118.862a3.053 3.053 0 106.107 0 3.053 3.053 0 00-6.107 0M468.534 97.87a3.435 3.435 0 106.87 0 3.435 3.435 0 00-6.87 0m-33.587 244.275a1.908 1.908 0 103.816 0 1.908 1.908 0 00-3.816 0m-17.557 45.802a1.908 1.908 0 103.816 0 1.908 1.908 0 00-3.817 0m19.084-27.863a1.527 1.527 0 103.054 0 1.527 1.527 0 00-3.054 0m66.412 33.97a1.908 1.908 0 103.817 0 1.908 1.908 0 00-3.817 0m-35.114 54.961a1.908 1.908 0 103.817 0 1.908 1.908 0 00-3.817 0m-55.725-22.9a1.908 1.908 0 103.817 0 1.908 1.908 0 00-3.817 0m-79.39 5.343a1.908 1.908 0 103.817 0 1.908 1.908 0 00-3.817 0m-26.717-19.084a1.908 1.908 0 103.817 0 1.908 1.908 0 00-3.817 0m12.214-52.29a1.527 1.527 0 103.053 0 1.527 1.527 0 00-3.053 0m-70.229-15.267a1.527 1.527 0 103.053 0 1.527 1.527 0 00-3.053 0m96.946-3.435a1.908 1.908 0 103.817 0 1.908 1.908 0 00-3.817 0m-90.076-32.062a1.909 1.909 0 103.817 0 1.909 1.909 0 00-3.817 0m277.862-21.373a1.908 1.908 0 103.817 0 1.908 1.908 0 00-3.817 0m11.451-37.787a1.527 1.527 0 103.053 0 1.527 1.527 0 00-3.053 0m-84.733-30.152a1.908 1.908 0 103.817 0 1.908 1.908 0 00-3.817 0m-22.137-4.198a2.29 2.29 0 104.58 0 2.29 2.29 0 00-4.58 0m-47.329-35.497a1.908 1.908 0 103.817 0 1.908 1.908 0 00-3.817 0m-24.428 54.962c0 1.054.684 1.908 1.528 1.908.843 0 1.526-.854 1.526-1.908 0-1.054-.683-1.909-1.526-1.909-.844 0-1.527.855-1.527 1.909m-14.504 30.152c0 .844.855 1.527 1.909 1.527 1.053 0 1.908-.683 1.908-1.527 0-.843-.855-1.526-1.908-1.526-1.054 0-1.909.683-1.909 1.526M335.71 158.939a1.908 1.908 0 103.817 0 1.908 1.908 0 00-3.817 0m1.908-25.573a1.908 1.908 0 100-3.816 1.908 1.908 0 000 3.816zm-46.946-19.084a1.527 1.527 0 100-3.053 1.527 1.527 0 000 3.053zM571.588 217.03a.763.763 0 101.527 0 .763.763 0 00-1.527 0m-40.458-15.343a.382.382 0 10.763 0 .382.382 0 00-.763 0m-58.015 25.954a.382.382 0 10.763 0 .382.382 0 00-.763 0m-26.718-39.694a.382.382 0 10.763 0 .382.382 0 00-.763 0m-94.657-86.642a.763.763 0 100-1.526.763.763 0 000 1.526zm-26.335 18.321c.632 0 1.145-.342 1.145-.763 0-.422-.513-.764-1.145-.764-.633 0-1.145.342-1.145.764 0 .421.512.763 1.145.763zm85.877 124.427a.763.763 0 101.527 0 .763.763 0 00-1.527 0m-88.549 0c0 .422.17.764.382.764.21 0 .381-.342.381-.764 0-.421-.17-.763-.381-.763s-.382.342-.382.763m-22.901-29.389a1.145 1.145 0 102.29 0 1.145 1.145 0 00-2.29 0m22.901 51.908a.382.382 0 10.763 0 .382.382 0 00-.763 0m1.527 9.543c0 .421.512.763 1.145.763.632 0 1.145-.342 1.145-.763 0-.422-.513-.764-1.145-.764-.633 0-1.145.342-1.145.764m222.137-67.176a.763.763 0 101.527 0 .763.763 0 00-1.527 0m-2.29 19.084a.763.763 0 101.527 0 .763.763 0 00-1.527 0m0 6.87a.763.763 0 101.527 0 .763.763 0 00-1.527 0m0 9.924a.763.763 0 101.527 0 .763.763 0 00-1.527 0m-9.924-.764a.763.763 0 101.527 0 .763.763 0 00-1.527 0m9.924 10.687a.763.763 0 101.527 0 .763.763 0 00-1.527 0m-23.664 14.504a.763.763 0 101.526 0 .763.763 0 00-1.526 0m-3.053 60.687a1.145 1.145 0 102.29 0 1.145 1.145 0 00-2.29 0m-18.321-24.809c0 .422.17.763.381.763s.382-.341.382-.763c0-.421-.17-.763-.382-.763-.21 0-.381.342-.381.763M373.115 456.649a.382.382 0 10.763 0 .382.382 0 00-.763 0m-61.833-107.634c0 .211.342.382.764.382s.763-.17.763-.382c0-.21-.341-.381-.763-.381s-.764.17-.764.381m-3.816 0a.382.382 0 10.763 0 .382.382 0 00-.763 0m-23.664-14.885c0 .421.17.763.381.763s.382-.342.382-.763c0-.422-.17-.764-.382-.764-.21 0-.381.342-.381.764m5.343 14.122a1.145 1.145 0 102.29 0 1.145 1.145 0 00-2.29 0m49.618-7.634a.382.382 0 10.764 0 .382.382 0 00-.764 0m35.878-50.381c0 .21.342.381.764.381.421 0 .763-.17.763-.381s-.342-.382-.763-.382c-.422 0-.764.17-.764.382m-16.031-2.29c0 .21.342.381.764.381s.763-.17.763-.381-.341-.382-.763-.382-.763.17-.763.382m133.587-101.145a.763.763 0 101.527 0 .763.763 0 00-1.527 0m13.741 3.435c0 .21.342.381.763.381.422 0 .764-.17.764-.381s-.342-.382-.764-.382c-.421 0-.763.17-.763.382m7.634 5.343c0 .21.341.382.763.382.421 0 .763-.171.763-.382 0-.21-.342-.382-.763-.382-.422 0-.763.171-.763.382m-62.596-44.275c0 .211.342.382.763.382.422 0 .764-.17.764-.382 0-.21-.342-.381-.764-.381-.421 0-.763.17-.763.381m103.817-8.397a.382.382 0 10.763 0 .382.382 0 00-.763 0m219.847 32.062a2.672 2.672 0 105.343 0 2.672 2.672 0 00-5.343 0m-16.794 0a2.672 2.672 0 105.343 0 2.672 2.672 0 00-5.343 0m-16.03 0a2.672 2.672 0 105.343 0 2.672 2.672 0 00-5.343 0m-14.504 0a2.672 2.672 0 105.343 0 2.672 2.672 0 00-5.343 0m-17.557 0a2.672 2.672 0 105.343 0 2.672 2.672 0 00-5.343 0m-197.71 40.84a1.527 1.527 0 103.053 0 1.527 1.527 0 00-3.053 0m-9.924 0a1.527 1.527 0 103.053 0 1.527 1.527 0 00-3.053 0m-10.687 0a1.527 1.527 0 103.053 0 1.527 1.527 0 00-3.053 0m-10.687 0a1.527 1.527 0 103.053 0 1.527 1.527 0 00-3.053 0m-8.397 0a1.527 1.527 0 103.053 0 1.527 1.527 0 00-3.053 0m-29.771 59.923c0 1.476 1.026 2.672 2.29 2.672 1.265 0 2.29-1.196 2.29-2.672 0-1.476-1.025-2.672-2.29-2.672-1.264 0-2.29 1.196-2.29 2.672m-16.03 0c0 1.476 1.025 2.672 2.29 2.672 1.264 0 2.29-1.196 2.29-2.672 0-1.476-1.026-2.672-2.29-2.672-1.265 0-2.29 1.196-2.29 2.672m-15.268 0c0 1.476 1.026 2.672 2.29 2.672 1.265 0 2.29-1.196 2.29-2.672 0-1.476-1.025-2.672-2.29-2.672-1.264 0-2.29 1.196-2.29 2.672m-3.053 54.962a2.672 2.672 0 105.344 0 2.672 2.672 0 00-5.344 0m-14.504 0a2.672 2.672 0 105.344 0 2.672 2.672 0 00-5.344 0m-16.794 0a2.672 2.672 0 105.344 0 2.672 2.672 0 00-5.344 0m172.901 138.549a1.908 1.908 0 100 3.817 1.908 1.908 0 000-3.817m0-10.687a1.908 1.908 0 100 3.817 1.908 1.908 0 000-3.817m0-12.977a1.908 1.908 0 100 3.817 1.908 1.908 0 000-3.817m0-10.687a1.908 1.908 0 100 3.817 1.908 1.908 0 000-3.817m0-11.45a1.908 1.908 0 100 3.817 1.908 1.908 0 000-3.817M504.03 161.61a1.908 1.908 0 100 3.817 1.908 1.908 0 000-3.816m0-12.214a1.908 1.908 0 100 3.817 1.908 1.908 0 000-3.817m0-12.214a1.908 1.908 0 100 3.817 1.908 1.908 0 000-3.817m0-11.45a1.908 1.908 0 100 3.817 1.908 1.908 0 000-3.817M283.038 390.618a2.29 2.29 0 104.58 0 2.29 2.29 0 00-4.58 0m-16.03 0a2.29 2.29 0 104.58 0 2.29 2.29 0 00-4.58 0m-16.031 0a2.29 2.29 0 104.58 0 2.29 2.29 0 00-4.58 0m-15.267 0a2.29 2.29 0 104.58 0 2.29 2.29 0 00-4.58 0m-16.794 0a2.29 2.29 0 104.58 0 2.29 2.29 0 00-4.58 0m120.611-182.442a1.527 1.527 0 103.053 0 1.527 1.527 0 00-3.053 0m-9.161 0a1.527 1.527 0 103.054 0 1.527 1.527 0 00-3.054 0m-9.16 0a1.527 1.527 0 103.054 0 1.527 1.527 0 00-3.054 0m18.321 9.924a1.527 1.527 0 103.053 0 1.527 1.527 0 00-3.053 0m-9.161 0a1.527 1.527 0 103.054 0 1.527 1.527 0 00-3.054 0m-9.16 0a1.527 1.527 0 103.054-.001 1.527 1.527 0 00-3.054 0m18.321 8.397a1.527 1.527 0 103.053 0 1.527 1.527 0 00-3.053 0m-9.161 0a1.527 1.527 0 103.054 0 1.527 1.527 0 00-3.054 0m-9.16 0a1.527 1.527 0 103.054 0 1.527 1.527 0 00-3.054 0m51.145-95.42a.763.763 0 100-1.526.763.763 0 000 1.526zm-6.107 0a.763.763 0 100-1.527.763.763 0 000 1.527zm-6.107 0a.763.763 0 100-1.526.763.763 0 000 1.526zm12.214 5.344a.763.763 0 100-1.527.763.763 0 000 1.527zm-6.107 0a.764.764 0 100-1.527.764.764 0 000 1.527zm-6.107 0a.763.763 0 100-1.527.763.763 0 000 1.527zm12.214 6.107a.763.763 0 100-1.527.763.763 0 000 1.527zm-6.107 0a.763.763 0 100-1.527.763.763 0 000 1.527zm-6.107 0a.763.763 0 100-1.527.763.763 0 000 1.527zm338.168 292.748a1.908 1.908 0 103.817 0 1.908 1.908 0 00-3.817 0m-8.397 0a1.908 1.908 0 103.817 0 1.908 1.908 0 00-3.817 0m-7.633 0a1.908 1.908 0 103.817 0 1.908 1.908 0 00-3.817 0m16.03 9.16a1.908 1.908 0 103.817 0 1.908 1.908 0 00-3.817 0m-8.397 0a1.908 1.908 0 103.817 0 1.908 1.908 0 00-3.817 0m-7.633 0a1.908 1.908 0 103.817 0 1.908 1.908 0 00-3.817 0m16.03 8.397a1.909 1.909 0 103.818 0 1.909 1.909 0 00-3.818 0m-8.397 0a1.909 1.909 0 103.817 0 1.909 1.909 0 00-3.817 0m-7.633 0a1.909 1.909 0 103.817 0 1.909 1.909 0 00-3.817 0M550.977 165.046a3.435 3.435 0 106.87 0 3.435 3.435 0 00-6.87 0m-12.977 0a3.435 3.435 0 106.87 0 3.435 3.435 0 00-6.87 0m157.252 204.198a3.054 3.054 0 106.107 0 3.054 3.054 0 00-6.107 0m-14.504 0a3.054 3.054 0 106.107 0 3.054 3.054 0 00-6.107 0" fill="#EB3434"/><g transform="matrix(-1 0 0 1 967 0)"><use fill="#000" filter="url(#f)" xlink:href="#g"/><use fill="#FFF" xlink:href="#g"/></g><path d="M665.036 228.023h.126c.176 0 .319-.458.319-1.018v-4.07c0-.56-.143-1.019-.319-1.019h-.126c-.175 0-.318.458-.318 1.018v4.07c0 .56.143 1.019.318 1.019m-3.498 0h.252c.35 0 .637-.458.637-1.018v-4.07c0-.56-.286-1.019-.637-1.019h-.252c-.35 0-.637.458-.637 1.018v4.07c0 .56.286 1.019.637 1.019m-4.135 0h.126c.175 0 .318-.458.318-1.018v-4.07c0-.56-.143-1.019-.318-1.019h-.126c-.176 0-.319.458-.319 1.018v4.07c0 .56.143 1.019.319 1.019m-4.262 0h.252c.35 0 .638-.458.638-1.018v-4.07c0-.56-.287-1.019-.638-1.019h-.252c-.35 0-.637.458-.637 1.018v4.07c0 .56.287 1.019.637 1.019m-4.135 0h.126c.175 0 .318-.458.318-1.018v-4.07c0-.56-.143-1.019-.318-1.019h-.126c-.176 0-.319.458-.319 1.018v4.07c0 .56.143 1.019.319 1.019m-3.499 0h.253c.35 0 .637-.458.637-1.018v-4.07c0-.56-.287-1.019-.637-1.019h-.253c-.35 0-.637.458-.637 1.018v4.07c0 .56.287 1.019.637 1.019m-5.343 0h.252c.35 0 .637-.458.637-1.018v-4.07c0-.56-.286-1.019-.637-1.019h-.252c-.35 0-.637.458-.637 1.018v4.07c0 .56.286 1.019.637 1.019m-3.372 0h.126c.175 0 .319-.458.319-1.018v-4.07c0-.56-.144-1.019-.319-1.019h-.126c-.175 0-.319.458-.319 1.018v4.07c0 .56.144 1.019.319 1.019m-4.262 0h.253c.35 0 .637-.458.637-1.018v-4.07c0-.56-.287-1.019-.637-1.019h-.253c-.35 0-.637.458-.637 1.018v4.07c0 .56.287 1.019.637 1.019m-3.053 0h.252c.35 0 .637-.458.637-1.018v-4.07c0-.56-.286-1.019-.637-1.019h-.252c-.35 0-.637.458-.637 1.018v4.07c0 .56.286 1.019.637 1.019m-5.344 0h.253c.35 0 .637-.458.637-1.018v-4.07c0-.56-.287-1.019-.637-1.019h-.253c-.35 0-.637.458-.637 1.018v4.07c0 .56.287 1.019.637 1.019m-2.29 0h.253c.35 0 .637-.458.637-1.018v-4.07c0-.56-.287-1.019-.637-1.019h-.253c-.35 0-.637.458-.637 1.018v4.07c0 .56.287 1.019.637 1.019m-4.135 0h.126c.175 0 .319-.458.319-1.018v-4.07c0-.56-.144-1.019-.319-1.019h-.126c-.175 0-.319.458-.319 1.018v4.07c0 .56.144 1.019.319 1.019m-4.58 0h.126c.175 0 .319-.458.319-1.018v-4.07c0-.56-.144-1.019-.32-1.019h-.125c-.175 0-.319.458-.319 1.018v4.07c0 .56.144 1.019.319 1.019m-4.262 0h.253c.35 0 .637-.458.637-1.018v-4.07c0-.56-.287-1.019-.637-1.019h-.253c-.35 0-.637.458-.637 1.018v4.07c0 .56.287 1.019.637 1.019m-3.372 0h.126c.176 0 .319-.458.319-1.018v-4.07c0-.56-.143-1.019-.319-1.019h-.126c-.175 0-.318.458-.318 1.018v4.07c0 .56.143 1.019.318 1.019m-5.024 0h.252c.35 0 .637-.458.637-1.018v-4.07c0-.56-.287-1.019-.637-1.019h-.253c-.35 0-.637.458-.637 1.018v4.07c0 .56.287 1.019.637 1.019m-3.372 0h.126c.176 0 .319-.458.319-1.018v-4.07c0-.56-.143-1.019-.319-1.019h-.126c-.175 0-.318.458-.318 1.018v4.07c0 .56.143 1.019.318 1.019m-4.261 0h.252c.35 0 .637-.458.637-1.018v-4.07c0-.56-.287-1.019-.637-1.019h-.252c-.35 0-.638.458-.638 1.018v4.07c0 .56.287 1.019.638 1.019m-3.372 0h.126c.175 0 .318-.458.318-1.018v-4.07c0-.56-.143-1.019-.318-1.019h-.126c-.176 0-.319.458-.319 1.018v4.07c0 .56.143 1.019.319 1.019m-5.344 0h.126c.176 0 .319-.458.319-1.018v-4.07c0-.56-.143-1.019-.319-1.019h-.126c-.175 0-.318.458-.318 1.018v4.07c0 .56.143 1.019.318 1.019m-3.943 0h.379c.525 0 .955-.458.955-1.018v-4.07c0-.56-.43-1.019-.955-1.019h-.379c-.526 0-.956.458-.956 1.018v4.07c0 .56.43 1.019.956 1.019m-3.372 0h.253c.35 0 .637-.458.637-1.018v-4.07c0-.56-.287-1.019-.637-1.019h-.253c-.35 0-.637.458-.637 1.018v4.07c0 .56.287 1.019.637 1.019m-3.817 0h.253c.35 0 .637-.458.637-1.018v-4.07c0-.56-.287-1.019-.637-1.019h-.253c-.35 0-.637.458-.637 1.018v4.07c0 .56.287 1.019.637 1.019m-4.898 0h.126c.175 0 .318-.458.318-1.018v-4.07c0-.56-.143-1.019-.318-1.019h-.126c-.176 0-.319.458-.319 1.018v4.07c0 .56.143 1.019.319 1.019m-4.262 0h.252c.35 0 .638-.458.638-1.018v-4.07c0-.56-.287-1.019-.638-1.019h-.252c-.35 0-.637.458-.637 1.018v4.07c0 .56.287 1.019.637 1.019m-2.29 0h.252c.35 0 .637-.458.637-1.018v-4.07c0-.56-.286-1.019-.637-1.019h-.252c-.35 0-.637.458-.637 1.018v4.07c0 .56.286 1.019.637 1.019m103.498 114.504h.126c.176 0 .319-.516.319-1.146v-4.58c0-.63-.143-1.145-.319-1.145h-.126c-.175 0-.318.516-.318 1.146v4.58c0 .63.143 1.145.318 1.145m-3.498 0h.252c.35 0 .637-.516.637-1.146v-4.58c0-.63-.286-1.145-.637-1.145h-.252c-.35 0-.637.516-.637 1.146v4.58c0 .63.286 1.145.637 1.145m-4.135 0h.126c.175 0 .318-.516.318-1.146v-4.58c0-.63-.143-1.145-.318-1.145h-.126c-.176 0-.319.516-.319 1.146v4.58c0 .63.143 1.145.319 1.145m-4.262 0h.252c.35 0 .638-.516.638-1.146v-4.58c0-.63-.287-1.145-.638-1.145h-.252c-.35 0-.637.516-.637 1.146v4.58c0 .63.287 1.145.637 1.145m-4.135 0h.126c.175 0 .318-.516.318-1.146v-4.58c0-.63-.143-1.145-.318-1.145h-.126c-.176 0-.319.516-.319 1.146v4.58c0 .63.143 1.145.319 1.145m-3.499 0h.253c.35 0 .637-.516.637-1.146v-4.58c0-.63-.287-1.145-.637-1.145h-.253c-.35 0-.637.516-.637 1.146v4.58c0 .63.287 1.145.637 1.145m-5.343 0h.252c.35 0 .637-.516.637-1.146v-4.58c0-.63-.286-1.145-.637-1.145h-.252c-.35 0-.637.516-.637 1.146v4.58c0 .63.286 1.145.637 1.145m-3.372 0h.126c.175 0 .319-.516.319-1.146v-4.58c0-.63-.144-1.145-.319-1.145h-.126c-.175 0-.319.516-.319 1.146v4.58c0 .63.144 1.145.319 1.145m-4.262 0h.253c.35 0 .637-.516.637-1.146v-4.58c0-.63-.287-1.145-.637-1.145h-.253c-.35 0-.637.516-.637 1.146v4.58c0 .63.287 1.145.637 1.145m-3.053 0h.252c.35 0 .637-.516.637-1.146v-4.58c0-.63-.286-1.145-.637-1.145h-.252c-.35 0-.637.516-.637 1.146v4.58c0 .63.286 1.145.637 1.145m-5.344 0h.253c.35 0 .637-.516.637-1.146v-4.58c0-.63-.287-1.145-.637-1.145h-.253c-.35 0-.637.516-.637 1.146v4.58c0 .63.287 1.145.637 1.145m-2.29 0h.253c.35 0 .637-.516.637-1.146v-4.58c0-.63-.287-1.145-.637-1.145h-.253c-.35 0-.637.516-.637 1.146v4.58c0 .63.287 1.145.637 1.145m-4.135 0h.126c.175 0 .319-.516.319-1.146v-4.58c0-.63-.144-1.145-.319-1.145h-.126c-.175 0-.319.516-.319 1.146v4.58c0 .63.144 1.145.319 1.145m-4.58 0h.126c.175 0 .319-.516.319-1.146v-4.58c0-.63-.144-1.145-.32-1.145h-.125c-.175 0-.319.516-.319 1.146v4.58c0 .63.144 1.145.319 1.145m-4.262 0h.253c.35 0 .637-.516.637-1.146v-4.58c0-.63-.287-1.145-.637-1.145h-.253c-.35 0-.637.516-.637 1.146v4.58c0 .63.287 1.145.637 1.145m-3.372 0h.126c.176 0 .319-.516.319-1.146v-4.58c0-.63-.143-1.145-.319-1.145h-.126c-.175 0-.318.516-.318 1.146v4.58c0 .63.143 1.145.318 1.145m-5.024 0h.252c.35 0 .637-.516.637-1.146v-4.58c0-.63-.287-1.145-.637-1.145h-.253c-.35 0-.637.516-.637 1.146v4.58c0 .63.287 1.145.637 1.145m-3.372 0h.126c.176 0 .319-.516.319-1.146v-4.58c0-.63-.143-1.145-.319-1.145h-.126c-.175 0-.318.516-.318 1.146v4.58c0 .63.143 1.145.318 1.145m-4.261 0h.252c.35 0 .637-.516.637-1.146v-4.58c0-.63-.287-1.145-.637-1.145h-.252c-.35 0-.638.516-.638 1.146v4.58c0 .63.287 1.145.638 1.145m-3.372 0h.126c.175 0 .318-.516.318-1.146v-4.58c0-.63-.143-1.145-.318-1.145h-.126c-.176 0-.319.516-.319 1.146v4.58c0 .63.143 1.145.319 1.145m-5.344 0h.126c.176 0 .319-.516.319-1.146v-4.58c0-.63-.143-1.145-.319-1.145h-.126c-.175 0-.318.516-.318 1.146v4.58c0 .63.143 1.145.318 1.145m-3.943 0h.379c.525 0 .955-.516.955-1.146v-4.58c0-.63-.43-1.145-.955-1.145h-.379c-.526 0-.956.516-.956 1.146v4.58c0 .63.43 1.145.956 1.145m-3.372 0h.253c.35 0 .637-.516.637-1.146v-4.58c0-.63-.287-1.145-.637-1.145h-.253c-.35 0-.637.516-.637 1.146v4.58c0 .63.287 1.145.637 1.145m-3.817 0h.253c.35 0 .637-.516.637-1.146v-4.58c0-.63-.287-1.145-.637-1.145h-.253c-.35 0-.637.516-.637 1.146v4.58c0 .63.287 1.145.637 1.145m-4.898 0h.126c.175 0 .318-.516.318-1.146v-4.58c0-.63-.143-1.145-.318-1.145h-.126c-.176 0-.319.516-.319 1.146v4.58c0 .63.143 1.145.319 1.145m-4.262 0h.252c.35 0 .638-.516.638-1.146v-4.58c0-.63-.287-1.145-.638-1.145h-.252c-.35 0-.637.516-.637 1.146v4.58c0 .63.287 1.145.637 1.145m-2.29 0h.252c.35 0 .637-.516.637-1.146v-4.58c0-.63-.286-1.145-.637-1.145h-.252c-.35 0-.637.516-.637 1.146v4.58c0 .63.286 1.145.637 1.145m106.996-7.315v.126c0 .175.344.318.764.318h3.053c.42 0 .764-.143.764-.318v-.126c0-.176-.344-.319-.764-.319h-3.053c-.42 0-.764.143-.764.319m0-3.943v.378c0 .526.344.956.764.956h3.053c.42 0 .764-.43.764-.956v-.378c0-.526-.344-.956-.764-.956h-3.053c-.42 0-.764.43-.764.956m0-4.899v.252c0 .35.344.638.764.638h3.053c.42 0 .764-.287.764-.638v-.252c0-.35-.344-.637-.764-.637h-3.053c-.42 0-.764.287-.764.637m0-3.817v.253c0 .35.344.637.764.637h3.053c.42 0 .764-.287.764-.637v-.253c0-.35-.344-.637-.764-.637h-3.053c-.42 0-.764.287-.764.637m0-3.372v.126c0 .176.344.319.764.319h3.053c.42 0 .764-.143.764-.319v-.126c0-.175-.344-.318-.764-.318h-3.053c-.42 0-.764.143-.764.318m0-4.261v.252c0 .35.344.637.764.637h3.053c.42 0 .764-.287.764-.637v-.252c0-.35-.344-.638-.764-.638h-3.053c-.42 0-.764.287-.764.638m0-3.372v.126c0 .175.344.318.764.318h3.053c.42 0 .764-.143.764-.318v-.126c0-.176-.344-.319-.764-.319h-3.053c-.42 0-.764.143-.764.319m0-5.344v.126c0 .175.344.319.764.319h3.053c.42 0 .764-.144.764-.319v-.126c0-.175-.344-.319-.764-.319h-3.053c-.42 0-.764.144-.764.32m0-3.499v.252c0 .35.344.637.764.637h3.053c.42 0 .764-.286.764-.637v-.252c0-.35-.344-.637-.764-.637h-3.053c-.42 0-.764.286-.764.637m0-4.136v.127c0 .175.344.318.764.318h3.053c.42 0 .764-.143.764-.318v-.127c0-.175-.344-.318-.764-.318h-3.053c-.42 0-.764.143-.764.318m0-4.261v.252c0 .35.344.637.764.637h3.053c.42 0 .764-.286.764-.637v-.252c0-.35-.344-.637-.764-.637h-3.053c-.42 0-.764.286-.764.637m0-4.135v.126c0 .175.344.318.764.318h3.053c.42 0 .764-.143.764-.318v-.126c0-.176-.344-.319-.764-.319h-3.053c-.42 0-.764.143-.764.319m0-3.499v.253c0 .35.344.637.764.637h3.053c.42 0 .764-.287.764-.637v-.253c0-.35-.344-.637-.764-.637h-3.053c-.42 0-.764.287-.764.637m0-4.135v.126c0 .175.344.319.764.319h3.053c.42 0 .764-.144.764-.319v-.126c0-.175-.344-.319-.764-.319h-3.053c-.42 0-.764.144-.764.319m0-3.498v.252c0 .35.344.637.764.637h3.053c.42 0 .764-.286.764-.637v-.252c0-.35-.344-.637-.764-.637h-3.053c-.42 0-.764.286-.764.637m0-5.344v.253c0 .35.344.637.764.637h3.053c.42 0 .764-.287.764-.637v-.253c0-.35-.344-.637-.764-.637h-3.053c-.42 0-.764.287-.764.637m0-1.845v.126c0 .175.344.319.764.319h3.053c.42 0 .764-.144.764-.319v-.126c0-.175-.344-.319-.764-.319h-3.053c-.42 0-.764.144-.764.319m0-5.343v.126c0 .175.344.318.764.318h3.053c.42 0 .764-.143.764-.318v-.127c0-.175-.344-.318-.764-.318h-3.053c-.42 0-.764.143-.764.318m0-3.943v.379c0 .526.344.956.764.956h3.053c.42 0 .764-.43.764-.956v-.379c0-.525-.344-.955-.764-.955h-3.053c-.42 0-.764.43-.764.955m0-3.69v.126c0 .175.344.319.764.319h3.053c.42 0 .764-.144.764-.319v-.126c0-.175-.344-.319-.764-.319h-3.053c-.42 0-.764.144-.764.319m0-5.026v.253c0 .35.344.637.764.637h3.053c.42 0 .764-.286.764-.637v-.252c0-.35-.344-.637-.764-.637h-3.053c-.42 0-.764.287-.764.637m0-3.817v.253c0 .35.344.637.764.637h3.053c.42 0 .764-.287.764-.637v-.253c0-.35-.344-.637-.764-.637h-3.053c-.42 0-.764.287-.764.637m0-3.817v.253c0 .35.344.637.764.637h3.053c.42 0 .764-.287.764-.637v-.253c0-.35-.344-.637-.764-.637h-3.053c-.42 0-.764.287-.764.637m0-3.372v.126c0 .176.344.32.764.32h3.053c.42 0 .764-.144.764-.32v-.126c0-.175-.344-.318-.764-.318h-3.053c-.42 0-.764.143-.764.318m0-3.943v.379c0 .526.344.956.764.956h3.053c.42 0 .764-.43.764-.956v-.379c0-.525-.344-.955-.764-.955h-3.053c-.42 0-.764.43-.764.955m0-3.69v.126c0 .175.344.318.764.318h3.053c.42 0 .764-.143.764-.318v-.126c0-.175-.344-.319-.764-.319h-3.053c-.42 0-.764.144-.764.319m0-5.344v.126c0 .176.344.319.764.319h3.053c.42 0 .764-.143.764-.319v-.126c0-.175-.344-.318-.764-.318h-3.053c-.42 0-.764.143-.764.318m-116.03 105.344v.126c0 .175.4.318.89.318h3.562c.49 0 .891-.143.891-.318v-.126c0-.176-.4-.319-.89-.319h-3.562c-.49 0-.891.143-.891.319m0-3.943v.378c0 .526.4.956.89.956h3.562c.49 0 .891-.43.891-.956v-.378c0-.526-.4-.956-.89-.956h-3.562c-.49 0-.891.43-.891.956m0-4.899v.252c0 .35.4.638.89.638h3.562c.49 0 .891-.287.891-.638v-.252c0-.35-.4-.637-.89-.637h-3.562c-.49 0-.891.287-.891.637m0-3.817v.253c0 .35.4.637.89.637h3.562c.49 0 .891-.287.891-.637v-.253c0-.35-.4-.637-.89-.637h-3.562c-.49 0-.891.287-.891.637m0-3.372v.126c0 .176.4.319.89.319h3.562c.49 0 .891-.143.891-.319v-.126c0-.175-.4-.318-.89-.318h-3.562c-.49 0-.891.143-.891.318m0-4.261v.252c0 .35.4.637.89.637h3.562c.49 0 .891-.287.891-.637v-.252c0-.35-.4-.638-.89-.638h-3.562c-.49 0-.891.287-.891.638m0-3.372v.126c0 .175.4.318.89.318h3.562c.49 0 .891-.143.891-.318v-.126c0-.176-.4-.319-.89-.319h-3.562c-.49 0-.891.143-.891.319m0-5.344v.126c0 .175.4.319.89.319h3.562c.49 0 .891-.144.891-.319v-.126c0-.175-.4-.319-.89-.319h-3.562c-.49 0-.891.144-.891.32m0-3.499v.252c0 .35.4.637.89.637h3.562c.49 0 .891-.286.891-.637v-.252c0-.35-.4-.637-.89-.637h-3.562c-.49 0-.891.286-.891.637m0-4.136v.127c0 .175.4.318.89.318h3.562c.49 0 .891-.143.891-.318v-.127c0-.175-.4-.318-.89-.318h-3.562c-.49 0-.891.143-.891.318m0-4.261v.252c0 .35.4.637.89.637h3.562c.49 0 .891-.286.891-.637v-.252c0-.35-.4-.637-.89-.637h-3.562c-.49 0-.891.286-.891.637m0-4.135v.126c0 .175.4.318.89.318h3.562c.49 0 .891-.143.891-.318v-.126c0-.176-.4-.319-.89-.319h-3.562c-.49 0-.891.143-.891.319m0-3.499v.253c0 .35.4.637.89.637h3.562c.49 0 .891-.287.891-.637v-.253c0-.35-.4-.637-.89-.637h-3.562c-.49 0-.891.287-.891.637m0-4.135v.126c0 .175.4.319.89.319h3.562c.49 0 .891-.144.891-.319v-.126c0-.175-.4-.319-.89-.319h-3.562c-.49 0-.891.144-.891.319m0-3.498v.252c0 .35.4.637.89.637h3.562c.49 0 .891-.286.891-.637v-.252c0-.35-.4-.637-.89-.637h-3.562c-.49 0-.891.286-.891.637m0-5.344v.253c0 .35.4.637.89.637h3.562c.49 0 .891-.287.891-.637v-.253c0-.35-.4-.637-.89-.637h-3.562c-.49 0-.891.287-.891.637m0-1.845v.126c0 .175.4.319.89.319h3.562c.49 0 .891-.144.891-.319v-.126c0-.175-.4-.319-.89-.319h-3.562c-.49 0-.891.144-.891.319m0-5.343v.126c0 .175.4.318.89.318h3.562c.49 0 .891-.143.891-.318v-.127c0-.175-.4-.318-.89-.318h-3.562c-.49 0-.891.143-.891.318m0-3.943v.379c0 .526.4.956.89.956h3.562c.49 0 .891-.43.891-.956v-.379c0-.525-.4-.955-.89-.955h-3.562c-.49 0-.891.43-.891.955m0-3.69v.126c0 .175.4.319.89.319h3.562c.49 0 .891-.144.891-.319v-.126c0-.175-.4-.319-.89-.319h-3.562c-.49 0-.891.144-.891.319m0-5.026v.253c0 .35.4.637.89.637h3.562c.49 0 .891-.286.891-.637v-.252c0-.35-.4-.637-.89-.637h-3.562c-.49 0-.891.287-.891.637m0-3.817v.253c0 .35.4.637.89.637h3.562c.49 0 .891-.287.891-.637v-.253c0-.35-.4-.637-.89-.637h-3.562c-.49 0-.891.287-.891.637m0-3.817v.253c0 .35.4.637.89.637h3.562c.49 0 .891-.287.891-.637v-.253c0-.35-.4-.637-.89-.637h-3.562c-.49 0-.891.287-.891.637m0-3.372v.126c0 .176.4.32.89.32h3.562c.49 0 .891-.144.891-.32v-.126c0-.175-.4-.318-.89-.318h-3.562c-.49 0-.891.143-.891.318m0-3.943v.379c0 .526.4.956.89.956h3.562c.49 0 .891-.43.891-.956v-.379c0-.525-.4-.955-.89-.955h-3.562c-.49 0-.891.43-.891.955m0-3.69v.126c0 .175.4.318.89.318h3.562c.49 0 .891-.143.891-.318v-.126c0-.175-.4-.319-.89-.319h-3.562c-.49 0-.891.144-.891.319m0-5.344v.126c0 .176.4.319.89.319h3.562c.49 0 .891-.143.891-.319v-.126c0-.175-.4-.318-.89-.318h-3.562c-.49 0-.891.143-.891.318" fill="#EB3434"/><g fill-rule="nonzero"><g transform="matrix(-1 0 0 1 626.55 247.107)"><use fill="#000" filter="url(#h)" xlink:href="#i"/><use fill="url(#j)" xlink:href="#i"/></g><g transform="matrix(-1 0 0 1 702.885 247.107)"><use fill="#000" filter="url(#k)" xlink:href="#l"/><use fill="url(#m)" xlink:href="#l"/></g></g></g></g></svg>