<svg width="550" height="225" viewBox="0 0 550 225" xmlns="http://www.w3.org/2000/svg" xmlns:xlink="http://www.w3.org/1999/xlink"><defs><filter x="-149.6%" y="-39.4%" width="399.2%" height="178.7%" filterUnits="objectBoundingBox" id="E"><feMorphology radius=".8" operator="dilate" in="SourceAlpha" result="shadowSpreadOuter1"/><feOffset in="shadowSpreadOuter1" result="shadowOffsetOuter1"/><feMorphology radius="1.5" in="SourceAlpha" result="shadowInner"/><feOffset in="shadowInner" result="shadowInner"/><feComposite in="shadowOffsetOuter1" in2="shadowInner" operator="out" result="shadowOffsetOuter1"/><feGaussianBlur stdDeviation="2.5" in="shadowOffsetOuter1" result="shadowBlurOuter1"/><feColorMatrix values="0 0 0 0 0.898039216 0 0 0 0 0.164705882 0 0 0 0 0.141176471 0 0 0 1 0" in="shadowBlurOuter1"/></filter><filter x="-75.8%" y="-44.6%" width="251.6%" height="189.2%" filterUnits="objectBoundingBox" id="C"><feMorphology radius=".8" operator="dilate" in="SourceAlpha" result="shadowSpreadOuter1"/><feOffset in="shadowSpreadOuter1" result="shadowOffsetOuter1"/><feMorphology radius="1.5" in="SourceAlpha" result="shadowInner"/><feOffset in="shadowInner" result="shadowInner"/><feComposite in="shadowOffsetOuter1" in2="shadowInner" operator="out" result="shadowOffsetOuter1"/><feGaussianBlur stdDeviation="2.5" in="shadowOffsetOuter1" result="shadowBlurOuter1"/><feColorMatrix values="0 0 0 0 0.898039216 0 0 0 0 0.164705882 0 0 0 0 0.141176471 0 0 0 1 0" in="shadowBlurOuter1"/></filter><filter x="-42.1%" y="-75.7%" width="184.1%" height="251.5%" filterUnits="objectBoundingBox" id="k"><feMorphology radius=".8" operator="dilate" in="SourceAlpha" result="shadowSpreadOuter1"/><feOffset in="shadowSpreadOuter1" result="shadowOffsetOuter1"/><feMorphology radius="1.5" in="SourceAlpha" result="shadowInner"/><feOffset in="shadowInner" result="shadowInner"/><feComposite in="shadowOffsetOuter1" in2="shadowInner" operator="out" result="shadowOffsetOuter1"/><feGaussianBlur stdDeviation="2.5" in="shadowOffsetOuter1" result="shadowBlurOuter1"/><feColorMatrix values="0 0 0 0 0.898039216 0 0 0 0 0.164705882 0 0 0 0 0.141176471 0 0 0 1 0" in="shadowBlurOuter1"/></filter><filter x="-54.4%" y="-54.4%" width="208.7%" height="208.7%" filterUnits="objectBoundingBox" id="m"><feMorphology radius=".8" operator="dilate" in="SourceAlpha" result="shadowSpreadOuter1"/><feOffset in="shadowSpreadOuter1" result="shadowOffsetOuter1"/><feMorphology radius="1.5" in="SourceAlpha" result="shadowInner"/><feOffset in="shadowInner" result="shadowInner"/><feComposite in="shadowOffsetOuter1" in2="shadowInner" operator="out" result="shadowOffsetOuter1"/><feGaussianBlur stdDeviation="2.5" in="shadowOffsetOuter1" result="shadowBlurOuter1"/><feColorMatrix values="0 0 0 0 0.898039216 0 0 0 0 0.164705882 0 0 0 0 0.141176471 0 0 0 1 0" in="shadowBlurOuter1"/></filter><filter x="-75.8%" y="-44.6%" width="251.6%" height="189.2%" filterUnits="objectBoundingBox" id="o"><feMorphology radius=".8" operator="dilate" in="SourceAlpha" result="shadowSpreadOuter1"/><feOffset in="shadowSpreadOuter1" result="shadowOffsetOuter1"/><feMorphology radius="1.5" in="SourceAlpha" result="shadowInner"/><feOffset in="shadowInner" result="shadowInner"/><feComposite in="shadowOffsetOuter1" in2="shadowInner" operator="out" result="shadowOffsetOuter1"/><feGaussianBlur stdDeviation="2.5" in="shadowOffsetOuter1" result="shadowBlurOuter1"/><feColorMatrix values="0 0 0 0 0.898039216 0 0 0 0 0.164705882 0 0 0 0 0.141176471 0 0 0 1 0" in="shadowBlurOuter1"/></filter><filter x="-149.6%" y="-39.4%" width="399.2%" height="178.7%" filterUnits="objectBoundingBox" id="q"><feMorphology radius=".8" operator="dilate" in="SourceAlpha" result="shadowSpreadOuter1"/><feOffset in="shadowSpreadOuter1" result="shadowOffsetOuter1"/><feMorphology radius="1.5" in="SourceAlpha" result="shadowInner"/><feOffset in="shadowInner" result="shadowInner"/><feComposite in="shadowOffsetOuter1" in2="shadowInner" operator="out" result="shadowOffsetOuter1"/><feGaussianBlur stdDeviation="2.5" in="shadowOffsetOuter1" result="shadowBlurOuter1"/><feColorMatrix values="0 0 0 0 0.898039216 0 0 0 0 0.164705882 0 0 0 0 0.141176471 0 0 0 1 0" in="shadowBlurOuter1"/></filter><filter x="-37.4%" y="-149.5%" width="174.8%" height="399%" filterUnits="objectBoundingBox" id="s"><feMorphology radius=".8" operator="dilate" in="SourceAlpha" result="shadowSpreadOuter1"/><feOffset in="shadowSpreadOuter1" result="shadowOffsetOuter1"/><feMorphology radius="1.5" in="SourceAlpha" result="shadowInner"/><feOffset in="shadowInner" result="shadowInner"/><feComposite in="shadowOffsetOuter1" in2="shadowInner" operator="out" result="shadowOffsetOuter1"/><feGaussianBlur stdDeviation="2.5" in="shadowOffsetOuter1" result="shadowBlurOuter1"/><feColorMatrix values="0 0 0 0 0.898039216 0 0 0 0 0.164705882 0 0 0 0 0.141176471 0 0 0 1 0" in="shadowBlurOuter1"/></filter><filter x="-37.4%" y="-149.5%" width="174.8%" height="399%" filterUnits="objectBoundingBox" id="u"><feMorphology radius=".8" operator="dilate" in="SourceAlpha" result="shadowSpreadOuter1"/><feOffset in="shadowSpreadOuter1" result="shadowOffsetOuter1"/><feMorphology radius="1.5" in="SourceAlpha" result="shadowInner"/><feOffset in="shadowInner" result="shadowInner"/><feComposite in="shadowOffsetOuter1" in2="shadowInner" operator="out" result="shadowOffsetOuter1"/><feGaussianBlur stdDeviation="2.5" in="shadowOffsetOuter1" result="shadowBlurOuter1"/><feColorMatrix values="0 0 0 0 0.898039216 0 0 0 0 0.164705882 0 0 0 0 0.141176471 0 0 0 1 0" in="shadowBlurOuter1"/></filter><filter x="-42.1%" y="-75.7%" width="184.1%" height="251.5%" filterUnits="objectBoundingBox" id="w"><feMorphology radius=".8" operator="dilate" in="SourceAlpha" result="shadowSpreadOuter1"/><feOffset in="shadowSpreadOuter1" result="shadowOffsetOuter1"/><feMorphology radius="1.5" in="SourceAlpha" result="shadowInner"/><feOffset in="shadowInner" result="shadowInner"/><feComposite in="shadowOffsetOuter1" in2="shadowInner" operator="out" result="shadowOffsetOuter1"/><feGaussianBlur stdDeviation="2.5" in="shadowOffsetOuter1" result="shadowBlurOuter1"/><feColorMatrix values="0 0 0 0 0.898039216 0 0 0 0 0.164705882 0 0 0 0 0.141176471 0 0 0 1 0" in="shadowBlurOuter1"/></filter><filter x="-62.5%" y="-62.5%" width="225%" height="225%" filterUnits="objectBoundingBox" id="W"><feOffset in="SourceAlpha" result="shadowOffsetOuter1"/><feGaussianBlur stdDeviation="1" in="shadowOffsetOuter1" result="shadowBlurOuter1"/><feColorMatrix values="0 0 0 0 0 0 0 0 0 0 0 0 0 0 0 0 0 0 0.5 0" in="shadowBlurOuter1"/></filter><filter x="-5.8%" y="-5.9%" width="111.7%" height="111.8%" filterUnits="objectBoundingBox" id="c"><feMorphology radius="2.2" operator="dilate" in="SourceAlpha" result="shadowSpreadOuter1"/><feOffset in="shadowSpreadOuter1" result="shadowOffsetOuter1"/><feMorphology radius="2.2" in="SourceAlpha" result="shadowInner"/><feOffset in="shadowInner" result="shadowInner"/><feComposite in="shadowOffsetOuter1" in2="shadowInner" operator="out" result="shadowOffsetOuter1"/><feGaussianBlur stdDeviation="3" in="shadowOffsetOuter1" result="shadowBlurOuter1"/><feColorMatrix values="0 0 0 0 0.898039216 0 0 0 0 0.164705882 0 0 0 0 0.141176471 0 0 0 1 0" in="shadowBlurOuter1"/></filter><filter x="-37.4%" y="-149.5%" width="174.8%" height="399%" filterUnits="objectBoundingBox" id="e"><feMorphology radius=".8" operator="dilate" in="SourceAlpha" result="shadowSpreadOuter1"/><feOffset in="shadowSpreadOuter1" result="shadowOffsetOuter1"/><feMorphology radius="1.5" in="SourceAlpha" result="shadowInner"/><feOffset in="shadowInner" result="shadowInner"/><feComposite in="shadowOffsetOuter1" in2="shadowInner" operator="out" result="shadowOffsetOuter1"/><feGaussianBlur stdDeviation="2.5" in="shadowOffsetOuter1" result="shadowBlurOuter1"/><feColorMatrix values="0 0 0 0 0.898039216 0 0 0 0 0.164705882 0 0 0 0 0.141176471 0 0 0 1 0" in="shadowBlurOuter1"/></filter><filter x="-37.4%" y="-149.5%" width="174.8%" height="399%" filterUnits="objectBoundingBox" id="g"><feMorphology radius=".8" operator="dilate" in="SourceAlpha" result="shadowSpreadOuter1"/><feOffset in="shadowSpreadOuter1" result="shadowOffsetOuter1"/><feMorphology radius="1.5" in="SourceAlpha" result="shadowInner"/><feOffset in="shadowInner" result="shadowInner"/><feComposite in="shadowOffsetOuter1" in2="shadowInner" operator="out" result="shadowOffsetOuter1"/><feGaussianBlur stdDeviation="2.5" in="shadowOffsetOuter1" result="shadowBlurOuter1"/><feColorMatrix values="0 0 0 0 0.898039216 0 0 0 0 0.164705882 0 0 0 0 0.141176471 0 0 0 1 0" in="shadowBlurOuter1"/></filter><filter x="-42.1%" y="-75.7%" width="184.1%" height="251.5%" filterUnits="objectBoundingBox" id="i"><feMorphology radius=".8" operator="dilate" in="SourceAlpha" result="shadowSpreadOuter1"/><feOffset in="shadowSpreadOuter1" result="shadowOffsetOuter1"/><feMorphology radius="1.5" in="SourceAlpha" result="shadowInner"/><feOffset in="shadowInner" result="shadowInner"/><feComposite in="shadowOffsetOuter1" in2="shadowInner" operator="out" result="shadowOffsetOuter1"/><feGaussianBlur stdDeviation="2.5" in="shadowOffsetOuter1" result="shadowBlurOuter1"/><feColorMatrix values="0 0 0 0 0.898039216 0 0 0 0 0.164705882 0 0 0 0 0.141176471 0 0 0 1 0" in="shadowBlurOuter1"/></filter><filter x="-15.8%" y="-180.3%" width="129.2%" height="435.6%" filterUnits="objectBoundingBox" id="U"><feMorphology radius="1.4" operator="dilate" in="SourceAlpha" result="shadowSpreadOuter1"/><feOffset in="shadowSpreadOuter1" result="shadowOffsetOuter1"/><feMorphology radius="1.5" in="SourceAlpha" result="shadowInner"/><feOffset in="shadowInner" result="shadowInner"/><feComposite in="shadowOffsetOuter1" in2="shadowInner" operator="out" result="shadowOffsetOuter1"/><feGaussianBlur stdDeviation="1" in="shadowOffsetOuter1" result="shadowBlurOuter1"/><feColorMatrix values="0 0 0 0 0.898039216 0 0 0 0 0.164705882 0 0 0 0 0.141176471 0 0 0 1 0" in="shadowBlurOuter1"/></filter><filter x="-13.2%" y="-13.3%" width="126.3%" height="126.7%" filterUnits="objectBoundingBox" id="G"><feMorphology radius="5.9" operator="dilate" in="SourceAlpha" result="shadowSpreadOuter1"/><feOffset in="shadowSpreadOuter1" result="shadowOffsetOuter1"/><feMorphology radius="5.9" in="SourceAlpha" result="shadowInner"/><feOffset in="shadowInner" result="shadowInner"/><feComposite in="shadowOffsetOuter1" in2="shadowInner" operator="out" result="shadowOffsetOuter1"/><feGaussianBlur stdDeviation="5.5" in="shadowOffsetOuter1" result="shadowBlurOuter1"/><feColorMatrix values="0 0 0 0 0.239243659 0 0 0 0 0.239243659 0 0 0 0 0.239243659 0 0 0 0.468039773 0" in="shadowBlurOuter1"/></filter><filter x="-51.3%" y="-53%" width="202.6%" height="205.9%" filterUnits="objectBoundingBox" id="I"><feMorphology radius="2.2" operator="dilate" in="SourceAlpha" result="shadowSpreadOuter1"/><feOffset in="shadowSpreadOuter1" result="shadowOffsetOuter1"/><feMorphology radius="2.2" in="SourceAlpha" result="shadowInner"/><feOffset in="shadowInner" result="shadowInner"/><feComposite in="shadowOffsetOuter1" in2="shadowInner" operator="out" result="shadowOffsetOuter1"/><feGaussianBlur stdDeviation="5.5" in="shadowOffsetOuter1" result="shadowBlurOuter1"/><feColorMatrix values="0 0 0 0 0.921568627 0 0 0 0 0.203921569 0 0 0 0 0.203921569 0 0 0 1 0" in="shadowBlurOuter1"/></filter><filter x="-87.4%" y="-14.5%" width="299.8%" height="127.2%" filterUnits="objectBoundingBox" id="S"><feMorphology radius="1.4" operator="dilate" in="SourceAlpha" result="shadowSpreadOuter1"/><feOffset in="shadowSpreadOuter1" result="shadowOffsetOuter1"/><feMorphology radius="1.5" in="SourceAlpha" result="shadowInner"/><feOffset in="shadowInner" result="shadowInner"/><feComposite in="shadowOffsetOuter1" in2="shadowInner" operator="out" result="shadowOffsetOuter1"/><feGaussianBlur stdDeviation="1" in="shadowOffsetOuter1" result="shadowBlurOuter1"/><feColorMatrix values="0 0 0 0 0.898039216 0 0 0 0 0.164705882 0 0 0 0 0.141176471 0 0 0 1 0" in="shadowBlurOuter1"/></filter><filter x="-41.2%" y="-42.3%" width="182.5%" height="184.7%" filterUnits="objectBoundingBox" id="K"><feMorphology radius="1.3" operator="dilate" in="SourceAlpha" result="shadowSpreadOuter1"/><feOffset in="shadowSpreadOuter1" result="shadowOffsetOuter1"/><feMorphology radius="2" in="SourceAlpha" result="shadowInner"/><feOffset in="shadowInner" result="shadowInner"/><feComposite in="shadowOffsetOuter1" in2="shadowInner" operator="out" result="shadowOffsetOuter1"/><feGaussianBlur stdDeviation="5.5" in="shadowOffsetOuter1" result="shadowBlurOuter1"/><feColorMatrix values="0 0 0 0 0.921568627 0 0 0 0 0.203921569 0 0 0 0 0.203921569 0 0 0 1 0" in="shadowBlurOuter1"/></filter><filter x="-5.6%" y="-5.7%" width="111.2%" height="111.3%" filterUnits="objectBoundingBox" id="M"><feMorphology radius="1.3" operator="dilate" in="SourceAlpha" result="shadowSpreadOuter1"/><feOffset in="shadowSpreadOuter1" result="shadowOffsetOuter1"/><feMorphology radius="2" in="SourceAlpha" result="shadowInner"/><feOffset in="shadowInner" result="shadowInner"/><feComposite in="shadowOffsetOuter1" in2="shadowInner" operator="out" result="shadowOffsetOuter1"/><feGaussianBlur stdDeviation="3" in="shadowOffsetOuter1" result="shadowBlurOuter1"/><feColorMatrix values="0 0 0 0 0.898039216 0 0 0 0 0.164705882 0 0 0 0 0.141176471 0 0 0 1 0" in="shadowBlurOuter1"/></filter><filter x="-13.5%" y="-30.3%" width="115.8%" height="152.7%" filterUnits="objectBoundingBox" id="O"><feOffset in="SourceAlpha" result="shadowOffsetOuter1"/><feGaussianBlur stdDeviation="4" in="shadowOffsetOuter1" result="shadowBlurOuter1"/><feColorMatrix values="0 0 0 0 0 0 0 0 0 0 0 0 0 0 0 0 0 0 0.5 0" in="shadowBlurOuter1"/></filter><filter x="-14.8%" y="-180.4%" width="126.9%" height="435.8%" filterUnits="objectBoundingBox" id="Q"><feMorphology radius="1.4" operator="dilate" in="SourceAlpha" result="shadowSpreadOuter1"/><feOffset in="shadowSpreadOuter1" result="shadowOffsetOuter1"/><feMorphology radius="1.5" in="SourceAlpha" result="shadowInner"/><feOffset in="shadowInner" result="shadowInner"/><feComposite in="shadowOffsetOuter1" in2="shadowInner" operator="out" result="shadowOffsetOuter1"/><feGaussianBlur stdDeviation="1" in="shadowOffsetOuter1" result="shadowBlurOuter1"/><feColorMatrix values="0 0 0 0 0.898039216 0 0 0 0 0.164705882 0 0 0 0 0.141176471 0 0 0 1 0" in="shadowBlurOuter1"/></filter><filter x="-6.5%" y="-6.6%" width="113%" height="113.1%" filterUnits="objectBoundingBox" id="Y"><feMorphology radius="2.2" operator="dilate" in="SourceAlpha" result="shadowSpreadOuter1"/><feOffset in="shadowSpreadOuter1" result="shadowOffsetOuter1"/><feMorphology radius="2.2" in="SourceAlpha" result="shadowInner"/><feOffset in="shadowInner" result="shadowInner"/><feComposite in="shadowOffsetOuter1" in2="shadowInner" operator="out" result="shadowOffsetOuter1"/><feGaussianBlur stdDeviation="3" in="shadowOffsetOuter1" result="shadowBlurOuter1"/><feColorMatrix values="0 0 0 0 0.898039216 0 0 0 0 0.164705882 0 0 0 0 0.141176471 0 0 0 1 0" in="shadowBlurOuter1"/></filter><filter x="-42.1%" y="-75.7%" width="184.1%" height="251.5%" filterUnits="objectBoundingBox" id="y"><feMorphology radius=".8" operator="dilate" in="SourceAlpha" result="shadowSpreadOuter1"/><feOffset in="shadowSpreadOuter1" result="shadowOffsetOuter1"/><feMorphology radius="1.5" in="SourceAlpha" result="shadowInner"/><feOffset in="shadowInner" result="shadowInner"/><feComposite in="shadowOffsetOuter1" in2="shadowInner" operator="out" result="shadowOffsetOuter1"/><feGaussianBlur stdDeviation="2.5" in="shadowOffsetOuter1" result="shadowBlurOuter1"/><feColorMatrix values="0 0 0 0 0.898039216 0 0 0 0 0.164705882 0 0 0 0 0.141176471 0 0 0 1 0" in="shadowBlurOuter1"/></filter><filter x="-5.8%" y="-5.9%" width="111.7%" height="111.8%" filterUnits="objectBoundingBox" id="a"><feMorphology radius="2.2" operator="dilate" in="SourceAlpha" result="shadowSpreadOuter1"/><feOffset in="shadowSpreadOuter1" result="shadowOffsetOuter1"/><feMorphology radius="2.2" in="SourceAlpha" result="shadowInner"/><feOffset in="shadowInner" result="shadowInner"/><feComposite in="shadowOffsetOuter1" in2="shadowInner" operator="out" result="shadowOffsetOuter1"/><feGaussianBlur stdDeviation="3" in="shadowOffsetOuter1" result="shadowBlurOuter1"/><feColorMatrix values="0 0 0 0 0.898039216 0 0 0 0 0.164705882 0 0 0 0 0.141176471 0 0 0 1 0" in="shadowBlurOuter1"/></filter><filter x="-54.4%" y="-54.4%" width="208.7%" height="208.7%" filterUnits="objectBoundingBox" id="A"><feMorphology radius=".8" operator="dilate" in="SourceAlpha" result="shadowSpreadOuter1"/><feOffset in="shadowSpreadOuter1" result="shadowOffsetOuter1"/><feMorphology radius="1.5" in="SourceAlpha" result="shadowInner"/><feOffset in="shadowInner" result="shadowInner"/><feComposite in="shadowOffsetOuter1" in2="shadowInner" operator="out" result="shadowOffsetOuter1"/><feGaussianBlur stdDeviation="2.5" in="shadowOffsetOuter1" result="shadowBlurOuter1"/><feColorMatrix values="0 0 0 0 0.898039216 0 0 0 0 0.164705882 0 0 0 0 0.141176471 0 0 0 1 0" in="shadowBlurOuter1"/></filter><path d="M63 27.6L75 48" id="p"/><path d="M30.6 58.8l21.6 12" id="j"/><path d="M137.4 48l12-20.4" id="D"/><path d="M83.4 19.2l6 22.8" id="r"/><path d="M121.8 42l6-22.8" id="F"/><path d="M149.4 57.6l16.8-16.8" id="B"/><path d="M22.2 123.6l24-6" id="t"/><path d="M159 132l21.6 12" id="l"/><path d="M168.6 101.4l30.457.6" id="V"/><path d="M165 85.2l24-6" id="v"/><path d="M165 117.6l24 6" id="h"/><path d="M30.6 144l21.6-12" id="x"/><path d="M104.4 12.758l.9 26.745" id="T"/><path d="M45 40.8l16.8 16.8" id="n"/><path d="M103.197 126.6c-42.506-21.64-64.768-32.84-66.786-33.597-3.27-1.227-8.006-.983-10.501 4.546-2.495 5.528.608 10.318 3.685 11.154 1.901.517 26.147 7.224 72.737 20.121a1.2 1.2 0 00.865-2.226z" id="P"/><path d="M159 70.8l21.6-12" id="z"/><path d="M13.094 102l28.223-.6" id="R"/><path d="M22.2 79.2l24 6" id="f"/><ellipse id="N" cx="105" cy="104.4" rx="100.8" ry="99.6"/><ellipse id="L" cx="106.8" cy="101.4" rx="22.8" ry="22.2"/><ellipse id="J" cx="106.8" cy="101.4" rx="19.2" ry="18.6"/><ellipse id="H" cx="105.6" cy="103.8" rx="87" ry="85.8"/><ellipse id="d" cx="105" cy="103.8" rx="104.4" ry="103.8"/><ellipse id="Z" cx="105" cy="103.8" rx="93.6" ry="93"/><ellipse id="b" cx="105" cy="103.8" rx="104.4" ry="103.8"/><circle id="X" cx="105" cy="100.8" r="2.4"/></defs><g fill="none" fill-rule="evenodd"><g transform="matrix(-1 0 0 1 218.8 9)"><circle fill="#E52A24" opacity=".127" cx="111" cy="96.6" r="79.8"/><use fill="#000" filter="url(#a)" xlink:href="#b"/><use stroke="#EB3434" stroke-width="2.4" xlink:href="#b"/><use fill="#000" filter="url(#c)" xlink:href="#d"/><use stroke="#EB3434" stroke-width="2.4" xlink:href="#d"/><ellipse stroke="#FFF" stroke-width="24" cx="105" cy="104.4" rx="82.8" ry="81.6"/><g opacity=".8"><use fill="#000" filter="url(#e)" xlink:href="#f"/><use stroke="#EB3434" stroke-width=".6" xlink:href="#f"/></g><use fill="#000" filter="url(#g)" xlink:href="#h"/><use stroke="#EB3434" stroke-width=".6" xlink:href="#h"/><g opacity=".8"><use fill="#000" filter="url(#i)" xlink:href="#j"/><use stroke="#EB3434" stroke-width=".6" xlink:href="#j"/></g><use fill="#000" filter="url(#k)" xlink:href="#l"/><use stroke="#EB3434" stroke-width=".6" xlink:href="#l"/><g opacity=".8"><use fill="#000" filter="url(#m)" xlink:href="#n"/><use stroke="#EB3434" stroke-width=".6" xlink:href="#n"/></g><g opacity=".8"><use fill="#000" filter="url(#o)" xlink:href="#p"/><use stroke="#EB3434" stroke-width=".6" xlink:href="#p"/></g><g opacity=".8"><use fill="#000" filter="url(#q)" xlink:href="#r"/><use stroke="#EB3434" stroke-width=".6" xlink:href="#r"/></g><g opacity=".8"><use fill="#000" filter="url(#s)" xlink:href="#t"/><use stroke="#EB3434" stroke-width=".6" xlink:href="#t"/></g><use fill="#000" filter="url(#u)" xlink:href="#v"/><use stroke="#EB3434" stroke-width=".6" xlink:href="#v"/><g opacity=".8"><use fill="#000" filter="url(#w)" xlink:href="#x"/><use stroke="#EB3434" stroke-width=".6" xlink:href="#x"/></g><use fill="#000" filter="url(#y)" xlink:href="#z"/><use stroke="#EB3434" stroke-width=".6" xlink:href="#z"/><use fill="#000" filter="url(#A)" xlink:href="#B"/><use stroke="#EB3434" stroke-width=".6" xlink:href="#B"/><use fill="#000" filter="url(#C)" xlink:href="#D"/><use stroke="#EB3434" stroke-width=".6" xlink:href="#D"/><use fill="#000" filter="url(#E)" xlink:href="#F"/><use stroke="#EB3434" stroke-width=".6" xlink:href="#F"/><use fill="#000" filter="url(#G)" xlink:href="#H"/><use stroke="#FFF" stroke-width="10.8" xlink:href="#H"/><use fill="#000" filter="url(#I)" xlink:href="#J"/><use stroke="#EB3434" stroke-width="2.4" xlink:href="#J"/><use fill="#000" filter="url(#K)" xlink:href="#L"/><use stroke="#EB3434" stroke-width=".6" xlink:href="#L"/><use fill="#000" filter="url(#M)" xlink:href="#N"/><use stroke="#E52A24" stroke-width=".6" xlink:href="#N"/><g transform="matrix(-1 0 0 1 138.8 0)"><use fill="#000" filter="url(#O)" xlink:href="#P"/><use fill="#FFF" xlink:href="#P"/></g><g stroke-linecap="round"><use fill="#000" filter="url(#Q)" xlink:href="#R"/><use stroke="#EB3434" stroke-width="1.8" xlink:href="#R"/></g><g stroke-linecap="round"><use fill="#000" filter="url(#S)" xlink:href="#T"/><use stroke="#EB3434" stroke-width="1.8" xlink:href="#T"/></g><g stroke-linecap="round"><use fill="#000" filter="url(#U)" xlink:href="#V"/><use stroke="#EB3434" stroke-width="1.8" xlink:href="#V"/></g><use fill="#000" filter="url(#W)" xlink:href="#X"/><use fill="#FFF" xlink:href="#X"/><use fill="#000" filter="url(#Y)" xlink:href="#Z"/><use stroke="#EB3434" stroke-width="2.4" xlink:href="#Z"/></g><path d="M256 78.6a2.4 2.4 0 104.8 0 2.4 2.4 0 00-4.8 0m0 39.6a2.4 2.4 0 104.8 0 2.4 2.4 0 00-4.8 0m-19.2 0a2.4 2.4 0 104.8 0 2.4 2.4 0 00-4.8 0M256 97.8a2.4 2.4 0 104.8 0 2.4 2.4 0 00-4.8 0m0 39.6a2.4 2.4 0 104.8 0 2.4 2.4 0 00-4.8 0m-19.2 0a2.4 2.4 0 104.8 0 2.4 2.4 0 00-4.8 0m19.2 20.4a2.4 2.4 0 104.8 0 2.4 2.4 0 00-4.8 0m-19.2 0a2.4 2.4 0 104.8 0 2.4 2.4 0 00-4.8 0m117.6-79.2a2.4 2.4 0 104.8 0 2.4 2.4 0 00-4.8 0m0 39.6a2.4 2.4 0 104.8 0 2.4 2.4 0 00-4.8 0m0-20.4a2.4 2.4 0 104.8 0 2.4 2.4 0 00-4.8 0m0 39.6a2.4 2.4 0 104.8 0 2.4 2.4 0 00-4.8 0m0 20.4a2.4 2.4 0 104.8 0 2.4 2.4 0 00-4.8 0m98.4-79.2a2.4 2.4 0 104.8 0 2.4 2.4 0 00-4.8 0m0 39.6a2.4 2.4 0 104.8 0 2.4 2.4 0 00-4.8 0m0-20.4a2.4 2.4 0 104.8 0 2.4 2.4 0 00-4.8 0m0 39.6a2.4 2.4 0 104.8 0 2.4 2.4 0 00-4.8 0m0 20.4a2.4 2.4 0 104.8 0 2.4 2.4 0 00-4.8 0M275.2 78.6a2.4 2.4 0 104.8 0 2.4 2.4 0 00-4.8 0m0 39.6a2.4 2.4 0 104.8 0 2.4 2.4 0 00-4.8 0m0-20.4a2.4 2.4 0 104.8 0 2.4 2.4 0 00-4.8 0m0 39.6a2.4 2.4 0 104.8 0 2.4 2.4 0 00-4.8 0m0 20.4a2.4 2.4 0 104.8 0 2.4 2.4 0 00-4.8 0m98.4-79.2a2.4 2.4 0 104.8 0 2.4 2.4 0 00-4.8 0m0 39.6a2.4 2.4 0 104.8 0 2.4 2.4 0 00-4.8 0m0-20.4a2.4 2.4 0 104.8 0 2.4 2.4 0 00-4.8 0m0 39.6a2.4 2.4 0 104.8 0 2.4 2.4 0 00-4.8 0m0 20.4a2.4 2.4 0 104.8 0 2.4 2.4 0 00-4.8 0M472 78.6a2.4 2.4 0 104.8 0 2.4 2.4 0 00-4.8 0m0 39.6a2.4 2.4 0 104.8 0 2.4 2.4 0 00-4.8 0m0-20.4a2.4 2.4 0 104.8 0 2.4 2.4 0 00-4.8 0m0 39.6a2.4 2.4 0 104.8 0 2.4 2.4 0 00-4.8 0M295.6 78.6a2.4 2.4 0 104.8 0 2.4 2.4 0 00-4.8 0m0 39.6a2.4 2.4 0 104.8 0 2.4 2.4 0 00-4.8 0m0-20.4a2.4 2.4 0 104.8 0 2.4 2.4 0 00-4.8 0m0 39.6a2.4 2.4 0 104.8 0 2.4 2.4 0 00-4.8 0m0 20.4a2.4 2.4 0 104.8 0 2.4 2.4 0 00-4.8 0M394 78.6a2.4 2.4 0 104.8 0 2.4 2.4 0 00-4.8 0m0 39.6a2.4 2.4 0 104.8 0 2.4 2.4 0 00-4.8 0m0-20.4a2.4 2.4 0 104.8 0 2.4 2.4 0 00-4.8 0m0 39.6a2.4 2.4 0 104.8 0 2.4 2.4 0 00-4.8 0m0 20.4a2.4 2.4 0 104.8 0 2.4 2.4 0 00-4.8 0m97.2-39.6a2.4 2.4 0 104.8 0 2.4 2.4 0 00-4.8 0m0-20.4a2.4 2.4 0 104.8 0 2.4 2.4 0 00-4.8 0M314.8 78.6a2.4 2.4 0 104.8 0 2.4 2.4 0 00-4.8 0m0 39.6a2.4 2.4 0 104.8 0 2.4 2.4 0 00-4.8 0m0-20.4a2.4 2.4 0 104.8 0 2.4 2.4 0 00-4.8 0m0 39.6a2.4 2.4 0 104.8 0 2.4 2.4 0 00-4.8 0m0 20.4a2.4 2.4 0 104.8 0 2.4 2.4 0 00-4.8 0m98.4-79.2a2.4 2.4 0 104.8 0 2.4 2.4 0 00-4.8 0m0 39.6a2.4 2.4 0 104.8 0 2.4 2.4 0 00-4.8 0m0-20.4a2.4 2.4 0 104.8 0 2.4 2.4 0 00-4.8 0m0 39.6a2.4 2.4 0 104.8 0 2.4 2.4 0 00-4.8 0m0 20.4a2.4 2.4 0 104.8 0 2.4 2.4 0 00-4.8 0m98.4-39.6a2.4 2.4 0 104.8 0 2.4 2.4 0 00-4.8 0m0-20.4a2.4 2.4 0 104.8 0 2.4 2.4 0 00-4.8 0M335.2 78.6a2.4 2.4 0 104.8 0 2.4 2.4 0 00-4.8 0m0 39.6a2.4 2.4 0 104.8 0 2.4 2.4 0 00-4.8 0m0-20.4a2.4 2.4 0 104.8 0 2.4 2.4 0 00-4.8 0m0 39.6a2.4 2.4 0 104.8 0 2.4 2.4 0 00-4.8 0m0 20.4a2.4 2.4 0 104.8 0 2.4 2.4 0 00-4.8 0m97.2-79.2a2.4 2.4 0 104.8 0 2.4 2.4 0 00-4.8 0m0 39.6a2.4 2.4 0 104.8 0 2.4 2.4 0 00-4.8 0m0-20.4a2.4 2.4 0 104.8 0 2.4 2.4 0 00-4.8 0m0 39.6a2.4 2.4 0 104.8 0 2.4 2.4 0 00-4.8 0m0 20.4a2.4 2.4 0 104.8 0 2.4 2.4 0 00-4.8 0m98.4-39.6a2.4 2.4 0 104.8 0 2.4 2.4 0 00-4.8 0" fill="#EB3434"/><path fill="#EB3434" opacity=".7" d="M382 26.614H268v-.428h114zm-67.2-9.654h-114v-.32h114zm100.8 25.3h-114v-.52h114zm-31.2 27.554h-114v-.428h114zm21.6-2.892H292v-.644h114zm25.2 12.538h-114v-.52h114zm-81.6-18.338h-84v-1.044h84z"/><path fill="#EB3434" opacity=".7" d="M347.2 61.354h-82.8v-.308h82.8zm-21.6-19.141h-84v-.426h84zm15.6-2.453h-84v-.32h84zm-12 12.1h-84v-.52h84zm87.6 68.39h-114v-.5h114zM370 143.024H256v-.448h114zm-15.6-2.444H256v-.36h98.4zm2.4-11.076h-98.4v-1.008h98.4zm4.8 8.746h-98.4v-.5h98.4zm-58.2 46.725v-.35.35zm10.2-141.61h-85.2v-.33h85.2zM284.8 31.18H190v-1.16h94.8zm32.4 17.235H232v-.83h85.2zm-16.8-5.55h-85.2v-.53h85.2zM287.2 77.4h-72v-1.2h72zm-39.6 130.73h-74.4v-1.06h74.4zm10.8-50.768h-42v-1.524h42zm25.2 39.678H184v-.48h99.6zm7.2-2.04H190v-2.4h100.8zm8.4-10.829h-86.4v-2.342h86.4zm-12-15.881h-86.4v-1.78h86.4zm-10.8-3.672h-60v-.436h60zm8.4-30.985h-63.6v-.866h63.6zM274 186.481h-85.2v-.962H274zm24-77.881h-76.8v-2.4H298zm6-6.015h-76.8v-1.17H304z"/><path fill="#EB3434" opacity=".7" d="M335.2 102.571H211.6v-2.342h123.6zm-49.2 2.31h-72v-.962h72zM299.2 70.2h-69.6v-2.4h69.6zm8.4-6.015H203.2v-1.17h104.4zM286 67.562h-74.4v-1.924H286zm-98.4 148.596h-34.8v-.316h34.8zm49.2-12.773H178v-1.17h58.8zm-8.4 9.255h-55.2v-.48h55.2zm48-57.578h-60v-.524h60zM287.2 83.4h-72V81h72zm21.6 29.97H226v-1.14h82.8zm-30 31.23h-60v-2.4h60zm36-91.419h-85.2v-.762h85.2zM346 97.622H212.8v-.844H346zm-38.4 18.98h-82.8v-.404h82.8zm-12 34.763h-85.2v-.33h85.2zm-4.8-64.532h-72v-.866h72zm19.2 4.8h-67.2v-.866H310zM228.4 49.8h-28.8v-1.2h28.8zm20.4 9.6H220V57h28.8zM244 72.433h-30v-.866h30zm44.4-49.473h-94.8v-.32h94.8zM274 38.495h-94.8v-1.39H274zm-31.2-19.129h-75.6v-.332h75.6zM256 33.89h-75.6v-.58H256zm-26.4-12.06H154v-1.66h75.6zm1.2-3.697h-75.6v-.266h75.6zM244 29.181h-76.8v-.762H244zM215.2 14.56h-75.6v-.32h75.6zm19.2 9.787h-75.6v-.694h75.6zM298 177.85h-94.8v-.5H298zm-15.6 1.366h-81.6v-.832h81.6z"/><g fill="#EB3434"><path d="M518.05 137.639H389.667v-.293H518.05zm-37.74 36.294H351.926v-.426H480.31zm-22.015-3.208H329.91v-.422h128.385zm57.716 10.933H387.628v-.253h128.383zm-35.975-128.69H351.653v-.336h128.383zm-22.82 83.838H328.833v-.462h128.383zm51.683 7.368H380.516v-.254h128.383zm-9.935-5.654H370.581v-.392h128.383zm-59.756 49.173H310.824v-.329h128.384zm96.549-57.224H472.51v-.358h63.248zm-5.864-7.678h-63.249v-.265h63.249z"/><path d="M481.539 137.382H418.29v-.395h63.249zm28.433.544h-63.248v-.24h63.248zm16.382-9.062h-63.248v-.273h63.248zM550 114.27H421.616v-.353H550zm-41.101 4.381H380.516v-.325h128.383zm25.56-12.959H406.076v-.398h128.383zm-6.971-5.829H399.105v-.353h128.383zm-41.1 4.382H358.005v-.326h128.383zm25.562-12.96H383.565v-.398h128.383zm-66.79-26.701H316.776v-.336H445.16zm64.879 9.428H381.654v-.41H510.04zm6.345-14.886H388v-.254h128.384zm-34.964 7.59H353.037v-.41H481.42zM427.095 178.37H298.198V178h128.897zm-39.365-12.938h-88.858v-.588h88.858zm31.028 20.57H289.862v-.32h128.896zm-10.826-6.517H279.036v-.494h128.896zm-7.927 9.981H271.108v-.372h128.897zm-21.579-32.556h-50.724v-.494h50.724z"/><path d="M367.43 165.482h-50.723v-.495h50.724zm.542-11.132h-84.596v-.436h84.596zm40.42-1.783h-84.598v-.437h84.598zm12.8-5.827h-84.598v-.453h84.598zm-65.796 15.141H270.8v-.345h84.596zm35.894 13.407h-63.501v-.5h63.5zm-17.652.69h-43.776v-.304h43.776zm34.977-31.27h-84.598v-.347h84.598zm23.257-18.497h-88.858v-.449h88.858zm-24.188-15.144h-88.858v-.531h88.858zm10.76 13.229h-88.858v-.359h88.858zm6.304-26.881H335.89v-.522h88.858zM398.72 115.34h-88.857v-.504h88.858zm21.1-61.348h-88.858v-.428h88.857z"/></g></g></svg>